<svg version="1.2" xmlns="http://www.w3.org/2000/svg" viewBox="0 0 1219 540" width="1219" height="540"><defs><linearGradient id="P" gradientUnits="userSpaceOnUse"/><linearGradient id="g1" x1="3.7" y1="548.7" x2="3.7" y2="95.1" href="#P"><stop stop-color="#6fc39e"/><stop offset=".4" stop-color="#1a1c81"/><stop offset="1" stop-color="#1b002d"/></linearGradient><radialGradient id="g2" cx="505.3" cy="235.9" r="110.3" href="#P"><stop stop-color="#5d2798"/><stop offset="1"/></radialGradient><radialGradient id="g3" cx="506.7" cy="230.8" r="94.1" href="#P"><stop stop-color="#213a9f"/><stop offset="1"/></radialGradient><linearGradient id="g4" x1="95.7" y1="390.4" x2="66.9" y2="271.6" href="#P"><stop stop-color="#38269f"/><stop offset="1" stop-color="#2a337e"/></linearGradient><linearGradient id="g5" x1="80.3" y1="313.6" x2="71.4" y2="277" href="#P"><stop stop-color="#3949b1"/><stop offset="1" stop-color="#342bab"/></linearGradient><linearGradient id="g6" x1="142.9" y1="311.8" x2="140.3" y2="300.7" href="#P"><stop stop-color="#3949b1"/><stop offset="1" stop-color="#342bab"/></linearGradient><linearGradient id="g7" x1="475.4" y1="523" x2="421.3" y2="210.9" href="#P"><stop stop-color="#38269f"/><stop offset="1" stop-color="#2a337e"/></linearGradient><linearGradient id="g8" x1="879.9" y1="262.8" x2="884" y2="194.7" href="#P"><stop stop-color="#3949b1"/><stop offset="1" stop-color="#342bab"/></linearGradient><linearGradient id="g9" x1="933.4" y1="322.9" x2="918.9" y2="232" href="#P"><stop stop-color="#3949b1"/><stop offset="1" stop-color="#342bab"/></linearGradient><linearGradient id="g10" x1="1055.9" y1="326" x2="1056.5" y2="316.1" href="#P"><stop stop-color="#3949b1"/><stop offset="1" stop-color="#342bab"/></linearGradient><linearGradient id="g11" x1="1048.5" y1="305.7" x2="1049.6" y2="288.1" href="#P"><stop stop-color="#3949b1"/><stop offset="1" stop-color="#342bab"/></linearGradient><linearGradient id="g12" x1="802" y1="247.4" x2="803.8" y2="216.3" href="#P"><stop stop-color="#3949b1"/><stop offset="1" stop-color="#342bab"/></linearGradient><linearGradient id="g13" x1="563.4" y1="266.6" x2="526.5" y2="167" href="#P"><stop stop-color="#3949b1"/><stop offset="1" stop-color="#342bab"/></linearGradient><linearGradient id="g14" x1="446" y1="301.4" x2="449.4" y2="244" href="#P"><stop stop-color="#3949b1"/><stop offset="1" stop-color="#342bab"/></linearGradient><linearGradient id="g15" x1="684.7" y1="267.2" x2="659.2" y2="187.7" href="#P"><stop stop-color="#3949b1"/><stop offset="1" stop-color="#342bab"/></linearGradient><linearGradient id="g16" x1="548" y1="505.1" x2="526.6" y2="384.2" href="#P"><stop stop-color="#38269f"/><stop offset="1" stop-color="#2a337e"/></linearGradient><linearGradient id="g17" x1="534.1" y1="369.4" x2="449.6" y2="159.3" href="#P"><stop stop-color="#3949b1"/><stop offset="1" stop-color="#342bab"/></linearGradient><linearGradient id="g18" x1="644.3" y1="362.7" x2="640.8" y2="342.7" href="#P"><stop stop-color="#3949b1"/><stop offset="1" stop-color="#342bab"/></linearGradient><linearGradient id="g19" x1="182.2" y1="371.1" x2="164.6" y2="247.6" href="#P"><stop stop-color="#38269f"/><stop offset="1" stop-color="#2a337e"/></linearGradient><linearGradient id="g20" x1="170.7" y1="273.5" x2="163.3" y2="185.4" href="#P"><stop stop-color="#3949b1"/><stop offset="1" stop-color="#342bab"/></linearGradient><linearGradient id="g21" x1="263.9" y1="289.8" x2="261.7" y2="263.5" href="#P"><stop stop-color="#3949b1"/><stop offset="1" stop-color="#342bab"/></linearGradient><linearGradient id="g22" x1="296" y1="294.8" x2="295.4" y2="287.3" href="#P"><stop stop-color="#3949b1"/><stop offset="1" stop-color="#342bab"/></linearGradient><linearGradient id="g23" x1="365.9" y1="300.1" x2="364.7" y2="285.7" href="#P"><stop stop-color="#3949b1"/><stop offset="1" stop-color="#342bab"/></linearGradient><linearGradient id="g24" x1="108.2" y1="341.1" x2="901.5" y2="341.1" href="#P"><stop stop-color="#3949b1"/><stop offset="1" stop-color="#342bab"/></linearGradient><linearGradient id="g25" x1="977.7" y1="404.1" x2="1199.9" y2="404.1" href="#P"><stop stop-color="#3949b1"/><stop offset="1" stop-color="#342bab"/></linearGradient><linearGradient id="g26" x1="834.9" y1="377.1" x2="1047.9" y2="396.3" href="#P"><stop stop-color="#3949b1"/><stop offset="1" stop-color="#342bab"/></linearGradient><linearGradient id="g27" x1="1034.3" y1="431.3" x2="1034.4" y2="429.7" href="#P"><stop/><stop offset="1" stop-color="#8abbb1"/></linearGradient><linearGradient id="g28" x1="1039.9" y1="428.6" x2="1039.9" y2="428.4" href="#P"><stop/><stop offset="1" stop-color="#8abbb1"/></linearGradient><linearGradient id="g29" x1="1040.7" y1="428.3" x2="1040.7" y2="428.3" href="#P"><stop/><stop offset="1" stop-color="#8abbb1"/></linearGradient><linearGradient id="g30" x1="1040.9" y1="428.3" x2="1040.9" y2="428.2" href="#P"><stop/><stop offset="1" stop-color="#8abbb1"/></linearGradient><linearGradient id="g31" x1="1034" y1="437.1" x2="1034.3" y2="431.9" href="#P"><stop/><stop offset="1" stop-color="#8abbb1"/></linearGradient><linearGradient id="g32" x1="1039.8" y1="429.3" x2="1039.9" y2="428.7" href="#P"><stop/><stop offset="1" stop-color="#8abbb1"/></linearGradient><linearGradient id="g33" x1="1040.6" y1="428.8" x2="1040.6" y2="428.5" href="#P"><stop/><stop offset="1" stop-color="#8abbb1"/></linearGradient><linearGradient id="g34" x1="1041" y1="428.4" x2="1041" y2="428.3" href="#P"><stop/><stop offset="1" stop-color="#8abbb1"/></linearGradient><linearGradient id="g35" x1="302.4" y1="388.7" x2="316.4" y2="388.7" href="#P"><stop stop-color="#3949b1"/><stop offset="1" stop-color="#342bab"/></linearGradient><linearGradient id="g36" x1="20.8" y1="454.3" x2="96.2" y2="454.3" href="#P"><stop stop-color="#3949b1"/><stop offset="1" stop-color="#342bab"/></linearGradient><linearGradient id="g37" x1="20.8" y1="454.3" x2="96.1" y2="454.3" href="#P"><stop stop-color="#38269f"/><stop offset="1" stop-color="#2a337e"/></linearGradient><linearGradient id="g38" x1="89.4" y1="442.6" x2="107.8" y2="442.6" href="#P"><stop stop-color="#3949b1"/><stop offset="1" stop-color="#342bab"/></linearGradient><linearGradient id="g39" x1="107.8" y1="405.6" x2="901.5" y2="405.6" href="#P"><stop stop-color="#38269f"/><stop offset="1" stop-color="#2a337e"/></linearGradient><linearGradient id="g40" x1="977.2" y1="417" x2="1199.9" y2="417" href="#P"><stop stop-color="#38269f"/><stop offset="1" stop-color="#2a337e"/></linearGradient><linearGradient id="g41" x1="243.6" y1="374.7" x2="239.1" y2="300.1" href="#P"><stop stop-color="#3949b1"/><stop offset="1" stop-color="#342bab"/></linearGradient><linearGradient id="g42" x1="184.2" y1="336.3" x2="183.4" y2="322" href="#P"><stop stop-color="#3949b1"/><stop offset="1" stop-color="#342bab"/></linearGradient><linearGradient id="g43" x1="1131.4" y1="342.3" x2="1096.1" y2="205.3" href="#P"><stop stop-color="#38269f"/><stop offset="1" stop-color="#2a337e"/></linearGradient><linearGradient id="g44" x1="1083.6" y1="225.6" x2="1082.8" y2="247" href="#P"><stop stop-color="#3949b1"/><stop offset="1" stop-color="#342bab"/></linearGradient><linearGradient id="g45" x1="1153.7" y1="225" x2="1146.3" y2="195.6" href="#P"><stop stop-color="#3949b1"/><stop offset="1" stop-color="#342bab"/></linearGradient><linearGradient id="g46" x1="765.2" y1="388.4" x2="794.6" y2="391" href="#P"><stop stop-color="#3949b1"/><stop offset="1" stop-color="#342bab"/></linearGradient><linearGradient id="g47" x1="734" y1="405.9" x2="753.8" y2="407.7" href="#P"><stop stop-color="#3949b1"/><stop offset="1" stop-color="#342bab"/></linearGradient><radialGradient id="g48" cx="511.8" cy="233.9" r="292.9" href="#P"><stop stop-color="#213a9f"/><stop offset="1"/></radialGradient></defs><style>.a{fill:url(#g1)}.b{fill:#9cffff}.c{fill:#6993fb}.d{mix-blend-mode:screen;fill:url(#g2)}.e{mix-blend-mode:screen;fill:url(#g3)}.f{fill:#fff}.g{fill:#625eab}.h{fill:url(#g4)}.i{fill:#1b0d6b}.j{fill:url(#g5)}.k{fill:url(#g6)}.l{fill:url(#g7)}.m{fill:url(#g8)}.n{fill:url(#g9)}.o{fill:url(#g10)}.p{fill:url(#g11)}.q{fill:url(#g12)}.r{fill:url(#g13)}.s{fill:url(#g14)}.t{fill:url(#g15)}.u{fill:url(#g16)}.v{fill:url(#g17)}.w{fill:url(#g18)}.x{fill:url(#g19)}.y{fill:url(#g20)}.z{fill:url(#g21)}.A{fill:url(#g22)}.B{fill:url(#g23)}.C{fill:url(#g24)}.D{fill:url(#g25)}.E{fill:url(#g26)}.F{mix-blend-mode:screen;fill:url(#g27)}.G{mix-blend-mode:screen;fill:url(#g28)}.H{mix-blend-mode:screen;fill:url(#g29)}.I{mix-blend-mode:screen;fill:url(#g30)}.J{mix-blend-mode:screen;fill:url(#g31)}.K{mix-blend-mode:screen;fill:url(#g32)}.L{mix-blend-mode:screen;fill:url(#g33)}.M{mix-blend-mode:screen;fill:url(#g34)}.N{fill:url(#g35)}.O{fill:url(#g36)}.P{fill:url(#g37)}.Q{fill:url(#g38)}.R{fill:url(#g39)}.S{fill:url(#g40)}.T{fill:url(#g41)}.U{fill:url(#g42)}.V{fill:url(#g43)}.W{fill:url(#g44)}.X{fill:url(#g45)}.Y{fill:url(#g46)}.Z{fill:url(#g47)}.a0{mix-blend-mode:screen;fill:url(#g48)}</style><path class="a" d="m1212.3 112.7v427.3h-1204.6v-427.3z"/><g style="opacity:.5"><path class="b" d="m262.8 266.3c0 0.4-0.3 0.7-0.7 0.7-0.4 0-0.7-0.3-0.7-0.7 0-0.4 0.3-0.7 0.7-0.7 0.4 0 0.7 0.3 0.7 0.7z"/><path class="b" d="m244.3 210.9c0 0.4-0.3 0.7-0.7 0.7-0.4 0-0.7-0.3-0.7-0.7 0-0.4 0.3-0.7 0.7-0.7 0.4 0 0.7 0.3 0.7 0.7z"/><path class="b" d="m969.3 178.4c0 0.4-0.3 0.7-0.7 0.7-0.4 0-0.7-0.3-0.7-0.7 0-0.4 0.3-0.7 0.7-0.7 0.4 0 0.7 0.3 0.7 0.7z"/><path class="b" d="m836.2 315.2c0 0.4-0.3 0.7-0.7 0.7-0.4 0-0.7-0.3-0.7-0.7 0-0.4 0.3-0.7 0.7-0.7 0.4 0 0.7 0.3 0.7 0.7z"/><path class="c" d="m833 199.8c0 0.4-0.4 0.7-0.8 0.7-0.4 0-0.7-0.3-0.7-0.7 0-0.4 0.3-0.7 0.7-0.7 0.4 0 0.8 0.3 0.8 0.7z"/><path class="b" d="m889.4 147c0 0.4-0.3 0.7-0.7 0.7-0.4 0-0.7-0.3-0.7-0.7 0-0.4 0.3-0.8 0.7-0.8 0.4 0 0.7 0.4 0.7 0.8z"/><path class="b" d="m581.6 118.3c0 0.4-0.3 0.7-0.7 0.7-0.4 0-0.7-0.3-0.7-0.7 0-0.4 0.3-0.7 0.7-0.7 0.4 0 0.7 0.3 0.7 0.7z"/><path class="b" d="m1078.1 119.2c0 0.4-0.3 0.8-0.7 0.8-0.4 0-0.7-0.4-0.7-0.8 0-0.4 0.3-0.7 0.7-0.7 0.4 0 0.7 0.3 0.7 0.7z"/><path class="b" d="m280.2 276.8c0 0.4-0.3 0.7-0.7 0.7-0.4 0-0.7-0.3-0.7-0.7 0-0.4 0.3-0.8 0.7-0.8 0.4 0 0.7 0.4 0.7 0.8z"/><path class="b" d="m176.3 309.5c0 0.4-0.3 0.8-0.7 0.8-0.4 0-0.7-0.4-0.7-0.8 0-0.4 0.3-0.7 0.7-0.7 0.4 0 0.7 0.3 0.7 0.7z"/><path class="b" d="m236.6 217.3c0 0.4-0.3 0.7-0.7 0.7-0.4 0-0.7-0.3-0.7-0.7 0-0.4 0.3-0.7 0.7-0.7 0.4 0 0.7 0.3 0.7 0.7z"/><path class="b" d="m136.4 243.5c0 0.4-0.3 0.7-0.7 0.7-0.4 0-0.8-0.3-0.8-0.7 0-0.4 0.4-0.7 0.8-0.7 0.4 0 0.7 0.3 0.7 0.7z"/><path class="b" d="m82.5 330.1c0 0.4-0.3 0.7-0.7 0.7-0.4 0-0.7-0.3-0.7-0.7 0-0.4 0.3-0.7 0.7-0.7 0.4 0 0.7 0.3 0.7 0.7z"/><path class="b" d="m304.7 225.8c0 0.4-0.3 0.7-0.7 0.7-0.4 0-0.8-0.3-0.8-0.7 0-0.4 0.4-0.7 0.8-0.7 0.4 0 0.7 0.3 0.7 0.7z"/><path class="b" d="m517.5 145.8c0 0.3-0.3 0.7-0.7 0.7-0.4 0-0.8-0.4-0.8-0.7 0-0.4 0.4-0.8 0.8-0.8 0.4 0 0.7 0.4 0.7 0.8z"/><path class="b" d="m1123.2 147.7c0 0.4-0.3 0.7-0.7 0.7-0.4 0-0.8-0.3-0.8-0.7 0-0.4 0.4-0.7 0.8-0.7 0.4 0 0.7 0.3 0.7 0.7z"/><path class="b" d="m1178.6 363.5c0 0.4-0.3 0.7-0.7 0.7-0.4 0-0.8-0.3-0.8-0.7 0-0.4 0.4-0.8 0.8-0.8 0.4 0 0.7 0.4 0.7 0.8z"/><path class="b" d="m1131.8 433.3c0 0.4-0.3 0.7-0.7 0.7-0.4 0-0.8-0.3-0.8-0.7 0-0.4 0.4-0.7 0.8-0.7 0.4 0 0.7 0.3 0.7 0.7z"/><path class="b" d="m1176 342.6c0 0.4-0.3 0.8-0.7 0.8-0.4 0-0.8-0.4-0.8-0.8 0-0.4 0.4-0.7 0.8-0.7 0.4 0 0.7 0.3 0.7 0.7z"/><path class="b" d="m434.7 227.8c0 0.4-0.3 0.7-0.7 0.7-0.4 0-0.7-0.3-0.7-0.7 0-0.4 0.3-0.7 0.7-0.7 0.4 0 0.7 0.3 0.7 0.7z"/><path class="b" d="m421.4 240.2c0 0.4-0.3 0.8-0.7 0.8-0.4 0-0.8-0.4-0.8-0.8 0-0.4 0.4-0.7 0.8-0.7 0.4 0 0.7 0.3 0.7 0.7z"/><path class="b" d="m1219 148.4c0 0.4-0.3 0.7-0.7 0.7-0.4 0-0.8-0.3-0.8-0.7 0-0.4 0.4-0.7 0.8-0.7 0.4 0 0.7 0.3 0.7 0.7z"/><path class="b" d="m1179.3 222.6c0 0.4-0.3 0.8-0.7 0.8-0.4 0-0.7-0.4-0.7-0.8 0-0.4 0.3-0.7 0.7-0.7 0.4 0 0.7 0.3 0.7 0.7z"/><path class="b" d="m1192.1 433.3c0 0.4-0.3 0.7-0.7 0.7-0.4 0-0.7-0.3-0.7-0.7 0-0.4 0.3-0.7 0.7-0.7 0.4 0 0.7 0.3 0.7 0.7z"/><path class="b" d="m1.5 432.9c0 0.4-0.3 0.7-0.7 0.7-0.4 0-0.7-0.3-0.7-0.7 0-0.4 0.3-0.7 0.7-0.7 0.4 0 0.7 0.3 0.7 0.7z"/><path class="b" d="m1152.5 104.7c0 0.4-0.4 0.7-0.8 0.7-0.4 0-0.7-0.3-0.7-0.7 0-0.4 0.3-0.7 0.7-0.7 0.4 0 0.8 0.3 0.8 0.7z"/><path class="b" d="m1105.5 272.7c0 0.4-0.3 0.7-0.7 0.7-0.4 0-0.7-0.3-0.7-0.7 0-0.4 0.3-0.8 0.7-0.8 0.4 0 0.7 0.4 0.7 0.8z"/><path class="b" d="m1100 308.3c0 0.4-0.3 0.7-0.7 0.7-0.4 0-0.8-0.3-0.8-0.7 0-0.4 0.4-0.7 0.8-0.7 0.4 0 0.7 0.3 0.7 0.7z"/><path class="b" d="m87.3 220.6c0 0.4-0.4 0.7-0.8 0.7-0.4 0-0.7-0.3-0.7-0.7 0-0.4 0.3-0.8 0.7-0.8 0.4 0 0.8 0.4 0.8 0.8z"/><path class="b" d="m27.7 160.4c0 0.4-0.4 0.7-0.8 0.7-0.4 0-0.7-0.3-0.7-0.7 0-0.4 0.3-0.7 0.7-0.7 0.4 0 0.8 0.3 0.8 0.7z"/><path class="b" d="m65.6 151c0 0.4-0.3 0.7-0.7 0.7-0.4 0-0.7-0.3-0.7-0.7 0-0.4 0.3-0.7 0.7-0.7 0.4 0 0.7 0.3 0.7 0.7z"/><path class="c" d="m597.9 175c0 0.4-0.4 0.7-0.8 0.7-0.4 0-0.7-0.3-0.7-0.7 0-0.4 0.3-0.7 0.7-0.7 0.4 0 0.8 0.3 0.8 0.7z"/><path class="c" d="m795.7 123.4c0 0.4-0.4 0.8-0.8 0.8-0.4 0-0.7-0.4-0.7-0.8 0-0.4 0.3-0.7 0.7-0.7 0.4 0 0.8 0.3 0.8 0.7z"/><path class="c" d="m12.3 231.8c0 0.4-0.4 0.7-0.7 0.7-0.4 0-0.8-0.3-0.8-0.7 0-0.4 0.4-0.7 0.8-0.7 0.3 0 0.7 0.3 0.7 0.7z"/><path class="b" d="m285 175c0 0.4-0.4 0.7-0.8 0.7-0.4 0-0.7-0.3-0.7-0.7 0-0.4 0.3-0.7 0.7-0.7 0.4 0 0.8 0.3 0.8 0.7z"/><path class="b" d="m208.8 138.3c0 0.4-0.3 0.7-0.7 0.7-0.4 0-0.7-0.3-0.7-0.7 0-0.4 0.3-0.7 0.7-0.7 0.4 0 0.7 0.3 0.7 0.7z"/><path class="b" d="m540.8 171c0 0.4-0.3 0.7-0.7 0.7-0.4 0-0.8-0.3-0.8-0.7 0-0.4 0.4-0.7 0.8-0.7 0.4 0 0.7 0.3 0.7 0.7z"/><path class="b" d="m509.3 145.8c0 0.3-0.3 0.7-0.7 0.7-0.4 0-0.7-0.4-0.7-0.7 0-0.4 0.3-0.8 0.7-0.8 0.4 0 0.7 0.4 0.7 0.8z"/><path class="b" d="m487.7 293.7c0 0.4-0.3 0.7-0.7 0.7-0.4 0-0.7-0.3-0.7-0.7 0-0.4 0.3-0.7 0.7-0.7 0.4 0 0.7 0.3 0.7 0.7z"/><path class="b" d="m541.5 243.5c0 0.4-0.3 0.7-0.7 0.7-0.4 0-0.7-0.3-0.7-0.7 0-0.4 0.3-0.7 0.7-0.7 0.4 0 0.7 0.3 0.7 0.7z"/><path class="b" d="m625 265.5c0 0.4-0.3 0.7-0.7 0.7-0.4 0-0.7-0.3-0.7-0.7 0-0.4 0.3-0.8 0.7-0.8 0.4 0 0.7 0.4 0.7 0.8z"/><path class="b" d="m960.1 223.6c0 0.4-0.3 0.7-0.7 0.7-0.4 0-0.8-0.3-0.8-0.7 0-0.4 0.4-0.7 0.8-0.7 0.4 0 0.7 0.3 0.7 0.7z"/><path class="b" d="m1182.3 273c0 0.4-0.3 0.7-0.7 0.7-0.4 0-0.7-0.3-0.7-0.7 0-0.4 0.3-0.7 0.7-0.7 0.4 0 0.7 0.3 0.7 0.7z"/><path class="b" d="m848.4 210.2c0 0.4-0.3 0.7-0.7 0.7-0.4 0-0.7-0.3-0.7-0.7 0-0.4 0.3-0.7 0.7-0.7 0.4 0 0.7 0.3 0.7 0.7z"/><path class="b" d="m985.5 175c0 0.4-0.3 0.7-0.7 0.7-0.4 0-0.7-0.3-0.7-0.7 0-0.4 0.3-0.7 0.7-0.7 0.4 0 0.7 0.3 0.7 0.7z"/><path class="b" d="m1050.6 297.7c0 0.4-0.3 0.7-0.7 0.7-0.4 0-0.7-0.3-0.7-0.7 0-0.4 0.3-0.8 0.7-0.8 0.4 0 0.7 0.4 0.7 0.8z"/></g><path class="d" d="m590.2 150.9c47.4 47.3 47.7 123.7 0.8 170.7-47 46.9-123.4 46.6-170.7-0.8-47.3-47.3-47.7-123.7-0.7-170.6 46.9-47 123.3-46.7 170.6 0.7z"/><path class="e" d="m579.2 158.3c40.4 40.4 40.6 105.5 0.6 145.6-40 40-105.2 39.7-145.6-0.6-40.4-40.4-40.7-105.6-0.6-145.6 40-40.1 105.2-39.8 145.6 0.6z"/><path class="f" d="m506.1 141.7c46.1 0 84.1 34.9 88.9 79.7q0.5 4.8 0.5 9.7c0 7.5-0.9 14.7-2.6 21.6-9.6 39-44.9 67.9-86.8 67.9-49.5 0-89.5-40.1-89.5-89.5 0-49.4 40-89.4 89.5-89.4z"/><g style="opacity:.2"><path class="g" d="m528.7 291.6c-1.2 2.4-1.9 4.5-3.8 6.5-2.1 2.2-3.7 2.6-6.4 3.4-1.6 0.4-1.9 1-3.9 0.9-1.3 0-3.2-0.3-4.4 0-2.9 0.6-4.4 3.1-7.6 3.3-3 0.2-4.9-0.8-7.5-1.6-2.5-0.8-5.4-1.8-7.7-2.7-2.4-1-4.7-1.6-7.3-2.4-2.7-0.9-4.2-2.8-7.6-1.8-0.3 1.3 0.1 3.3-1.5 4-1.1 0.4-2.9-0.7-4.1-1.2-3-1.2-5.8-1.8-8.6-3-1.4-0.6-2.5-0.5-3.9-1.6-1.3-1-2.8-1.8-4.2-2.7-2.6-1.8-5.2-3.7-7.8-5.4-5-3.4-8.2-8.1-11.3-13-1.6-2.6-2.5-5.5-3.5-8.5-1.2-3.6-0.8-4.6 1.6-7.6 4.4 1.8 6.2-0.9 4.9-5.6-1-4.1-1.5-9.6-0.6-13.8 0.2-0.8 0.8-1.3 0.9-2.4 0.2-1.2-0.1-2.1 0.2-3.3 0.5-2 0.9-3.3 0.9-5.4 0-2.2-0.3-4.5 0.2-6.5 0.3-1.3 0.8-1.9 0.9-3.3 0-1.4-0.2-2.7 0.2-4.1 1-3.6 4.3-4.6 7.3-5.6 2.1-0.7 3.1-1.4 4.4 0 1.4 1.4 1 3.5 1 5.4 0.1 3.6-2.3 6.8-4.3 9.7-0.9 1.3-2.5 2.6-2.2 4.4 0.1 1 1.3 1.1 1.2 2.1 0 1.2-1.3 1.6-2 2.5-5.2 6.7 4.6 12.6 9.2 16.2 2.7 2.1 6.6 3.1 7.7 6.5 1 3.6-1.5 6.7-2.8 9.8-1.4 3.2-2.5 8.9-0.5 11.9 0.8 1.3 2.5 2.1 3.8 2.7 1.9 0.9 2.6 2.1 4.3 3.3 2.7 2 6.1 2.6 9.5 2.4 2.1-0.1 3.7-1 5.4-2.2 1.3-0.9 3.1-2.5 4.6-3 1.1-0.3 1.9 0 3-0.2 1.6-0.2 1.8-0.8 3.2-1.1 2.3-0.6 3.9 1 5.7 1.9 1.6 0.8 3.4 1.9 5.2 1.4 1.8-0.5 3.9-1.6 5.6-2 4.2-0.8 10.9-1.1 14.2 1.7 1.6 1.4 2.2 3.4 3.7 4.9 1.5 1.4 4.2 1.8 4.7 5.1z"/><path class="g" d="m449.6 197.3c-0.6 2.8-7.5 4.7-9.8 4.4-5.8-0.8-1-5-1.1-8.7 0-2.4-0.4-4.8 0.8-6.8 0.9-1.5 2.6-2.6 3.8-3.8 2.6-2.4 5.6-4.6 8.7-6.5 3.2-2 8.1-4.4 11.4-1 1.1 1.1 2.3 2.9 2.4 4.4 0 0.1-1 2.7-1.1 2.9-0.3 0.8-0.4 1.5-0.8 2.4-1.3 2.9-4.1 5.7-6.7 7.6-3.3 2.2-6.9 5.2-10.9 5.1z"/><path class="g" d="m515.6 310.6c-0.1-1 0.9-2.2 1.5-2.9 0.9-0.8 1.5-1.3 2.6-1.2 1.3 0.1 2.1 1 3.4 0.7 0.6-0.1 1-0.6 1.8-0.4 0.7 0.1 0.9 0.3 1.6 0.5 1.1 0.5 2.1 0.6 3.2 0.3 1.2-0.3 2.2-0.1 2.8-1.3 0.1-0.4 0-0.8 0.2-1.2 0.1-0.1 0.4-0.2 0.4-0.3 0.3-0.6 0.7-1 0.3-1.7-0.4-0.8-1.7-1.3-2.2-2.1-0.5-0.9-0.9-1.6-0.9-2.6-0.1-1.1-0.3-2.7 0-3.8 0.2-0.8 1-1.7 1.5-2.5 1.2-2 1.6-3.3 0-5.2-1-1.2-3.1-2.4-3.6-3.7-0.8-1.8 0.2-4.8 1.3-6.2 1.1-1.5 3.2-2.8 4.7-3.7 1.7-1 3.7-1.3 5.5-1.8 1-0.3 2-0.7 3-1 0.9-0.4 1.7-0.6 2.5-1 1.9-1 3.6-2.3 5.7-2.9 2.5-0.8 5.1-0.5 7.6 0.6 2.2 1 4.4 1.6 6.7 2.2 2.3 0.6 4.2 1.7 4.7 4.3 0.2 1.3-0.3 2.8 0 4 0.1 0.4 0.4 0.7 0.5 1.2 0.1 0.6-0.2 1.3-0.1 1.9 0.2 0.5 0.7 0.6 0.9 1 0.3 0.7 0.2 1 0.2 1.7 0.2 1.5 0.9 1.2 2 0.6 1.7-0.9 3.5-2.4 4.4-4 0.5-0.8 1-2.1 1.2-2.9 0.2-0.7 0.8-2 0.5-2.7-0.6 0.3-3.7 0.8-4.2 0.2-0.5-0.5 0.5-2.4 0.6-3 0.4-1.6 1.9-4.7 0.9-6.5-0.3-0.4-0.8-0.8-1-1.2-0.2-0.4-0.4-0.7-0.6-1.1-0.5-1-0.7-2-0.4-3.1 0.2-0.6 1-1.9 1.6-2.2 0.7-0.4 1.4 0.1 2.1-0.1 0.6-0.1 0.8-0.5 1.3-0.6 1.3-0.2 2.4-0.2 3.6-0.5 0.9-0.2 2.1-0.9 2.8-1.5 1.1-0.9 1-1.5 1-2.8 0-0.7 0.1-1.1 0.2-1.7 0.2-0.4 0.1-1.2 0.3-1.6 0.2-0.7 1.2-1.8 1.6-2.3 1-1.2 1.7-1.4 1.7-3.1-0.1-1.4 0.5-2.1 0.5-3.5 0-0.8-0.5-3.9 1-3.5 0.2 0.7-0.1 1.4 0.1 2.1 0.1 0.6 0.4 0.8 0.5 1.3 0.3 1.2 0.1 2.9 0 4.1 0 1.4-0.5 2.4-0.5 3.8 0 0.6 0.1 1.4 0 1.9-0.1 0.6-0.5 0.8-0.6 1.3-0.2 0.7 0.2 1.6 0.1 2.3-0.2 0.5-0.5 0.7-0.6 1.3-0.1 0.6 0.2 1.3 0 1.9-0.1 0.5-0.4 0.8-0.6 1.3-0.1 0.6 0.2 1.4 0.1 2-0.1 0.5-0.5 0.8-0.6 1.3-0.3 1.1-0.3 2.2-0.6 3.4-0.3 0.8-0.9 1.7-1.3 2.6-0.4 1-1 2.2-1.6 3.2-1 1.6-1.7 3.2-2.5 4.8-1.7 3.4-4.4 5.9-6.6 9-1.1 1.6-2.1 3.1-3.5 4.5-0.7 0.7-1.3 0.9-2 1.5-0.7 0.5-1.2 1.2-1.8 1.7-2.6 2.4-5.2 4.7-7.7 7.2-2.7 2.7-5.9 4.5-8.8 6.7-0.7 0.5-1.9 1.1-2.7 1.6-0.8 0.5-1.6 0.5-2.5 0.8-1.8 0.5-3.7 1.1-5.8 1.5-0.4 0.1-0.8 0-1.2 0.1-0.2 0-0.2 0.3-0.5 0.4-0.5 0.1-1.1-0.1-1.6 0-0.8 0.2-1.6 0.6-2.4 0.8-2 0.6-4.1 0.9-6.2 1.4-2.3 0.6-4.4 0.6-6.8 0.5-1.2 0-2.1 0.2-3.2 0.6-1.1 0.3-2.3 1.1-3.3 0-0.7-1-2.1-1.7-2.2-2.7z"/><path class="g" d="m528.1 272.6c-0.3-0.1-0.6-0.3-0.9-0.4-0.9 1-1.8 2-2.9 2.6-1.6 1-2.3 0.4-2.7-1.3-0.2-0.9 0.3-1.4 0.4-2.1 0.2-0.7 0-1.4 0.8-1.9 1.1-0.6 4.1-0.3 3.7 1.5z"/><path class="g" d="m580.6 201.8c-1.4-0.4-2.9 0.2-4.3-0.1-1-0.2-1.9-1.3-2.8-1.5-0.9-0.3-0.9 0.1-1.6 0.3-0.7 0.1-1.3 0.1-1.9 0.2-0.5 0.1-1.3 0.4-1.8 0.5-0.8 0.3-1.2 0.5-2.2 0.5-1.4 0-2.6 0.3-3.6-0.7-1.1-1-1.4-2.2-1.9-3.5-0.5-1.4-1.2-2.3-0.8-3.8q0.4-0.2 0.4-0.7 0-0.5-0.1-1.1c0.1-0.6 0.4-1.3 0.6-1.9 0.5-1.4 0.6-2.6 0.6-4 0-1.6 0-3 1.5-4 1.5-1 5.8-2 3.2-4.6-1.7-1.6-3.8-1.5-4.9-3.8-0.9-1.9-2.3-4-3-6 1.1-0.6 3.5 1.9 4.4 2.5 0.3 0.2 0.8 0.3 1.1 0.5 0.3 0.3 0.6 0.6 0.9 0.9 1 0.6 2 1.2 3 2 2.7 2.3 4.7 5.2 6.5 8.1 1 1.7 1.8 3.3 2.8 4.9 0.5 0.8 1 1.5 1.3 2.4 0.4 1 0.6 2.2 1 3 0.4 1 0.5 1.6 0.7 2.6 0.1 0.7 0.7 1.7 0.8 2.4 0.2 0.5 0.1 1 0.2 1.5 0 0.7 0.4 0.9 0.5 1.4 0.1 1 0.2 2.5-0.1 3.5q-0.6 0.1-1-0.5c0.5-0.7 0.5-0.9 0.5-1z"/><path class="g" d="m478.8 271.9c1.5 0 3.6 1.8 4.5 3.2 1.3 1.8-1.1 3.7-2.4 4.6-0.5 0.4-1 0.7-1.5 0.9-0.4 0.2-1.1 0.7-1.4 0.7-1 0-1.3-2.3-1.7-3-1.1-2.4 0.7-4.2 2.5-5.6z"/><path class="g" d="m471.5 276c-0.9 0-2.9-0.1-2.9-1.4 0-0.8 1.7-2.3 2.4-2.2 0.1 1.1 0.9 2.3 0.4 3.4q-0.1-0.1-0.3-0.2z"/><path class="g" d="m456.9 223c0.5-2 3.2 0.2 4 0.9 0.5 0.5 1 0.9 1.3 1.5 0.4 0.8 0.4 1.7 0.4 2.6 0 1 0.4 1.8 0.4 2.9 0 1-0.1 2-0.4 3-0.5 1.8-1.8 3.1-3.2 4.1-0.8 0.5-1.7 0.8-2.5 1.3-1 0.5-1.1 0.8-2.1 0.2-1.3-0.6-2.6-1.2-3.6-2.3-1.2-1.1-2.3-2.3-3.2-3.7-1-1.8 0.1-3.2 1-4.9 1.2-1.8 2.8-3.4 4.4-5.1 0.4-0.5 1.1-1.4 1.6-1.6 1-0.6 2.1 0.3 1.9 1.1z"/><path class="g" d="m457.7 215.7c0.3 1-1 1.6-1.7 0.9-0.7-0.7-0.2-1.9 0.3-2.5 0.3-0.4 1.2-1.5 1.8-1.2 0.7 0.5-0.4 2.2-0.4 2.7q-0.2 0.1-0.4 0.1z"/><path class="g" d="m475.1 304.3c0.6-0.7 2.3-1 3.1-0.8 1 0.3 1.8 0.6 2.8 0.8 2 0.3 4.5 1.3 6.3 2.4 2.5 1.6 6.9 6 2.6 8.2-1.7 0.9-3.9 0.7-5.9 0.7-1 0-1.6-0.4-2.6-0.4-1.1 0-2-0.4-3-0.6-1.8-0.4-3.6-1-5.3-1.7-1.5-0.7-2.7-1.8-3.9-2.9-1.5-1.5-1.8-3.5-0.2-5 0.9-0.9 1.6-0.7 2.9-0.7 1.2 0 2.4 0 3.2 0z"/><path class="g" d="m464.6 303.1c-0.3 1.4-2.5 2-3.6 1.4-1-0.6-2.3-2.1-2.1-3.3 0.4-1.7 2.5-0.6 3.6 0 0.6 0.3 2.9 1.7 2.5 2.6q-0.5 0.2-0.8-0.3z"/><path class="g" d="m430.6 227q0.2 0.1 0.4 0.1c0.4 1.6-0.3 3.2-0.4 4.8-0.1 1.6 0 3.2 0 4.8q0 2.5 0 4.9c0 0.7 0.1 1.3-0.1 1.9 0 0.3-0.2 0.5-0.3 0.9 0 0.5 0 1.1 0 1.6 0 0.8 0.1 1.6-0.1 2.4 0 0.1-0.2 0.8-0.3 0.9-0.1 0.4 0 0.5-0.3 0.9-0.7 1.1-2.1 1.8-3.3 1.2-1-0.5-1.8-1.3-2.8-1.7-1.5-0.7-2.2-1.5-2.9-2.8-0.6-1.2-0.8-2.5-1.2-3.7-0.1-0.4-0.3-0.4-0.4-0.8-0.1-0.3 0-0.7-0.1-1.1 0-0.3-0.3-0.5-0.3-0.9q0-0.4 0-0.9 0-0.3-0.3-0.4c-0.2-0.7-0.1-1.3-0.1-2-0.1-0.8-0.4-1.5-0.4-2.4 0-0.9-0.4-1.5-0.4-2.4q0-1.2 0-2.4c0-1.7 0-3.3 0-4.9 0-0.8 0.2-1.3 0.4-2 0.2-0.8 0.2-1.7 0.4-2.5 0.1-0.5 0.6-1.1 0.7-1.6 0.2-0.9 0.3-1.3 0.8-2 0.9-1.3 1.4-1.9 2.8-2.5 1.4-0.6 3.3-0.4 4.5 0.6 0.4 0.3 1.2 1 1.3 1.5 0.1 0.3 0 0.8 0.1 1.1 0.1 0.5 0.3 0.7 0.3 1.3 0 1.6-0.4 3.8 0 5.3 0.2 0.8 0.7 1.6 0.9 2.4 0.3 1 0.3 1.8 1.1 0.4z"/><path class="g" d="m432.7 206.4c1-0.3 1.6 2.1 1.6 2.8 0 0.7 0.2 1.4-0.4 1.9-0.4 0.3-1.6 0.3-2.1 0.2-1.3-0.4-1.2-2.2-1.2-3.3 0-1.1 1-2.7 2.5-2.4z"/><path class="g" d="m571.4 204.8q0-0.2 0.1-0.3c0.4-0.1 0.6-0.4 1-0.5 0.4-0.1 0.9 0 1.3 0 1 0 1.6-0.3 2.5-0.4 0.4-0.1 0.9-0.1 1.4 0 0.5 0 0.7 0.2 1.1 0.3 0.9 0.2 1.6 0.1 2.3 0.7 1.2 0.9 2.1 2.3 2.9 3.6 0.8 1.6 1.6 3.2 1.6 5.1 0 0.8 0 1.5-0.5 2.2-0.5 0.7-0.7 1.2-1.1 1.9-0.7 1.7-1.3 2.3-3.3 2.3-1.7 0.1-3.4-1-4.8-1.8-0.7-0.3-1.3-0.9-1.9-1.3-0.5-0.4-1.2-0.7-1.6-1.3-1-1.4-1.2-3.3-1.6-4.9-0.2-0.8-0.4-2-0.2-3 0.1-0.1 0.3-0.1 0.3-0.3 0.1-0.3 0-0.6 0.1-0.9 0.1-0.5 0.5-0.9 0.4-1.4z"/><path class="g" d="m567.8 208.4c0 3.3-5.4 3.1-4.4-0.5 0.2-0.9 1.1-2.5 2-2.6 1.2-0.2 2.6 2.7 1.6 2.7z"/><path class="g" d="m553.6 214.5c0.1 0.8 0.9 1.4 1.1 2.1 0.2 0.8-0.1 1.4-0.6 2-0.3 0.5-1 1.3-1.7 1.2-0.7-0.2-1.1-1.1-1.6-1.5-1.1-0.8-3-1.6-1.6-3.2 0.5-0.7 1.4-0.9 2.2-1 1.2-0.2 1.7 0.1 2.6 0.8z"/><path class="g" d="m581.9 249.7c0 0.9-0.4 3-1.3 3.5-0.9 0.7-2.9-0.6-3.3-1.5-0.7-1.4-0.1-2.7 1.1-3.5 0.5-0.4 1.7-0.9 2.3-1 0.6 0 1.3 0.4 2 0.5 0.2 0.9 0.3 3.2-1.2 2.8z"/><path class="g" d="m467 160.7c1.1 0.3 2.4 1.5 3.1 2.4 0.3 0.4 0.6 1 0.5 1.5 0 0.3-0.7 1.4-0.8 1.7-0.7 0.9-1.3 1.9-2.1 2.8-0.9 1.1-1.6 1.8-2.8 0.6-0.7-0.8-1.8-1.5-2.4-2.4-0.4-0.6-0.7-1.1-0.6-1.7 0-0.4 0.6-1.4 1-1.8 0.7-0.8 1.7-1.9 2.6-2.2 0.7-0.2 1.4-0.2 2 0.3 0.6 0.6 0.3 0.9-0.1 1.6z"/><path class="g" d="m457.7 166.8q0.2 0 0.4 0c0.3 1.1-0.1 1.8-1.2 2-0.9 0.2-2.2-0.2-2.4-1-0.2-0.8 0.6-1.6 1.2-2.1 0.9-0.7 1.8-0.8 2 0.7z"/><path class="g" d="m463.8 270.3c-0.1 0.4 0.4 1.5 0.5 1.9 0.2 0.6 0.5 1.4 0.7 2q0.4 0.9 0.6 2c0.2 0.7 0.5 1.3 0.6 2 0.3 1.5-1.4 2.6-2.8 2.2-1.2-0.2-2.3-1.2-3.3-1.9-0.7-0.5-0.9-0.4-1.3-1.2-0.3-0.7-0.4-1.4-0.6-2.2-0.3-0.7-0.5-1.1-0.5-2 0-0.8-0.1-1.6 0.1-2.4 1-3.8 5.1-1.3 6 1.2z"/><path class="g" d="m450.9 295.8c1.5 0.3 2.2 2.5 0.5 3.2-1.4 0.6-3.7-0.2-4.6-1.4-0.6-0.8-0.5-1.4-0.1-2.3 0.4-1 0.6-1.1 1.7-1.1 1 0 3.7 1 3.3 2.4z"/><path class="g" d="m468.7 268.7c-1 0.5-3.5 0.8-4.5 0.2-1.1-0.6-1.6-2-1.8-3-0.3-1.2-0.5-3.4-0.2-4.7 0.3-1.4 1.5-2.3 2.6-3 0.8-0.5 1.8-0.9 2.6-1.1 0.8-0.2 1.4-0.5 2.1-0.5 0.6-0.1 1.5-0.2 1.9 0.4 0.5 0.8-0.2 1.7-0.3 2.4-0.2 0.8 0.1 1.6 0 2.4-0.1 0.5-0.3 0.8-0.4 1.2-0.1 0.4 0 0.9 0 1.3-0.1 0.3-0.2 0.5-0.3 0.8-0.1 0.4 0 0.8-0.1 1.2-0.1 0.4-0.8 1.1-1.2 1.2z"/><path class="g" d="m459.8 266.7q0-0.2 0-0.3c0.3 2-2 1.7-2.5 0.3-0.5-1.7 2.1-2.2 2.5-0.4z"/></g><path class="h" d="m231.2 334.9q-1.1-0.1-3.2-0.2c-20.8-1.7-133.3-11.5-146.5-22.5q-0.6-0.5-0.9-1-0.1-2.8 0.2-6.9c0.6-9.2 3-24.7 12.3-30.1 10.3-6 28.7-0.9 38.7 5.8 3.2 2 5.5 4.2 6.5 6.3q4.2 8.8 4.4 18.2 6.2-12.7 15.9-6.1 0.6 0.4 1.1 0.9 0 0 0 0c8.6 7.1 8.1 22.4 9.2 23.2 1.1 0.9 38.4 1.9 42.4 2.6q4.1 0.6 19.9 9.8z"/><path class="i" d="m81.5 312.2l27.9 2-2-1.4 53.4 9.2-11.5 2.8q66.9 8.4 78.7 9.9c-20.8-1.7-133.3-11.5-146.5-22.5z"/><path class="j" d="m80.8 304.3c0.6-9.2 3-24.7 12.3-30.1 10.3-6 28.7-0.9 38.7 5.8q0 0 0 0c10.2 17.5-29.8 30.6-51 24.3z"/><path class="k" d="m143.9 309.5c3 8.3 22.9-6.4 14.7-11.1-8.2-4.6-16.8 5.2-14.7 11.1z"/><path class="l" d="m1203.1 371.9l-26.2-1.9c-78.4-10.4-45.6-7.5-50.6-11.8q0 0 0 0-0.4-0.3-2-0.6c-24.2-5-248.1-21.7-273.1-30.8-1.5-0.6-2.3-1.1-2.3-1.6-0.4-7.9 18.4-32.7 23.6-39.4q0.9-1.1 1.3-1.7-163.8-16.3-165-7.3c-1.2 9 23.5 21.5 8.5 18.8-95-17.2-117.3 8.2-122 17.1q-1 1.8 1.8 11l-73.8 3.4q-69.5-3.9-78.4-8.3c-0.9-0.4-1.2-0.8-0.7-1.3 0.5-0.5 1.2-2.1 2-4.5 6.3-19.5 12.6-69.5 52.1-79.3 21.9-5.5 35.9-1.1 44.5 4.7 3.6 2.5 6.3 5.2 8.2 7.6q0.9 1.1 1.6 2.2 0.1 0.1 0.1 0.2 1.5 2.1 2.1 3.6 0.9-3.7 3-9.9c10.4-31.6 49.5-127.4 139.6-118.7 41.9 4 67 24.8 82 48.8q23.6 37.8 22.3 83.4 1.5-2.6 4.1-6.6c8.6-13 29.4-40.4 51.7-38.8 9.8 0.7 15.5 7.5 18.9 16.2q6.5 17 3.7 41.1 1.5-3.8 4.5-9.8l0.7-1.2 0.4-0.9c12.8-24.8 46.5-78.9 95.2-75.4 19.2 1.4 33.1 14 43.1 30.9q22.8 38.4 25.4 98.7 1.1-2.3 3.2-5.7c6.5-10.4 22.9-30.5 49.1-21.2 6.1 2.1 10.8 5.6 14.7 9.9 18.5 20.9 16 61.7 26.4 65.6 12.5 4.8 26.1-9.8 35.1-2.3q9 7.5 25.2 15.8z"/><path class="i" d="m1124.3 357.6c-24.2-5-248.1-21.7-273.1-30.8l-2.3-1.6 95.5 3q-11.5-4.7-11.3-7.3c0.2-2.6 189 1.9 161.3 22-4 3 22.4 12.4 29.9 14.7z"/><path class="i" d="m1203.1 371.9l-26.2-1.9c-78.4-10.4-45.6-7.5-50.6-11.8z"/><path class="m" d="m1024 211.1q0 0 0 0c-3.6 43.2-55.2 62.2-133.5 56.5l-6.2-9.1 0.3-0.8 0.7-1.2 0.4-0.9c12.8-24.8 46.5-78.9 95.2-75.4 19.2 1.4 33.1 14 43.1 30.9z"/><path class="n" d="m938 317.2q37-40 72.2-31 35.3 9 34.4 25.8-24 12.3-106.6 5.2z"/><path class="o" d="m1059.6 323.2q5.2-8.4 13.9-9.1 8.6-0.6 17.4 14.1-32.8 1.7-31.3-5z"/><path class="p" d="m1116.4 292.8c-3.6 5.7-9.2 11.4-18 14.6q-22.7 8.2-45.8-3.3c6.5-10.4 22.9-30.5 49.1-21.2 6.1 2.1 10.8 5.6 14.7 9.9z"/><path class="q" d="m805.8 249c8.6-13 29.4-40.4 51.7-38.8 9.8 0.7 15.5 7.5 18.9 16.2 1.2 18.8-33.1 24.4-70.6 22.6z"/><path class="r" d="m687.8 204.7q-6.4 24-24.3 34c-17.9 10-90.9 15.3-105.7 3.4 10.4-31.6 49.5-127.4 139.6-118.7 41.9 4 67 24.8 82 48.8q3.9 37.4-91.6 32.5z"/><path class="s" d="m539.7 281q-1.5 1.5-12-0.8 10.6-1.7-15.5 19.6-26 21.3-62.4 5.3c5.9-17.7 11.2-63 47.8-71.8 20.2-5 33.2-1 41.2 4.3 3.2 2.4 5.8 4.7 7.6 6.9q0.9 1 1.5 2 0.1 0.1 0.2 0.1c10.9 17-6.9 33-8.4 34.4z"/><path class="i" d="m872.5 285.8q0.9-1.1 1.3-1.7-165.3-16.4-165-7.3c0.1 3.4 8.6 11.7 22.1 18.7 12.7 6.6 44.4 9.9-135.6 17.2q-41.9-11.4-41.3-19.2 0.5-7.7 45.1-5.8 111.6-9.5 103.4-12-78.6-24.3 101.7-1.3 48.9-12.9 63-7.8 14.1 5.1 35.5 19.6z"/><path class="i" d="m444.2 317.5q-6.9-4.1 152.9 6.2-105.9 22.6-152.9-6.2z"/><path class="t" d="m686.3 259.6q2.8-42.3 35.5-41.9 32.6 0.4 35.1 24.7-3.5 20-70.6 17.2z"/><path class="u" d="m646.6 365.3q2.1 18.7-1.5 20.3-3.5 1.7-117-12l4.9-22 3.4-15.7q10.4-38.2 54.1-36c24.6 1.2 39.7 17.3 48.2 31.1q6.5 10.6 9 19.8 0.2-0.3 0.4-0.8 0 0 0-0.1c0.4-0.5 0.8-1.4 1.5-2.4q0.1 0 0.1-0.1c3-4.3 9.3-10.9 18.9-6.8 5 2.1 8.1 5.8 9.9 9.7q0 0 0 0 3.2 6.6 2.9 13.6 35.9-8 40.6-3.8 4.6 4.3 53.4 18.5z"/><path class="i" d="m529.3 375.4c-5.9-10.1 28.6-12.8 55-10.9q26.4 1.9 62.9 13.2l-0.9-14.6 35 5.8q25.2-2.8 36.9 1.1 11.6 3.9 57.2 8.6-49.5-3.5-63.5-4.3-14-0.8-65.1-3.4 3.8 15.2 1.2 17.7c-2.6 2.4-115-6.8-118.7-13.2z"/><path class="v" d="m638.7 331q0.2 9.4-15.9 1.5-1.4 14.5-48.2 21.9c-22.6 3.5-34.9 0.9-41.6-2.8l3.4-15.7q10.4-38.2 54.1-36c24.6 1.2 39.7 17.3 48.2 31.1z"/><path class="w" d="m660 359.9c-13.6-1-13.3-6.6-11.9-9.9q0 0 0-0.1c0.6-1.2 1.3-2.1 1.5-2.4q0.1 0 0.1-0.1c3-4.3 9.3-10.9 18.9-6.8 5 2.1 8.1 5.8 9.9 9.7q0 0 0 0c0.1 0.5 0.7 11-18.5 9.6z"/><path class="x" d="m480.7 323q-0.1 0-0.1 0-0.1 0-0.1 0c-3 0.3-37.8 3.5-91.9-3.1-55.9-6.8-93.7-15.7-94.5-15.9 0.2 0.6 5.4 15.5-5.2 18.1-9.4 2.4-93.7 4.3-110.9-21.6-2.4-3.6-3.5-7.8-2.9-12.5q0-1.9 0.1-5.1c0.7-12.7 3.4-45.9 15.4-55 12.4-9.4 69.5-18 93.2 0.2 4.8 3.6 8.2 8.3 9.7 14.3q8.6 36 2.7 48.8 8.5-8.6 15.9-5.7 7.3 2.9 6.2 17.1 37 9.9 48.3-0.7c11.3-10.5 15.1-17.4 30.3-16.4q15.1 1.1 30.4 29.8z"/><path class="i" d="m480.5 323c-3 0.3-37.8 3.5-91.9-3.1-55.9-6.8-93.7-15.7-94.5-15.9 0.2 0.6 5.4 15.5-5.2 18.1-9.4 2.4-93.7 4.3-110.9-21.6l95.4 1.4-9-6.3 79.4 15.3q41.5-3 55.8 1.5c14.2 4.4 73 11.2 80.9 10.6z"/><path class="y" d="m263.4 284c-12.6 10.2-61.3 8.3-77.6 5.3-5-1-8.4-3.4-10.6-6.4 0.7-12.7 3.4-45.9 15.4-55 12.4-9.4 69.5-18 93.2 0.2 15.1 20.6-7.8 45.6-20.4 55.9z"/><path class="z" d="m287.9 274.3c8 0.6 12 13.9 5.9 20.6q-6 6.7-26.2-2.7 12.2-18.4 20.3-17.9z"/><path class="A" d="m302.6 295.8c6.2 0.6 13.6-3.9 9.6-7.4-4.1-3.5-22.1 6.1-9.6 7.4z"/><path class="B" d="m369.9 301.2c0.9-5.6 22.3-19.5 30.7-11.5 8.5 8.1-10.8 16.3-26.6 13.4q-5 3.6-4.1-1.9z"/><path class="C" d="m901.5 509.6l-790.5 4.4q-2.7-4-3.2-14.3c-0.6-11.9 1.3-25.3 12.4-27.5 9.7-2 22.4 3.1 33.3 9q12.3 6.7 22.2 14.6 2.5-6.6 7.5-12.7c5.2-6.4 13.1-12.2 23.9-9.4 3.8 1 7.8 2.5 11.8 4.4q0 0 0 0c17.7 8.1 35 22 35.7 22.6-0.1-0.7-3.4-17.5-2.2-34.6 1.4-19.9 8.8-40.2 34.3-35.1 22.6 4.5 40.6 17.3 53.2 29.4q14 13.4 21.4 26.1-0.6-4.8-1.1-12.6c-2.2-35.5-2.6-133.2 61.1-128.8 48.7 3.4 89.6 45.5 113.3 76.4q14.1 18.5 22.2 33 1.6-9.6 5.7-17.8 0.1 0 0.1-0.1 0 0 0 0c3.3-6.5 8.1-12.1 15-11.2 5.1 0.6 9.9 3.3 14 6.6q0 0 0 0 8.4 6.8 14 16.1-3.1-25.1 12-38.5 0 0 0 0c6.5-5.8 16.4-9.4 31.4-7.8 17.7 1.8 30.1 10.6 38.8 21.1q15.7 19 19.2 43.7 1.7-3.7 4.9-6.8 0 0 0 0c2.5-2.4 5.9-4.3 10.3-4 2 0.1 4.1 1.9 6.1 4.5q0 0 0 0.1 7.6 10.1 13.8 33.3 2.7-20 14.1-34.9 0-0.1 0-0.1c9.9-12.8 26.3-21.7 53.2-10.6 14.2 5.8 25.5 11.8 34.5 17.6q27.9 17.7 33.7 32.8 6.3-16 14.5-12 8.3 4 9.4 23.1z"/><path class="D" d="m1199.9 509.4l-221.5-3.4q-0.9-4.8-1.2-11.4c-0.7-14.2 1.3-36.4 20.6-35.7 14 0.5 25.6 7.7 33.8 14.9q8.3 7.3 13 14.6 0.4-2.6 1.3-5.3 0.1-0.1 0.1-0.2 0 0 0-0.1c1.2-3.5 3.3-7.1 6.6-6 1.8 0.6 3.6 2.1 5.2 3.7q3.9 3.9 6.9 9.2-0.1-7.8 1.3-18.7 0-0.2 0-0.3 0-0.4 0-0.5 0.1-0.1 0.1-0.2c3.2-25.3 14.1-65.5 50.3-61.8 11.5 1.2 21.3 6 29.6 12.7q0.1 0.1 0.2 0.1 29.7 24 40.6 72.8 2-5.4 6.9-2 4.8 3.4 6.2 17.6z"/><path fill-rule="evenodd" class="E" d="m1044.8 428.4h-0.1-0.3l-0.5 0.1q0.2 0 0.3 0c-8.7 0.7-71.5 6-79.7 5.1q-8.9-0.9-12.8-6.1-77.8 1.7-78.1 1.3-0.3-0.3 0.3-5.2l-42.7-2.4-1.1-0.9q-1.2-12.4 6.2-13.6 7.5-1.2 28.6 12.4 0.8-4.6 5.2-4.5 4.4 0.1 4.3 4.2 2-7.2 7.2-14.7c1.4-2 3-4 4.8-6 7.4-7.6 18.8-13.5 35.5-9.2q0.3 0.1 0.6 0.2c6.5 1.7 11.3 4 14.8 6.5q0 0 0 0c16.7 12.1 6.4 30.7 24.7 30.1 22.1-0.8 41.5-7.5 49.6 2 1.9 2.2 29.5 0.9 33.2 0.7zm-2.3 0.2l-4.1 0.3c1.6-0.2 3-0.2 4.1-0.3z"/><path class="F" d="m1038.4 428.9l4.1-0.3c-1.1 0.1-2.5 0.1-4.1 0.3z"/><path class="G" d="m1044.4 428.4q-0.1 0.1-0.2 0.1-0.1 0-0.3 0z"/><path class="H" d="m1044.8 428.4q0 0 0 0-0.1 0-0.1 0z"/><path class="I" d="m1045 428.4h-0.1q0.1 0 0.1 0z"/><path class="J" d="m1038.4 428.9l4.1-0.3c-1.1 0.1-2.5 0.1-4.1 0.3z"/><path class="K" d="m1044.4 428.4q-0.1 0.1-0.2 0.1-0.1 0-0.3 0z"/><path class="L" d="m1045 428.4q-0.1 0-0.2 0-0.1 0-0.1 0h0.1 0.1z"/><path class="M" d="m1045.1 428.4q-0.1 0-0.1 0z"/><path class="N" d="m308.6 417.8c-24.4-5.5-7.8-25.1 1.8-25.7 9.7-0.6 18.4 30.2-1.8 25.7z"/><path class="O" d="m18.8 465.7c4.2-17.6 77.3-5.4 78.2 15.4 0.9 20.9-46 20-71.3 7.7q-11-5.4-6.9-23.1z"/><path fill-rule="evenodd" class="P" d="m97 481.1c1 20.9-46 20-71.3 7.7q-11-5.4-6.9-23.1c4.2-17.6 77.3-5.4 78.2 15.4zm-21.8-6.2c-0.7-14.6-51.9-23.2-54.8-10.8q-2.9 12.4 4.8 16.2c17.8 8.5 50.6 9.2 50-5.4z"/><path class="Q" d="m86.7 461.4c-15-7.9 14.7-19 20.7-15.8 6 3.2 10.1 32.1-20.7 15.8z"/><path class="R" d="m901.5 509.6l-790.5 4.4q-2.7-4-3.2-14.3c15.3 3.9 46.9 10.2 48.1-5.2 0.4-4.8-0.6-9.2-2.4-13.3q12.3 6.7 22.2 14.6 2.5-6.6 7.5-12.7c-1.8 7.4-3.9 24.5 14.3 22.6 30.9-3.2 47.6-12.1 21.4-27.6 17.7 8.1 35 22 35.7 22.6-0.1-0.7-3.4-17.5-2.2-34.6 4.4 14.4 43.5 48.2 92.7 34.5 15.7-4.4 5.1-29.3-5.2-40.2q14 13.4 21.4 26.1-0.6-4.8-1.1-12.6c9.7 12 28.3 22.7 62.9 26.2 90.4 9.3 129.3-38.9 111.5-78.6q14.1 18.5 22.2 33 1.6-9.6 5.7-17.8c-0.6 2.1-11.2 39.4 16.5 38.1 28.5-1.4 26.6-28.9 12.6-42.8q8.4 6.8 14 16.1-3.1-25.1 12-38.5c-0.9 0.9-21.2 22.1-3.2 38.5 18.4 16.7 90.7 8.4 73.4-25.2q15.7 19 19.2 43.7 1.7-3.7 4.9-6.8c-0.3 1-8.4 26.5 9.7 26.8 18.1 0.2 7.1-25.4 6.7-26.2q7.6 10.1 13.8 33.3 2.7-20 14.1-34.9c-0.8 1.6-15.2 30.4 23.3 29.1q39.6-1.3 44-16.3 5.2 18.6 20.4 15 15.2-3.7 0-20.9 27.9 17.7 33.7 32.8 6.3-16 14.5-12 8.3 4 9.4 23.1z"/><path class="S" d="m1199.9 509.4l-221.5-3.4q-0.9-4.8-1.2-11.4c23.5 11.8 73.2 8.5 54.4-20.8q8.3 7.3 13 14.6 0.4-2.6 1.3-5.3c-0.4 1.6-2.3 10.6 7.4 9.7q10.7-1 4.5-12.3 3.9 3.9 6.9 9.2-0.1-7.8 1.3-18.7c-0.4 4.2 0 19.7 24.2 19.1q27.9-0.7 37.9-34.8 21.9 11 27 7.3c8.3-6.2 10.3-25.7-8.7-41.4q-0.1-0.1-0.2-0.2 29.7 24 40.6 72.8 2-5.4 6.9-2 4.8 3.4 6.2 17.6z"/><path class="T" d="m259.8 349.9c-22-1.9-15.1-21.6-6.4-22.2q8.7-0.5 15 22.2 1.6-5.8 6.2-5 4.6 0.8 3.4 7.4z"/><path class="U" d="m192.7 331.7c5.2 1.1 11.6-0.4 5.7-5.3-5.9-4.8-21.1 2.3-5.7 5.3z"/><path class="V" d="m1203.1 245.8q-4.8 4.9-19.3 3.5-39.4-3.9-32.4-9.4-43.3 0.7-44.2-3.4c-0.9-4.1 28.1-16.3 36.8-12.7q8.8 3.6 8.8 10.7 0.8-4.7 2.7-11c4.4-14.1 14-36.8 31.5-35.2 3.3 0.3 6 1.5 8.2 3.3q1.7 1.4 3.1 3.4 0 0 0 0 1.1 1.6 2 3.5 0 0 0 0 7.9 16.6 2.8 47.3z"/><path class="W" d="m1071.6 235.7c-11.6-2.1-7.7-8.1-1.2-12.6 6.4-4.5 19.6 16 1.2 12.6z"/><path class="X" d="m1159.9 229.3c-2-1.3-3.4-3.3-4.4-5.8 4.4-14.1 14-36.8 31.5-35.2 3.3 0.3 6 1.5 8.2 3.3q1.4 1.6 3.1 3.4 0 0 0 0c0.9 0.9 1.5 2.1 2 3.5q0 0 0 0c5 14.5-11.4 50.3-40.4 30.8z"/><path class="Y" d="m761.2 409.2q-4.4-16.3 12.7-15.9 17.1 0.3 18.5 22.8-31 9.5-31.2-6.9z"/><path class="Z" d="m731.5 412.7q-3.6-3.9 8-3.2 11.6 0.8 13.6 6-20.7 0.9-21.6-2.8z"/><ellipse class="a0" cx="511.8" cy="233.9" rx="292.9" ry="233.2"/></svg>