<svg version="1.2" xmlns="http://www.w3.org/2000/svg" viewBox="0 0 479 577" width="479" height="577"><defs><linearGradient id="P" gradientUnits="userSpaceOnUse"/><linearGradient id="g1" x1="-3.5" y1="478.3" x2="-3.5" y2="7" href="#P"><stop stop-color="#f44c88"/><stop offset=".9" stop-color="#ff9259"/></linearGradient><linearGradient id="g2" x1="204.3" y1="575.1" x2="204.3" y2="520.1" href="#P"><stop stop-color="#c43b29"/><stop offset=".9" stop-color="#e0613b"/></linearGradient><linearGradient id="g3" x1="225" y1="558.2" x2="225" y2="515.7" href="#P"><stop stop-color="#f4a688"/><stop offset=".9" stop-color="#ffcfc4"/></linearGradient><linearGradient id="g4" x1="192.2" y1="559.3" x2="192.2" y2="520" href="#P"><stop stop-color="#f4a688"/><stop offset=".9" stop-color="#ffcfc4"/></linearGradient><linearGradient id="g5" x1="292.4" y1="557.7" x2="292.4" y2="518.3" href="#P"><stop stop-color="#f4a688"/><stop offset=".9" stop-color="#ffcfc4"/></linearGradient><linearGradient id="g6" x1="9.5" y1="478" x2="9.5" y2="59.4" href="#P"><stop stop-color="#ff3d73"/><stop offset=".9" stop-color="#ffdb56"/></linearGradient><linearGradient id="g7" x1="50.5" y1="473.5" x2="50.5" y2="15.3" href="#P"><stop stop-color="#ff1061"/><stop offset=".9" stop-color="#ff75a2"/></linearGradient><linearGradient id="g8" x1="123" y1="472.3" x2="123" y2="30.4" href="#P"><stop stop-color="#f41042"/><stop offset=".9" stop-color="#cf47a2"/></linearGradient><linearGradient id="g9" x1="474" y1="478" x2="474" y2="59.4" href="#P"><stop stop-color="#f41042"/><stop offset=".9" stop-color="#cf47a2"/></linearGradient><linearGradient id="g10" x1="433" y1="473.5" x2="433" y2="15.3" href="#P"><stop stop-color="#ff3d73"/><stop offset=".9" stop-color="#ffdb56"/></linearGradient><linearGradient id="g11" x1="360.5" y1="472.3" x2="360.5" y2="30.4" href="#P"><stop stop-color="#ff1061"/><stop offset=".9" stop-color="#ff75a2"/></linearGradient><radialGradient id="g12" cx="358.9" cy="263.7" r="153.5" href="#P"><stop offset=".1" stop-color="#ff823b"/><stop offset="1" stop-color="#c43b29"/></radialGradient><radialGradient id="g13" cx="124.9" cy="262.8" r="154.1" href="#P"><stop offset=".1" stop-color="#ff823b"/><stop offset="1" stop-color="#c43b29"/></radialGradient><radialGradient id="g14" cx="240.3" cy="230.3" r="157.9" href="#P"><stop offset=".1" stop-color="#ff823b"/><stop offset="1" stop-color="#c43b29"/></radialGradient><radialGradient id="g15" cx="313.6" cy="237.4" r="157.5" href="#P"><stop offset=".1" stop-color="#ff823b"/><stop offset="1" stop-color="#c43b29"/></radialGradient><radialGradient id="g16" cx="169.2" cy="237.4" r="157.5" href="#P"><stop offset=".1" stop-color="#ff823b"/><stop offset="1" stop-color="#c43b29"/></radialGradient><radialGradient id="g17" cx="296.6" cy="107.9" r="41.5" href="#P"><stop stop-color="#7e39ff"/><stop offset="1"/></radialGradient><radialGradient id="g18" cx="154.5" cy="119.8" r="26.7" href="#P"><stop stop-color="#7e39ff"/><stop offset="1"/></radialGradient><radialGradient id="g19" cx="84.1" cy="136.5" r="24.2" href="#P"><stop stop-color="#ef487c"/><stop offset="1"/></radialGradient><radialGradient id="g20" cx="35.2" cy="171.8" r="15.8" href="#P"><stop stop-color="#ffc754"/><stop offset="1"/></radialGradient><radialGradient id="g21" cx="407.8" cy="131.8" r="19.4" href="#P"><stop stop-color="#ffc754"/><stop offset="1"/></radialGradient><radialGradient id="g22" cx="242" cy="463.2" r="39.9" href="#P"><stop offset=".1" stop-color="#e0613b"/><stop offset="1" stop-color="#c43b29"/></radialGradient><linearGradient id="g23" x1="123.9" y1="461.5" x2="123.9" y2="185.2" href="#P"><stop offset=".1" stop-color="#e0388b"/><stop offset="1" stop-color="#fff"/></linearGradient><linearGradient id="g24" x1="80.3" y1="471.6" x2="80.3" y2="308.9" href="#P"><stop offset=".1" stop-color="#e0388b"/><stop offset="1" stop-color="#fff"/></linearGradient><linearGradient id="g25" x1="231.1" y1="448.6" x2="231.1" y2="268.7" href="#P"><stop offset=".1" stop-color="#e0388b"/><stop offset="1" stop-color="#fff"/></linearGradient><linearGradient id="g26" x1="272.7" y1="213.5" x2="350.5" y2="213.5" href="#P"><stop offset=".1" stop-color="#e0388b"/><stop offset="1" stop-color="#fff"/></linearGradient><linearGradient id="g27" x1="286.8" y1="269.2" x2="412" y2="269.2" href="#P"><stop offset=".1" stop-color="#e0388b"/><stop offset="1" stop-color="#fff"/></linearGradient></defs><style>.a{fill:#9f273d}.b{fill:#9f68a2}.c{fill:url(#g1)}.d{fill:url(#g2)}.e{fill:#f1773d}.f{fill:url(#g3)}.g{fill:url(#g4)}.h{fill:url(#g5)}.i{fill:url(#g6)}.j{fill:url(#g7)}.k{fill:url(#g8)}.l{fill:url(#g9)}.m{fill:url(#g10)}.n{fill:url(#g11)}.o{fill:#ff7e8b}.p{opacity:.5;fill:#941354}.q{opacity:.3;fill:#941354}.r{fill:url(#g12)}.s{fill:url(#g13)}.t{opacity:.2;fill:#ab65ff}.u{fill:url(#g14)}.v{opacity:.2;fill:#ff65ff}.w{fill:url(#g15)}.x{fill:url(#g16)}.y{opacity:.2;fill:#ff86ff}.z{opacity:.2;fill:#ffcfff}.A{mix-blend-mode:screen;fill:url(#g17)}.B{opacity:.5;mix-blend-mode:screen;fill:url(#g18)}.C{mix-blend-mode:screen;fill:url(#g19)}.D{mix-blend-mode:screen;fill:url(#g20)}.E{mix-blend-mode:screen;fill:url(#g21)}.F{fill:url(#g22)}.G{opacity:.5;mix-blend-mode:multiply;fill:url(#g23)}.H{opacity:.5;mix-blend-mode:multiply;fill:url(#g24)}.I{opacity:.5;mix-blend-mode:multiply;fill:url(#g25)}.J{opacity:.2;fill:#cac7ff}.K{opacity:.5;mix-blend-mode:multiply;fill:url(#g26)}.L{opacity:.5;mix-blend-mode:multiply;fill:url(#g27)}.M{opacity:.8;mix-blend-mode:multiply;fill:#65005c}.N{mix-blend-mode:screen;fill:#bd3800}.O{mix-blend-mode:screen;fill:#ffca00}</style><path class="a" d="m208.3 517.6l-12.9-40 1.2 0.4 13.1 39.2z"/><path class="a" d="m289.2 477.8l-15.4 36.4-1.1-0.2 15.3-35.9z"/><path class="b" d="m222.8 515l-5.9-36.7h1.6l5 36.5z"/><path class="b" d="m260.7 512.4l2.8-34 1.2-0.1-3.2 34.1z"/><path class="c" d="m288.6 478.3h-46.8-46.8q-150.2-66.2-186.7-204.9c-5-17.3-7.8-35.4-7.8-54.1 0-117.2 106.7-212.3 238.3-212.3 131.6 0 238.3 95.1 238.3 212.3q-5.4 175.7-188.5 259z"/><path class="a" d="m214.4 575.1q26.5-3 54.3 0-30.7 2.3-54.3 0z"/><path class="a" d="m204.5 523.2q35.2 3.5 73.3-5.3-28.6-10.7-73.3 5.3z"/><path class="d" d="m214.4 575.1l-6.1-51.9q31.6-10.6 66.3-4.9l-5.9 56.8q-21.7-2.9-54.3 0z"/><path class="e" d="m278.6 515.5l-0.8 2.4q-38.6-7.4-73.3 5.3l-0.7-4.3q45.3-13.7 74.8-3.4z"/><path class="f" d="m237.1 516q4.6-3.4 9.1-0.8l-3.1 3.4 11 6.1q-0.5 15.1-1.7 29.3l0.7 3.7-3.2-0.9q-7.8 1.1-15.5 0l-2.7 1.4v-3.6q-2.7-17.9-2.7-30l11.2-6z"/><path class="g" d="m206.2 520.3q3.4-3.3 6.8-0.8l-2.4 3.3 5.5 4.8q-0.3 14.3-1.2 27.7l0.5 3.6-2.3-0.9q-5.9 1-11.5 0l-2 1.3v-3.4q-6.5-16.9-2.1-28.4l11-4.8z"/><path class="h" d="m276.2 521.1l10.9 4.7q4.4 11.5-2 28.5v3.4l-2-1.3q-5.7 1-11.5 0l-2.4 0.8 0.6-3.5q-0.9-13.5-1.3-27.8l5.5-4.8-2.3-3.2q3.3-2.5 6.8 0.7z"/><path class="i" d="m200.3 478q-141.1-70.3-177.9-227.5-34.9-149.4 59.6-191.1 30.1 288.6 121.1 414.1z"/><path class="j" d="m203.1 473.5q-119-96.5-144-252.3c-25.1-155.8 47.2-202.2 113.5-205.9q6.7 370.8 44.3 457z"/><path class="k" d="m238.8 7l3 465.3h-24.9q-95.1-191.1-89.8-348.9 5.1-152 111.7-116.4z"/><path class="l" d="m280.4 473.5q91.1-125.5 121.1-414.1 94.5 41.7 59.6 191.1-36.7 157.2-177.9 227.5z"/><path class="m" d="m266.6 472.3q37.6-86.2 44.3-457c66.3 3.7 138.6 50.1 113.5 205.9q-25 155.8-144 252.3z"/><path class="n" d="m356.4 123.4q5.3 157.8-89.8 348.9h-24.9l-2.9-465.3q112.5-35.6 117.6 116.4z"/><path class="o" d="m195 478.3q47.4-34.6 93.6 0-49.8 4.3-93.6 0z"/><path class="a" d="m240.2 518.6l3.5-0.6 0.3 1.2h-4.8z"/><path class="a" d="m274 521.1l2.7-0.6 0.7 1.1-3.6-0.2z"/><path class="a" d="m210.8 522.5v0.5h-3.1l0.2-0.9z"/><path class="p" d="m229.1 529.1q1.1 21.6 5.6 24.7c5 3.4 14.4 1.9 16.2-1.9q1.5-3.4 3-22.8l0.2 32.6h-25z"/><path class="p" d="m216.7 560.7h-4l-0.3-2.6-2 0.2q2.8-2.8 5.7-30.7 1.4 10.5 0.6 33.1z"/><path class="p" d="m268.5 525.9q3 27.1 4.2 28.9 1.3 1.9 4.7 2-1.9-0.2-5.8-0.4l-1 0.3-0.3 3h-3.9z"/><path class="q" d="m282.9 525.9h-3.6l-4.7-4.5z"/><path class="q" d="m271.9 525.9l-0.5-0.9 2.6-3.9z"/><path class="q" d="m243.3 519.2l6 5.1-0.6 1.6z"/><path class="q" d="m235.5 524.5l-2-1.3 6.2-4z"/><path class="q" d="m210.6 522.8l3.1 4.1 0.7 1.1-2.3-1.1-2.4-3.9z"/><path class="q" d="m208.4 523l-5.9 3.2-3.3 0.6 9.1-3.8z"/><path class="r" d="m401.5 59.4c3.5 3.2 6.3 7.1 9 11.1 2.6 4 4.8 8.2 6.8 12.5 4 8.6 7 17.8 9.2 27.1 4.2 18.6 5.5 37.8 5.1 56.8-0.4 19.1-2.8 38.1-6.2 56.8-3.4 18.8-8.2 37.3-14.3 55.4-12.2 36.1-29.2 70.6-50.2 102.4-21 31.7-45.5 61.4-74.1 86.5 14.2-12.7 27-26.8 39.1-41.4 12.2-14.6 23.4-30 33.7-45.9 20.6-32 37.6-66.2 49.6-102.3 6.1-18 10.9-36.4 14.4-55 1-4.7 1.6-9.4 2.4-14 0.3-2.4 0.7-4.7 1-7.1l0.9-7.1c1-9.4 1.8-18.8 2.1-28.3 0.6-19-0.5-38.1-4.5-56.6-2-9.3-4.8-18.4-8.6-27.1-1.9-4.3-4.1-8.6-6.6-12.6-2.6-4-5.4-7.9-8.8-11.2z"/><path class="s" d="m84.3 57.7c-3.2 3.5-5.9 7.5-8.4 11.5-2.4 4.1-4.6 8.4-6.5 12.7-3.8 8.8-6.7 17.9-8.8 27.1-4.5 18.5-6 37.6-5.8 56.7 0.7 38 7.6 75.9 19.2 112.1 11.5 36.3 28.3 70.8 48.8 102.9 10.3 16 21.5 31.4 33.7 46q9.1 11.1 18.9 21.4c6.6 6.9 13.4 13.7 20.6 19.9-29-24.9-53.5-54.6-74.5-86.5-20.9-32-37.7-66.7-49.4-103.1-5.8-18.2-10.4-36.8-13.6-55.7l-2.1-14.2c-0.6-4.7-1.3-9.4-1.7-14.2-0.9-9.5-1.4-19.1-1.4-28.6-0.1-19.1 1.7-38.3 6.3-56.9 2.3-9.3 5.4-18.4 9.4-27.1 2-4.3 4.2-8.5 6.7-12.6 2.5-4 5.3-8 8.6-11.4z"/><path class="t" d="m238.8 7q25.3-5.2 48-1.3 47.5 35.9 47.9 171.3l-63.3 22.6-7.9-134.5-14.4 2v287.5l-8.1 2.2q-12.9-58.6-15.9-106.6-3-48 6.5-203.2l-3.5 0.5-8.1 87.7-84.6 5.1q4.9-104.8 49-131.9 22.4-13.3 54.4-1.4z"/><path class="u" d="m238.8 7l0.9 55.8 0.6 55.8 1 111.7 0.5 111.6 0.1 55.8-0.1 55.8-0.8-55.8-0.7-55.8-1-111.6-0.5-111.7-0.1-55.8z"/><path class="t" d="m125 174.6q16.1 122.3 62.6 230.2l-10.5 6q-41.4-76.3-55.1-111.4h-9.5q10.6 29.6 22.9 51.6l-26.5 7.1q-45.6-78.1-54.9-183.5l47.8-17.1q6 50.4 23.2 113.5l4.6-2.3q-16.2-58.2-20.7-91.7z"/><path class="v" d="m351.2 292.6q-10.9 56.5-62 148.5 22.4-50.9 45.5-154.3z"/><path class="w" d="m310.9 15.3c4.7 1.7 8.7 4.7 12.4 7.9 3.7 3.3 7 7 9.8 11.1 1.3 2 2.9 4 4.1 6.2l3.5 6.5c1.1 2.2 2 4.5 3 6.7 1 2.3 2 4.5 2.7 6.9 6.5 18.7 9.5 38.4 10.9 58.1 2.2 39.4-1.7 79-9.3 117.6-7.6 38.7-18.8 76.6-31.7 113.9-13 37.1-27.8 73.7-44.9 109.2 8.3-17.9 15.9-36 23-54.3 7.2-18.4 14.2-36.8 20.4-55.4 12.7-37.3 23.8-75.1 31.3-113.8l2.7-14.5 1.3-7.2 1-7.3 2-14.6 0.5-3.7 0.3-3.6 0.6-7.4 1.2-14.7 0.4-14.7 0.2-7.4c0.1-2.4-0.1-4.9-0.1-7.3l-0.4-14.8c-1.3-19.5-4-39.1-10.3-57.8-0.6-2.3-1.6-4.6-2.6-6.8-0.9-2.3-1.8-4.6-2.8-6.8l-3.5-6.5c-1.1-2.2-2.6-4.2-3.9-6.2-2.8-4.1-6-7.8-9.5-11.2-3.7-3.3-7.7-6.3-12.3-8.1z"/><path class="x" d="m171.9 15.3c-4.7 1.8-8.6 4.8-12.3 8.1-3.5 3.4-6.8 7.1-9.5 11.2-1.3 2-2.8 4-4 6.2l-3.4 6.5c-1.1 2.2-1.9 4.5-2.9 6.8-0.9 2.2-1.9 4.5-2.5 6.8-6.3 18.7-9 38.3-10.3 57.8l-0.4 14.8c0 2.4-0.2 4.9-0.2 7.3l0.2 7.4 0.4 14.7 1.2 14.7 0.7 7.4 0.3 3.6 0.5 3.7 2 14.6 1 7.3 1.3 7.2 2.7 14.5c7.5 38.7 18.6 76.5 31.3 113.8 6.2 18.6 13.1 37 20.3 55.4 7.2 18.3 14.8 36.4 23.1 54.3-17.1-35.5-31.9-72.1-44.9-109.2-13-37.3-24.1-75.2-31.7-113.9-7.6-38.6-11.5-78.2-9.4-117.6 1.5-19.7 4.4-39.4 10.9-58.1 0.7-2.4 1.8-4.6 2.8-6.9 1-2.2 1.8-4.5 3-6.7l3.5-6.5c1.2-2.2 2.7-4.2 4.1-6.2 2.8-4.1 6.1-7.8 9.7-11.1 3.8-3.2 7.8-6.2 12.5-7.9z"/><path class="y" d="m165 15.3q-52.5 41.1-40 141.9l-12.5-2.5q-12.2-98.3 35-133.4z"/><path class="z" d="m341.9 31.9q47.4 71.2 29.3 180.7l-13.3-3q15.9-121.6-23.2-181.5z"/><path class="v" d="m286.8 468q109-108.2 130.9-214.5l6.3 2.4q-30.5 123.6-97.2 176.2h3.4q26.9-20.9 56.1-64.7l16.8 6.1q-58 72-110.8 98.1z"/><ellipse class="A" cx="296.6" cy="107.9" rx="41.5" ry="92.6"/><ellipse class="B" cx="154.5" cy="119.8" rx="26.7" ry="70.1"/><ellipse class="C" cx="84.1" cy="136.5" rx="24.2" ry="63.4"/><ellipse class="D" cx="35.2" cy="171.8" rx="15.8" ry="41.5"/><ellipse class="E" cx="407.8" cy="131.8" rx="19.4" ry="50.8"/><path class="p" d="m197.5 527.5l9.8-4-2.8-0.3-0.7-4.3q45.4-14.1 74.8-3.4l-0.8 2.4 0.7 0.7-1.8 1.9 0.7 1.1 9.7 4.2q2.4 4.8 1.2 15-5.7 3.4-36.1 5.1-30.5 1.6-56.1-6.6-0.7-6 1.4-11.8z"/><path class="F" d="m195.4 477.6l-7.8-2.8q25.7-26.7 53.9-26.7 28.3 0 54.9 26.4l-7.8 3.8q-15.9-12.4-46.6-12.4-31 0-46.6 11.7z"/><path class="G" d="m203.8 461.5q-63.7-110.5-75.9-276.3 9.5 116.2 82.5 272.2z"/><path class="H" d="m190.9 471.6q-78.4-71-106.6-162.7 23.1 75.4 111.7 159.1z"/><path class="I" d="m235.1 448.6l4.1-179.9 2.3 179.4z"/><path class="J" d="m315.8 302l11.1-64.2 13.2 5.8-14.7 61.4z"/><path class="t" d="m229.1 421.4l-8.9-98h13.3l1.6 98z"/><path class="K" d="m350.5 217.5q-27.5 165.6-70.6 244l-7.2-4.9q60-120 77.8-239.1z"/><path class="L" d="m286.8 468q78-65.3 125.2-194.8-49.6 151.3-119.7 198.4z"/><path class="a" d="m242.9 465.9q31.1 0 45.1 12.2-46.2-24.6-92.6-0.5 16.4-11.7 47.5-11.7z"/><path class="a" d="m241.5 448.1q29.1 0 54.9 26.4-24.7-25.9-54.6-25.9-29.4 0-54.2 26.2 24.9-26.7 53.9-26.7z"/><path fill-rule="evenodd" class="M" d="m296.4 474.5c-3.8 2-6.3 3.2-7.3 3.6l-15.3 36.1h-0.2q3.3 0.7 5 1.3l-0.8 2.4q-0.1 0-0.2 0 0.5 0.4 0.9 0.7l-1.8 1.9 0.7 1.1 9.7 4.2q4.4 11.5-2 28.5v3.4l-2-1.3c-2 0.3-4 0.4-5.8 0.4q0 0 0.1 0-0.1 0-0.1 0-3.3 0-5.7-0.4l-1 0.3-0.3 3-1.6 15.4q-5.3-0.7-14.6-1.1c4.7 0.2 9.6 0.6 14.6 1.1q-30.7 2.3-54.3 0l-1.7-14.4-0.2-1.6-0.1-1q-0.7 0.1-2 0.2 0 0 0 0c-2.2 0.2-5.6 0.3-8.8-0.3l-2 1.3v-3.4q-6.5-16.9-2.1-28.4l9.4-4.1q-1.5-0.1-2.4-0.2 0.6-0.1 1.1-0.3-0.7 0.2-1.1 0.3l-0.7-4.3q2.3-0.7 4.5-1.3l-12.7-39.2q-0.3 0-0.6-0.1-2.7-1.2-7.4-3.5c-30.7-15.5-147.6-81.2-179.3-201.4-5-17.3-7.8-35.4-7.8-54.1 0-34.9 9.5-67.8 26.2-96.9q19.4-47.1 55.3-63 0.1 0 0.1 0 1-0.8 2.1-1.6 0.1-0.1 0.1-0.1c20.7-25.8 49.3-37.9 77.9-41.4l2.8-1q-0.5 0.4-0.9 0.7 3.3-0.3 6.5-0.5c4.5-3 9.2-5.3 13.8-7.1q22.4-13.3 54.4-1.4 22.6-7.1 48-1.3c7.9 1.8 16.2 4.9 24.1 9.9v-0.3c32.8 1.9 67.1 14.2 90.3 45l0.3-0.9q52.2 23.1 64.7 96.3c7 20.1 10.9 41.5 10.9 63.6-4.8 153.9-145.9 237-180.7 255.2zm-88.1 43.1l1-0.3q-0.5 0.2-1 0.3zm1-0.3q7-1.8 13.4-3l-5.6-34.5c-6.8-0.3-13.6-0.7-20.3-1.3l12.9 38.7zm14.1-3.1c15.3-2.7 28-2.8 37.3-1.9l2.7-32.6c-12.5 0.5-28.3 0.8-44.7 0.2zm64.5-35.8c-2.5 0.2-11.2 0.8-23.4 1.3l-3.1 32.6c4.7 0.5 8.5 1.1 11.3 1.7z"/><path class="N" d="m427.1 208.1q-14.9 147.7-140.3 259.9 109.1-114.5 116.4-278.1 7.6-171.8-92.3-174.6c64.4 6 131.2 45.1 116.2 192.8z"/><path class="N" d="m467.6 214.5q-1.8 146.6-166.5 250.6 127.3-86.4 146.4-236 15.6-121.2-35.5-163.4 57.1 29 55.6 148.8z"/><path class="O" d="m452.3 320.4q-47.5 102.8-155.9 154.1 211.6-136.9 174.9-301.6 20.7 61.7-19 147.5z"/><path class="O" d="m274.8 514.3l3.8 1.2-0.8 2.4 0.7 0.7-1.8 1.9 1.2 1.3 9.2 4q2.4 3.5 1.5 13-0.9 9.6-3.5 15.5v3.4l-2-1.3q-4.5 1.1-11.5 0l-1 0.3-1.9 18.4-3.1 0.2 3.6-18.1 0.6-3.5q5.5 0.7 11.9 0.8 5.5-11.4 3.3-26.3l-10.3-7.2 0.9-3.5 0.4-1.3-2.2-2 15.3-36.1z"/></svg>