<svg version="1.2" xmlns="http://www.w3.org/2000/svg" viewBox="0 0 517 516" width="517" height="516"><defs><linearGradient id="P" gradientUnits="userSpaceOnUse"/><linearGradient id="g1" x1="324" y1="-140.2" x2="664.2" y2="302" href="#P"><stop stop-color="#5a48a5"/><stop offset="1" stop-color="#382583"/></linearGradient><linearGradient id="g2" x1="316.7" y1="-94.2" x2="617.4" y2="296.6" href="#P"><stop stop-color="#5a48a5"/><stop offset="1" stop-color="#382583"/></linearGradient><linearGradient id="g3" x1="243.5" y1="280.3" x2="243.5" y2="228.1" href="#P"><stop stop-color="#5a48a5"/><stop offset="1" stop-color="#382583"/></linearGradient><linearGradient id="g4" x1="141.3" y1="419.8" x2="141.3" y2="373.2" href="#P"><stop stop-color="#5a48a5"/><stop offset="1" stop-color="#382583"/></linearGradient><linearGradient id="g5" x1="397.5" y1="239.8" x2="397.5" y2="187.6" href="#P"><stop stop-color="#5a48a5"/><stop offset="1" stop-color="#382583"/></linearGradient><linearGradient id="g6" x1="269.6" y1="441.3" x2="269.6" y2="389.1" href="#P"><stop stop-color="#5a48a5"/><stop offset="1" stop-color="#382583"/></linearGradient><linearGradient id="g7" x1="102.5" y1="340.6" x2="102.5" y2="261.1" href="#P"><stop stop-color="#5a48a5"/><stop offset="1" stop-color="#382583"/></linearGradient><linearGradient id="g8" x1="334" y1="355.8" x2="334" y2="331.2" href="#P"><stop stop-color="#5a48a5"/><stop offset="1" stop-color="#382583"/></linearGradient><linearGradient id="g9" x1="451" y1="258.8" x2="451" y2="234.2" href="#P"><stop stop-color="#5a48a5"/><stop offset="1" stop-color="#382583"/></linearGradient><linearGradient id="g10" x1="416.3" y1="298.8" x2="416.3" y2="291.5" href="#P"><stop stop-color="#5a48a5"/><stop offset="1" stop-color="#382583"/></linearGradient><linearGradient id="g11" x1="398.6" y1="371.4" x2="398.6" y2="364.2" href="#P"><stop stop-color="#5a48a5"/><stop offset="1" stop-color="#382583"/></linearGradient><linearGradient id="g12" x1="394.9" y1="178.7" x2="394.9" y2="171.4" href="#P"><stop stop-color="#5a48a5"/><stop offset="1" stop-color="#382583"/></linearGradient><linearGradient id="g13" x1="187.8" y1="246.5" x2="187.8" y2="239.2" href="#P"><stop stop-color="#5a48a5"/><stop offset="1" stop-color="#382583"/></linearGradient><linearGradient id="g14" x1="71" y1="268.4" x2="71" y2="261.1" href="#P"><stop stop-color="#5a48a5"/><stop offset="1" stop-color="#382583"/></linearGradient><linearGradient id="g15" x1="181.9" y1="172.7" x2="181.9" y2="154.7" href="#P"><stop stop-color="#5a48a5"/><stop offset="1" stop-color="#382583"/></linearGradient><linearGradient id="g16" x1="253.3" y1="175" x2="253.3" y2="167.7" href="#P"><stop stop-color="#5a48a5"/><stop offset="1" stop-color="#382583"/></linearGradient><linearGradient id="g17" x1="300.6" y1="163.7" x2="300.6" y2="148" href="#P"><stop stop-color="#5a48a5"/><stop offset="1" stop-color="#382583"/></linearGradient><linearGradient id="g18" x1="245.9" y1="441.3" x2="245.9" y2="426.1" href="#P"><stop stop-color="#5a48a5"/><stop offset="1" stop-color="#382583"/></linearGradient><linearGradient id="g19" x1="264" y1="338.8" x2="264" y2="323.7" href="#P"><stop stop-color="#5a48a5"/><stop offset="1" stop-color="#382583"/></linearGradient><linearGradient id="g20" x1="343" y1="228.8" x2="343" y2="204.3" href="#P"><stop stop-color="#5a48a5"/><stop offset="1" stop-color="#382583"/></linearGradient><linearGradient id="g21" x1="343" y1="282.3" x2="343" y2="268" href="#P"><stop stop-color="#5a48a5"/><stop offset="1" stop-color="#382583"/></linearGradient><linearGradient id="g22" x1="56" y1="195" x2="56" y2="170.5" href="#P"><stop stop-color="#5a48a5"/><stop offset="1" stop-color="#382583"/></linearGradient></defs><style>.a{opacity:.2;fill:url(#g1)}.b{fill:url(#g2)}.c{fill:url(#g3)}.d{opacity:.1;mix-blend-mode:multiply}.e{fill:url(#g4)}.f{fill:url(#g5)}.g{fill:url(#g6)}.h{fill:url(#g7)}.i{fill:url(#g8)}.j{fill:url(#g9)}.k{fill:url(#g10)}.l{fill:url(#g11)}.m{fill:url(#g12)}.n{fill:url(#g13)}.o{fill:url(#g14)}.p{fill:url(#g15)}.q{fill:url(#g16)}.r{fill:url(#g17)}.s{fill:url(#g18)}.t{fill:url(#g19)}.u{fill:url(#g20)}.v{fill:url(#g21)}.w{fill:url(#g22)}</style><circle class="a" cx="258.2" cy="258.1" r="257.8"/><circle class="b" cx="258.2" cy="258.1" r="227.8"/><circle class="c" cx="273.6" cy="254.2" r="26.1"/><path class="d" d="m251.5 268c-2.5-4-4-8.7-4-13.8 0-14.4 11.7-26.1 26.1-26.1 11.6 0 21.3 7.5 24.8 18-4.6-7.4-12.8-12.3-22.1-12.3-14.4 0-26.1 11.6-26.1 26 0 2.9 0.5 5.6 1.3 8.2z"/><circle class="e" cx="168.6" cy="396.5" r="23.3"/><path class="d" d="m148.8 408.8c-2.2-3.6-3.5-7.8-3.5-12.3 0-12.9 10.4-23.3 23.3-23.3 10.3 0 19 6.7 22.1 16-4.2-6.5-11.4-10.9-19.8-10.9-12.8 0-23.2 10.4-23.2 23.2 0 2.6 0.4 5 1.1 7.3z"/><circle class="f" cx="427.6" cy="213.7" r="26.1"/><path class="d" d="m405.5 227.5c-2.5-4-4-8.7-4-13.8 0-14.4 11.7-26.1 26.1-26.1 11.5 0 21.3 7.5 24.7 18-4.6-7.4-12.7-12.3-22.1-12.3-14.4 0-26 11.7-26 26.1 0 2.8 0.4 5.5 1.3 8.1z"/><circle class="g" cx="299.7" cy="415.2" r="26.1"/><path class="d" d="m277.6 429c-2.5-4-4-8.7-4-13.8 0-14.4 11.7-26.1 26.1-26.1 11.5 0 21.3 7.5 24.7 18-4.6-7.4-12.7-12.3-22.1-12.3-14.4 0-26 11.6-26 26 0 2.9 0.4 5.6 1.3 8.2z"/><circle class="h" cx="146.3" cy="300.8" r="39.8"/><path class="d" d="m112.6 321.9c-3.8-6.1-6.1-13.3-6.1-21.1 0-21.9 17.8-39.7 39.8-39.7 17.6 0 32.6 11.5 37.8 27.3-7.1-11.2-19.5-18.7-33.7-18.7-22 0-39.8 17.8-39.8 39.8 0 4.3 0.7 8.5 2 12.4z"/><circle class="i" cx="350.3" cy="343.5" r="12.3"/><path class="d" d="m339.9 350c-1.2-1.9-1.9-4.1-1.9-6.5 0-6.8 5.5-12.3 12.3-12.3 5.4 0 10 3.6 11.6 8.5-2.1-3.5-6-5.8-10.4-5.8-6.7 0-12.2 5.5-12.2 12.3q0 2 0.6 3.8z"/><circle class="j" cx="467.3" cy="246.5" r="12.3"/><path class="d" d="m456.9 253c-1.2-1.9-1.9-4.1-1.9-6.5 0-6.8 5.5-12.3 12.3-12.3 5.4 0 10 3.6 11.6 8.5-2.1-3.5-6-5.8-10.4-5.8-6.7 0-12.2 5.5-12.2 12.3q0 2 0.6 3.8z"/><circle class="k" cx="423.9" cy="295.1" r="3.6"/><path class="d" d="m420.8 297c-0.3-0.5-0.5-1.2-0.5-1.9 0-2 1.6-3.6 3.6-3.6 1.6 0 3 1 3.5 2.5-0.7-1.1-1.8-1.7-3.1-1.7-2 0-3.6 1.6-3.6 3.6q0 0.6 0.1 1.1z"/><circle class="l" cx="406.2" cy="367.8" r="3.6"/><path class="d" d="m403.1 369.7c-0.3-0.5-0.5-1.2-0.5-1.9 0-2 1.6-3.6 3.6-3.6 1.6 0 3 1 3.5 2.5-0.7-1.1-1.8-1.8-3.1-1.8-2 0-3.7 1.7-3.7 3.7q0 0.6 0.2 1.1z"/><circle class="m" cx="402.6" cy="175" r="3.6"/><path class="d" d="m399.5 176.9c-0.4-0.5-0.6-1.2-0.6-1.9 0-2 1.6-3.6 3.7-3.6 1.6 0 2.9 1 3.4 2.5-0.6-1.1-1.8-1.7-3.1-1.7-2 0-3.6 1.6-3.6 3.6q0 0.6 0.2 1.1z"/><circle class="n" cx="195.5" cy="242.8" r="3.6"/><path class="d" d="m192.4 244.8c-0.4-0.6-0.6-1.2-0.6-2 0-2 1.7-3.6 3.7-3.6 1.6 0 2.9 1.1 3.4 2.5-0.6-1-1.8-1.7-3.1-1.7-2 0-3.6 1.6-3.6 3.6q0 0.6 0.2 1.2z"/><circle class="o" cx="78.7" cy="264.7" r="3.6"/><path class="d" d="m75.6 266.6c-0.4-0.5-0.6-1.2-0.6-1.9 0-2 1.7-3.6 3.7-3.6 1.6 0 3 1 3.4 2.5-0.6-1.1-1.7-1.7-3-1.7-2.1 0-3.7 1.6-3.7 3.6q0 0.6 0.2 1.1z"/><circle class="p" cx="194.9" cy="163.7" r="9"/><path class="d" d="m187.3 168.4c-0.9-1.3-1.4-3-1.4-4.7 0-5 4.1-9 9-9 4 0 7.4 2.6 8.6 6.2-1.6-2.6-4.4-4.3-7.6-4.3-5 0-9 4.1-9 9q0 1.5 0.4 2.8z"/><circle class="q" cx="260.9" cy="171.4" r="3.6"/><path class="d" d="m257.8 173.3c-0.3-0.6-0.5-1.2-0.5-1.9 0-2 1.6-3.7 3.6-3.7 1.6 0 3 1.1 3.5 2.5-0.7-1-1.8-1.7-3.1-1.7-2 0-3.6 1.6-3.6 3.7q0 0.6 0.1 1.1z"/><circle class="r" cx="312.4" cy="155.8" r="7.8"/><path class="d" d="m305.8 160c-0.8-1.2-1.2-2.6-1.2-4.2 0-4.3 3.5-7.8 7.8-7.8 3.5 0 6.5 2.3 7.5 5.4-1.4-2.2-3.9-3.7-6.7-3.7-4.3 0-7.8 3.5-7.8 7.8q0 1.3 0.4 2.5z"/><circle class="s" cx="257.5" cy="433.7" r="7.6"/><path class="d" d="m251.1 437.7c-0.8-1.2-1.2-2.5-1.2-4 0-4.2 3.4-7.6 7.6-7.6 3.3 0 6.2 2.2 7.2 5.2-1.4-2.1-3.7-3.6-6.5-3.6-4.1 0-7.5 3.4-7.5 7.6q0 1.3 0.4 2.4z"/><circle class="t" cx="275.6" cy="331.2" r="7.6"/><path class="d" d="m269.1 335.2c-0.7-1.1-1.1-2.5-1.1-4 0-4.2 3.4-7.5 7.6-7.5 3.3 0 6.2 2.1 7.2 5.2-1.4-2.2-3.8-3.6-6.5-3.6-4.1 0-7.5 3.4-7.5 7.6q0 1.2 0.3 2.3z"/><circle class="u" cx="359.3" cy="216.6" r="12.3"/><path class="d" d="m348.9 223.1c-1.2-1.9-1.9-4.1-1.9-6.5 0-6.8 5.5-12.3 12.3-12.3 5.4 0 10 3.6 11.6 8.5-2.1-3.5-6-5.8-10.4-5.8-6.7 0-12.2 5.5-12.2 12.2q0 2.1 0.6 3.9z"/><circle class="v" cx="354.2" cy="275.1" r="7.2"/><path class="d" d="m348.1 278.9c-0.7-1.1-1.1-2.4-1.1-3.8 0-3.9 3.2-7.1 7.2-7.1 3.2 0 5.9 2 6.8 4.9-1.3-2-3.5-3.4-6.1-3.4-3.9 0-7.1 3.2-7.1 7.2q0 1.2 0.3 2.2z"/><circle class="w" cx="72.3" cy="182.8" r="12.3"/><path class="d" d="m61.9 189.3c-1.2-1.9-1.9-4.1-1.9-6.5 0-6.8 5.5-12.3 12.3-12.3 5.4 0 10 3.5 11.6 8.4-2.1-3.4-6-5.7-10.4-5.7-6.7 0-12.2 5.5-12.2 12.2q0 2 0.6 3.9z"/></svg>