<svg version="1.2" xmlns="http://www.w3.org/2000/svg" viewBox="0 0 430 97" width="430" height="97"><defs><linearGradient id="P" gradientUnits="userSpaceOnUse"/><linearGradient id="g1" x1="-1.3" y1="100.8" x2="75.7" y2="100.8" href="#P"><stop stop-color="#784871"/><stop offset="1" stop-color="#592547"/></linearGradient><linearGradient id="g2" x1="429.6" y1="10.4" x2="31.6" y2="10.4" href="#P"><stop stop-color="#6e3d66"/><stop offset="1" stop-color="#592547"/></linearGradient></defs><style>.a{fill:url(#g1)}.b{fill:url(#g2)}.c{fill:#784871}.d{opacity:.6;fill:#1a284d}.e{opacity:.6;fill:#4e0f2a}.f{fill:#965a8e}</style><path class="a" d="m9.5 4.9l1.1 0.1 6.3 0.6h0.6l6 0.5 8.1 28.8 46.4 61.9h-17.3c-29.5-26.8-48.8-58.1-60.3-92.6z"/><path class="b" d="m158.7 39.3q84.8 0 209.8-24.9l61.1 14.2-8 19.3-0.5 1-5.6 13.7-0.8 1.8-9.2 22.2-327.5 10.2c-8.5-7.2-16.2-14.5-22.7-21.9q-1.1-1.2-2.2-2.5c-4.6-5.3-8.6-10.7-11.9-16.2q-0.9-1.4-1.6-2.7c-3.5-6.1-6.2-12.3-8-18.6q42.3 4.4 127.1 4.4z"/><path class="c" d="m158.7 39.3q84.8 0 209.8-24.9l61.1 14.2q-164 39.8-259.3 33.5-100.4-6.5-138.7-27.2 42.3 4.4 127.1 4.4z"/><path class="d" d="m368 18.2l46.5 10.7q-152.5 29.4-230 29.4-77.5 0-135.9-20.1 63.2 4.3 127.6 4.3 64.5 0 191.8-24.3z"/><path class="e" d="m326.9 34.1l17.5 7-23.9 3.7-13.5-7.6z"/><path class="e" d="m228.2 56.1l-22.9 1.6-1.6-6.3 20.1-1.6z"/><path class="f" d="m0.4 4.2v-4l23.1 0.4v5.5z"/><path class="f" d="m23.5 0.6l10.7 34.6v1l-2.6-1.3-8.1-28.8z"/><path class="e" d="m251.1 68.2l19.5-1.4 39.6-3.5 78.1-8.7 21.1-3.5 12.2-3.2-0.5 1-9.7 2.8-18.1 4.2-37.2 5-79.9 6.5-22.3 1.7-23.3 1.3v-0.4z"/><path class="e" d="m208.5 71.2l-16.8 0.2 16.7-0.7z"/><path class="e" d="m168.6 72.4l-8.1-0.6 31.2-0.4z"/><path class="e" d="m101.2 67.7l59.3 4.1-21.8 0.4-66.2-7-31.3-9q-0.9-1.4-1.6-2.7z"/><path class="e" d="m357.1 73.8l22.1-3.3 21-3.7 15.3-4.2-0.8 1.8-10.5 4-21.5 5.1-21.3 1.8-22.3 1.3-25.3 0.6v-1z"/><path class="e" d="m169.9 78.8l25.2-0.3h24.7l24.7-0.6 24.4-1.5 0.1 0.6-48.7 1.8-25.2 0.3-25.2 0.2z"/><path class="e" d="m56.7 73l11.8 1.8 24.8 3 23.8 1.9 24.3 1.2v0.5l-48.5-1.5-23.1-2.7-11.8-1.7-2.7-0.6q-1.1-1.2-2.2-2.5z"/><path class="e" d="m10.6 5l5.5 15.6 7.9 20.4 23.3 38-0.9 0.6-23.6-38.3-7.9-19.1-5.4-17.3z"/><path class="e" d="m17.5 5.6l8.7 32-0.9 0.3-8.4-32.3z"/></svg>