<svg version="1.2" xmlns="http://www.w3.org/2000/svg" viewBox="0 0 197 45" width="197" height="45"><defs><linearGradient id="P" gradientUnits="userSpaceOnUse"/><linearGradient id="g1" x1="-0.9" y1="48.3" x2="34.4" y2="48.3" href="#P"><stop stop-color="#784871"/><stop offset="1" stop-color="#592547"/></linearGradient><linearGradient id="g2" x1="196.3" y1="2.6" x2="14.2" y2="2.6" href="#P"><stop stop-color="#6e3d66"/><stop offset="1" stop-color="#592547"/></linearGradient></defs><style>.a{fill:url(#g1)}.b{fill:url(#g2)}.c{fill:#784871}.d{opacity:.6;fill:#1a284d}.e{opacity:.6;fill:#4e0f2a}.f{fill:#965a8e}</style><path class="a" d="m4.1 2.3h0.5l2.8 0.3h0.3l2.8 0.2 3.7 13.2 21.2 28.3h-7.9c-13.5-12.2-22.3-26.5-27.6-42.3z"/><path class="b" d="m72.3 18q38.9 0 96.1-11.4l27.9 6.5-3.7 8.9-0.1 0.4-2.6 6.3-0.4 0.8-4.2 10.2-149.9 4.6c-3.9-3.3-7.4-6.6-10.4-10q-0.5-0.5-1-1.1-3.1-3.7-5.5-7.5-0.3-0.6-0.7-1.2-2.4-4.2-3.6-8.5 19.3 2 58.1 2z"/><path class="c" d="m72.3 18q38.9 0 96.1-11.4l27.9 6.5q-75.1 18.2-118.7 15.4-45.9-3-63.4-12.5 19.3 2 58.1 2z"/><path class="d" d="m168.1 8.3l21.3 4.9q-69.8 13.5-105.2 13.5-35.5 0-62.2-9.2 28.9 2 58.4 2 29.5 0 87.7-11.2z"/><path class="e" d="m149.3 15.7l8.1 3.1-11 1.8-6.2-3.5z"/><path class="e" d="m104.2 25.7l-10.5 0.8-0.8-2.9 9.2-0.7z"/><path class="f" d="m-0.1 2v-1.9l10.6 0.2v2.5z"/><path class="f" d="m10.5 0.3l4.9 15.8v0.5l-1.2-0.6-3.7-13.2z"/><path class="e" d="m114.6 31.3l9-0.7 18.1-1.6 35.7-3.9 9.7-1.7 5.5-1.4-0.1 0.4-4.5 1.3-8.3 1.9-17 2.3-36.6 3-10.2 0.8-10.7 0.6v-0.2z"/><path class="e" d="m95.1 32.6l-7.7 0.1 7.7-0.3z"/><path class="e" d="m76.9 33.2l-3.7-0.3 14.2-0.2z"/><path class="e" d="m46 31l27.2 1.9-10 0.2-30.3-3.2-14.4-4.2q-0.3-0.6-0.7-1.2z"/><path class="e" d="m163.2 33.8l10.1-1.5 9.6-1.7 7-1.9-0.4 0.8-4.8 1.8-9.8 2.4-9.8 0.8-10.2 0.6-11.6 0.3v-0.5z"/><path class="e" d="m77.5 36.1l11.5-0.1h11.3l11.3-0.3 11.2-0.7v0.3l-22.3 0.8-11.5 0.2h-11.5z"/><path class="e" d="m25.7 33.5l5.4 0.8 11.3 1.3 10.9 0.9 11.1 0.6v0.2l-22.2-0.7-10.6-1.2-5.4-0.8-1.2-0.3q-0.5-0.5-1-1.1z"/><path class="e" d="m4.6 2.3l2.5 7.2 3.6 9.3 10.7 17.4-0.5 0.3-10.8-17.6-3.6-8.7-2.4-7.9z"/><path class="e" d="m7.7 2.6l4 14.7-0.4 0.1-3.9-14.8z"/></svg>