<svg version="1.2" xmlns="http://www.w3.org/2000/svg" viewBox="0 0 1209 446" width="1209" height="446"><defs><linearGradient id="P" gradientUnits="userSpaceOnUse"/><linearGradient id="g1" x1="630.5" y1="222.1" x2="630.5" y2="197.4" href="#P"><stop stop-color="#16114e"/><stop offset="1" stop-color="#130020"/></linearGradient><linearGradient id="g2" x1="-3" y1="221.7" x2="-3" y2="205.2" href="#P"><stop stop-color="#16114e"/><stop offset="1" stop-color="#130020"/></linearGradient></defs><style>.a{opacity:.3;fill:#3d2b83}.b{fill:#10001f}.c{fill:#170a47}.d{fill:url(#g1)}.e{fill:#14003d}.f{fill:#1d3063}.g{mix-blend-mode:screen;fill:#1e3559}.h{mix-blend-mode:multiply;fill:#3d4480}.i{opacity:.3;mix-blend-mode:multiply;fill:#3d4480}.j{fill:url(#g2)}</style><path class="a" d="m434.5 222.1l23.1-1.1c-9.9 3.6-21.2 4.6-30.1 6.2l-15.2-3.9h-0.6l8.9 5.1c-17.3 2.5-31.8 1.9-42 0.6v-3.9l-1.4 3.8q-9.2-1.3-14.5-2.9-5.1 5.5-15 10.5l-15.6-7-5.7 1 11.8 9.9q-1.6 0.5-3.3 1l-11.9-10.9 8.2 11.8c-4 0.9-8.3 1.6-13.1 1.8q-0.8 0.1-1.7 0.1l1.8 7.2-23.9-2-1.1-7.9c-12.1-3.1-21.2-8.1-25.1-10.4l-3.8 0.2c-9 7.4-14.2 2.4-15.5 0.8l-0.9 0.1q-0.4 0.3-0.7 0.6l4 13.7-1.1 0.7-3.5-13.9q-6.2 5.4-12.2 9.5l-0.1 0.1q-0.5 0.4-1 0.7l-1 0.6q-3.9 2.7-7.7 4.7l-0.1 0.1q-4.9 2.6-9.5 4.5h-0.1q-1.3 0.6-2.6 1.1l-6.1-15.4q-0.1 0.3-0.3 0.5l3.7 15.8c-6.9 2.2-13.2 3.1-19.1 3.2-2.8 2.9-6 5.8-9.5 8.7 3.1 12.6 6.9 27.9 10.5 43.5l0.1 0.1c3 13 6 26.4 8.6 38.7q0.1-1.5 0.2-3l4.7 0.8-4.3-5.1q0.3-2.8 0.6-5.5l2.2 1.5-1.9-3.5q1.4-10.6 3.4-18.9 6.8 23 4.6 31.9c2.4-4.1 4.8-9 6.8-14.8l3.2 5.3-2.6-7.3c1.3-4.1 2.4-8.6 3.1-13.4q8.2 16.1 0.3 32.1c-4.1 8.1-9.6 11.2-13.9 12.2 3.2-0.1 7.8 0.1 12.2 1.3l-1.5 4.7 2.7-4.4c2.3 0.7 4.5 1.7 6.4 3 1.5 1.1 2.9 2.3 4.1 3.6l-5.2 1.3h6.3c4.7 5.5 6.3 11.4 6.4 11.8-0.2 0-8.2-1.8-16.8-5.1l-3.9-9 1.9 8.3c-5.7-2.3-11.4-5.3-15.3-9 1 3.3 2.1 8 2.4 12.7l-4.6-0.2 4.6 1.5c0.1 2.6-0.1 5.2-0.7 7.6q-0.8 2.9-2 5.3l-2.6-5 1.9 6.5c-3.5 6.5-8.2 10-8.5 10.2-0.1-0.3-0.9-9.1-0.6-19l6.8-6.8-6.7 4.5q0.2-2.9 0.5-5.7-1 0.7-2.3 1.3-11.1 4.8-30.1 4.8l14.9-8.9 5.2 0.6-4.4-1.1 8.5-5 6.2 1.4-3.9-2.8 8.5-5.1q0 0 0 0 0 0 0 0c-3.6 1.4-8.9 2.2-15.6-0.2q-12.9-4.5-16.6-17l19.1 7.2 1 5.4v-5l14.9 5.7q0.2-0.2 0.4-0.4 0-0.8 0-1.6c-3.1-15.2-7-32.9-11.1-49.9l-1.9-8.1c-2.8-11.7-5.5-22.9-7.9-32.6-3.5 2.8-7.2 5.4-11.2 8l-7.2-10 5.1 11.3q-1.4 0.8-2.9 1.6l-14.6-28 10.3 30.3c-8.3 4.1-17.5 7.5-27.9 9.5-1.5 25.8-2.6 58-1.9 89.5l1.2 29.2q0 0.1 0 0.1l0.8-0.1c1.7-5.7 5.4-16.8 10.4-27.4l3 3.5-1.9-5.8c4-7.9 8.7-15.3 13.9-19.8q-0.8 17.7-10.2 34.6l-5.8 2.8 4.4-0.4c-2.5 4.2-5.7 8.2-9.5 11.9l9.1-1.3v5.8l2.2-6.1 13.9-1.9-1.3 3.4 1.9-3.5 10.5-1.5c-13.9 18.1-31.4 13.9-39.1 10.8l18.5 12.4-3.5 4 3.5 2.3 5.9-2.3 18.6 12.5q-28.8 4-36.4-3.2-0.2-0.2-0.3-0.3l0.9-6.7-2.4 4.9c-4.5-6-7-16.1-8.1-21.6-1.9 4-6.4 12.5-13.5 16.1-3.4 1.7-8.4 3-13.4 3.9l1.9-3.3-3.5 3.6q-8.5 1.5-16.7 2.1 7.5-6.7 17.6-13.3l5.5 2.9 1.6-0.2-3.3-5.2c6.6-4 13.9-7.7 20.8-9.7q0.1 0 0.1 0 0 0 0 0c-5 1.1-15 2.7-24.8 1.2-5.2-0.8-10.4-5.2-14.7-10.3l7.7-0.6-8.9-0.9q-6.3-7.8-10.6-16.5l25 11.9 1.5 4.1 0.2-3.3 26.1 12.3 0.3 0.2 0.4 0.3q-0.2-0.1-0.4-0.3-22.9-18.7-24.4-51.9c5.2 4.6 9.9 11.9 13.9 19.8l-1.9 5.9 3-3.6c4.1 8.7 7.3 17.7 9.3 23.8q0 0 0 0v-0.1c-0.5-7.8-0.8-15.8-1-23.8-0.8-31.8 0.4-64.3 1.9-90.5q-3.1 0.6-6.2 1c-9 1.1-18.1 0.8-26.9-0.4-6.6 10-15 19.8-25.5 27.9h-0.1q-1.2 0.9-2.4 1.8l-0.1 0.1c6-1.9 12.2-2.8 17.4-3.2l-2.1 6.1 6.7-6.4q4.7-0.1 7.9 0-5.5 7.2-11.6 12l-3.7-1.9 2.5 2.8c-3.3 2.4-6.7 3.9-9.4 3-4.8-1.5-9.3-4.8-12-7.1 1.8 3 5.2 8.3 10.6 14l-2.2 5.4c0.1-0.2 2.5-2.7 3.6-4q0.8 0.8 1.7 1.7l-3.6 2.9 4.4-1.4c4.4 3.6 12.7 8.9 18.8 11.7q-16.4 4.9-28.7-7.3c-6.4-6.4-7.8-13.1-7.6-18-3 4.6-8.1 11-14 13.6q-1.7 0.7-3.3 1.2l1.2-5.8-3.8 6.3q-7.4 1.3-13.3-1 11.3-11.8 22.6-18.3c-2.7-0.3-5.5-1.3-7.9-3.6q-8.9-8.7-17.3-27.2l13.8 10.5 4.2 3.2 1.4 1-0.3 4.4 1.6-3.4 11.9 9.1q0.1 0 0.1 0c-2.7-2.9-5.7-7.7-6.7-15.2q-2-14.6 6.7-23.7l2.7 23.8-3-0.1 3.2 1.8 1.6 14.5q0-0.1 0.1-0.1l8.7-6.2c9.3-7.4 16.9-16.2 23-25.2q-0.6-0.1-1.2-0.2l-6-26.9 2.2 26.2q-1.4-0.3-2.9-0.6l-1.9-27.7h-12.9l-2.6 22.6q-6.5-2.3-12.6-5l3.7-15.5-7.9 13.6c-7.9-3.8-15.2-7.9-21.7-11.9q-5.5 0.9-10.1 1.6l-0.3 0.9-11.9 1.6 0.3-0.8q-4.8 0.6-7.4 0.8l-0.3-26.8 0.9-21.5 455-1.7z"/><path class="a" d="m899.5 218.2l-23.4-1q5.5 0.1 23.4 1z"/><path class="a" d="m1196.8 241.3q-2.7 0-5.3 0c-6 10.8-13 18.6-20.7 24l-8.8-16.8 7.1 17.9q-2.7 1.8-5.5 3.1l-11.3-32.9 8.7 34.2c-7.8 3.3-16.1 4.5-24.5 4.3 0.6 8.6 1.1 17.9 1.4 27.5v0.1c0.5 16.3 0.3 33.6-1 49.9 2-4.6 5.2-11.2 9.3-17.6l3 2.6-1.9-4.3c4-5.8 8.7-11.3 13.9-14.6q-1.5 24.5-24.4 38.3-0.2 0.1-0.4 0.2l0.4-0.2 0.3-0.2 26.1-9.1 0.2 2.5 1.5-3.1 25-8.7q-4.3 6.4-10.6 12.2l-8.9 0.6 7.7 0.5c-4.3 3.7-9.5 7-14.7 7.6-9.8 1.1-19.8-0.1-24.8-0.9q0 0 0 0 0 0 0 0c7 1.5 14.3 4.2 20.9 7.2l-3.3 3.8 1.6 0.2 5.5-2.2q10.1 4.9 17.6 9.8-8.2-0.4-16.7-1.5l-3.5-2.6 1.9 2.4c-5-0.7-10-1.7-13.4-3-7.1-2.6-11.6-8.9-13.5-11.8-1.1 4.1-3.6 11.5-8.1 15.9l-2.4-3.5 0.9 4.8q-0.1 0.2-0.3 0.3-7.6 5.3-36.4 2.3l18.6-9.2 5.9 1.8 3.5-1.8-3.5-2.9 18.5-9.2c-7.7 2.3-25.2 5.4-39.1-8l10.5 1.1 1.9 2.6-1.3-2.5 13.9 1.4 2.1 4.5v-4.2l9.2 0.9c-3.8-2.7-7-5.7-9.5-8.8l4.4 0.3-5.8-2.1q-9.4-12.5-10.2-25.6c5.2 3.4 9.9 8.8 13.9 14.7l-1.9 4.3 3-2.7c5 7.9 8.7 16.1 10.4 20.4h0.7c1.4-14.5 1.7-29.9 1.5-44.8l-0.3-9.6c-0.2-9.1-0.7-17.9-1.3-26.1-7.7-0.4-15.6-2.1-23.2-4.5l5.6-17.7-3.4-1.9-18.3 13.2q-2.2-1.1-4.4-2.2c-2.9 3.8-6.2 7.7-10 11.5q-0.8 0.8-1.6 1.7h-0.1q-0.9 0.9-1.8 1.7l-0.2 0.2q-1 0.9-2 1.8c-5.4 4.6-11.6 9-18.7 12.7 6-1.3 12.2-2 17.4-2.3l-2.1 4.5 3.9-0.5 2.8-4.2q4.7-0.1 7.9 0-5.5 5.3-11.6 8.8l-3.7-1.4 2.5 2.1c-3.3 1.7-6.7 2.9-9.4 2.2-4.8-1.1-9.3-3.5-11.9-5.2 1.7 2.2 5.1 6.1 10.5 10.3l-2.2 4c0.2-0.1 2.5-2 3.6-3q0.8 0.7 1.7 1.3l-3.6 2.1 3 2.2 4.5-1.8c4.4 2.7 9.6 5.2 15.7 7.2q-16.3 3.7-28.7-5.4c-6.4-4.7-7.8-9.6-7.6-13.2-3 3.4-8.1 8.1-14 10q-1.7 0.5-3.3 0.9l1.3-4.3-3.9 4.7q-7.4 0.9-13.3-0.8 11.3-8.7 22.6-13.5c-2.7-0.2-5.5-1-7.9-2.7q-8.9-6.4-17.3-20.1l13.8 7.8-0.6 2.7 3.8 2.8 1.1-3.1 1.3 0.7-0.3 3.2 1.6-2.4 12 6.7q0 0 0 0c-2.7-2.2-5.7-5.7-6.7-11.3q-1.9-10.8 6.7-17.5l2.7 17.6h-3l3.2 1.2 1.6 10.8c8.9-4.1 16.4-9.2 22.8-14.7l3.9-3.4q0.7-0.7 1.4-1.4l0.8-0.8c3.7-3.7 6.9-7.5 9.7-11.2-7.1-3.7-13.8-7.7-19.9-11.7l-0.7 2.8c-5-0.9-9.9-2.6-14.4-4.9l4.5-5.3q-0.3-0.2-0.5-0.4l-5.1 5.1c-12.9-6.7-22.8-17.2-26.3-21.2q-0.8-0.1-1.6-0.1c-0.3 2.7-2.1 7.2-10-0.6q0 0 0 0l3.8 16.1h-3l-1.6-16.2q-0.1 0-0.1 0c-0.2 2.6-1.3 10.7-9.5 14.4l0.1 0.9-2.3 0.5v-0.6q-1.9 0.6-4.1 0.8-0.3 3.6-0.7 7.8-0.3 2.7-0.7 5.5c-1.5 11.5-4.2 25.3-9.2 38.4q-0.9 2.2-1.8 4.4l-0.1 0.2c-3.6 8.3-8.2 16.2-14.1 22.8l13.2-3.7v3.7l1-4 19.1-5.4q-3.7 9.3-16.6 12.7c-6.7 1.7-12 1.1-15.6 0.1q0 0 0 0 0 0 0 0l8.5 3.7-3.9 2.1 6.2-1.1 8.5 3.8-4.4 0.8 5.2-0.4 14.9 6.5q-19 0-30.1-3.5c-6.5-2.2-8.8-7.9-9.6-11.4-3.6 3.6-10.6 6.4-17.5 8.5l2-6.1-4 6.6c-8.6 2.5-16.6 3.7-16.8 3.8 0.1-0.3 1.7-4.7 6.4-8.8h6.3l-5.2-0.9q1.8-1.4 4.1-2.7c1.9-0.9 4.1-1.7 6.4-2.2l2.8 3.2-1.6-3.4c4.4-0.9 9-1 12.3-1-4.4-0.7-9.9-3-14-9q-7.9-11.8 0.3-23.7c0.7 3.6 1.8 6.8 3.1 9.9l-2.6 5.4 3.3-3.9c1.9 4.2 4.3 7.9 6.7 10.9q-2.2-6.6 4.6-23.6 2 6.2 3.4 14l-1.9 2.6 2.2-1.1q0.3 2 0.6 4l-4.3 3.8 4.7-0.6c0.3 3.4 0.5 6.9 0.2 10 6.1-6.6 10.8-14.7 14.5-23.2l1.7-4.3c5.5-14.2 8.2-29.4 9.6-41.3l0.5-4.9q0.2-2.6 0.3-4.8c-4.9 0.2-11.2-0.8-19.2-3.5l7.7-8.7-15 6c-5.5-2.3-11.7-5.3-18.7-9.2l-0.3-0.2q-4-2.2-8.3-4.8-0.5 0-1 0l-16.8 12.8-3.7-1 20.3-11.9c-18.4-1-32-1.7-41.8-2.2l103.9 4.6 205.6-4.6-7.8 15.1v3.3 4.6q-1.6 0.1-4.4 0.1z"/><path class="a" d="m870.9 228.5q0 0 0 0-0.1 1.1-0.2 2.2c-0.6 6.4-2 12.2-4.9 11.7q-0.4 0.1-0.9-0.3c-1.7-0.9-3.5-3.5-5.1-6.7q-1-1.6-1.9-3.6 0 0 0 0l-0.1-0.2q-0.2-0.4-0.4-0.8l-0.1-0.1c-1.8-4-3.5-8.7-4.6-13.5q-0.5-1.7-0.8-2.7l19.2 0.8q0 0.7 0 1.7l0.1 0.8c0 2.5 0 6.5-0.3 10.7z"/><path class="a" d="m1069.5 211.9h36.2q-21.1 11.1-36.2 0z"/><path class="a" d="m1051.7 211.9h9.4q-5.6 3.9-9.4 0z"/><path class="a" d="m835.2 226.9q-1.6 1.4-3.3 2.7l-0.2 0.1q0 0 0 0c-8.2 6.5-18.2 12.5-27.2 12.7q-1.5 0.2-2.9 0.1c-9.1-1.2-22-10.5-30.2-21.9v-0.1q0 0 0 0c-1.9-2.6-3.6-5.4-4.8-8.2q-0.5-0.9-0.8-1.3l82.4 3.3q-5.3 6.1-13 12.6z"/><path class="a" d="m717.3 225.4h-0.1q-1.2 0.5-2.5 1.1h-0.1q0 0 0 0c-6.4 2.5-14.3 4.9-21.3 5q-1.2 0.1-2.3 0c-7.1-0.4-17.2-4.1-23.5-8.6h-0.1q0 0 0 0c-1.4-1.1-2.7-2.2-3.7-3.3q-0.4-0.3-0.6-0.5l64.3 1.3q-4.1 2.4-10.1 5z"/><path class="b" d="m1131.5 191l-1.9-0.2c0.1-0.9 9.9-89.2 4.5-159.3l2-0.1c5.4 70.2-4.5 158.7-4.6 159.6z"/><path class="c" d="m1160.8 78.8c-5.2-4.2-9.9-11-13.9-18.2l1.9-5.4-3 3.3c-5.2-10.1-8.9-20.6-10.6-25.7q-0.7-2.1-1-3.3 0.9 0.6 1.8 1.3 0.2 0.1 0.4 0.3 22.9 17.2 24.4 47.7z"/><path class="c" d="m1134.7 29.3c0 0.1-0.4 1.3-1 3.3-1.7 5.1-5.4 15.6-10.6 25.6l-3-3.2 1.9 5.4c-4 7.2-8.7 14-13.9 18.1q0.8-16.3 10.2-31.7l5.8-2.7-4.4 0.5c3.2-5 7.4-9.7 12.7-13.7q0.3-0.2 0.5-0.3 0.9-0.7 1.8-1.3z"/><path class="c" d="m1136.1 32.7l-0.9 0.1-15.2 1.9v-5.2l-2.1 5.5-13.9 1.8 1.3-3.1-1.9 3.2-10.5 1.3c13.9-16.5 31.4-12.7 39.1-9.8h0.1c1.1 0.4 2.1 0.8 2.7 1.1q0.6 0.3 0.8 0.4 0.1 0 0.1 0 0.2 0.2 0.3 0.2v0.7z"/><path class="b" d="m1189.5 54.2l-25-10.9-1.5-3.8-0.2 3.1-26.1-11.3-0.3-0.2-0.4-0.3-0.9-0.7q0 0 0.1-0.1 0.1 0 0.3-0.1h0.1q0 0 0 0 0.2 0 0.4-0.1c0.5-0.1 1.2-0.2 2.2-0.4q0 0 0 0c5-1 15-2.6 24.8-1.1 5.2 0.7 10.4 4.8 14.7 9.4l-7.7 0.5 8.9 0.9q6.3 7.1 10.6 15.1z"/><path class="b" d="m1136 30.1l-0.4-0.1v-0.1h-0.1l-0.6-0.2-1.5-0.5-1.3-0.8h-0.1l-18.5-11.5 3.5-3.6-3.5-2.2-5.9 2.2-18.6-11.5q28.8-3.7 36.4 3 0.2 0.1 0.3 0.2l-0.9 6.1 2.4-4.4c4.5 5.4 7 14.7 8.1 19.8q0 0 0 0c0.4 1.7 0.6 2.8 0.7 3.3q0 0.1 0 0.1 0 0.1 0 0.2z"/><path class="b" d="m1157.4 15.4l-1.6 0.3 3.2 4.7c-6.5 3.7-13.8 7.1-20.8 8.9q0 0.1 0 0.1-1.1 0.3-2.2 0.5-0.2 0-0.3 0 0 0.1-0.1 0.1-0.2 0-0.4 0-0.1 0.1-0.1 0.1l-0.2-0.4-0.1-0.2-0.4-1q0.3-0.7 0.9-2 0 0 0 0c1.9-3.7 6.4-11.4 13.5-14.7 3.4-1.6 8.4-2.8 13.4-3.7l-1.9 3 3.5-3.2q8.5-1.4 16.7-1.9-7.5 6-17.6 12.2z"/><path class="d" d="m1200.8 221h-566.3q364.4-24.1 566.3-36.1z"/><path class="e" d="m1200.8 187l-325.1 18q48.6-1.7 325.1-24.3z"/><path class="b" d="m962.1 76q-0.2 0.3-0.7 0.7-0.2 0.2-0.4 0.4c-1.8 1.8-5.6 5.9-9.5 12-2.4 3.8-4.8 8.3-6.7 13.6l-3.2-4.9 2.5 6.8c-1.3 3.8-2.4 7.9-3 12.3q-8.3-14.8-0.3-29.5c4-7.5 9.5-10.3 13.9-11.2 1.7-0.4 3.2-0.5 4.4-0.5q0.1 0 0.1 0h0.3q0.8 0.1 1.4 0.1 0.8 0.1 1.2 0.2z"/><path class="b" d="m990.1 191.4h-2c0.1-0.8 1-80.7-29.9-117.1l1.6-1.3c31.3 37 30.4 117.6 30.3 118.4z"/><path class="b" d="m960.7 74.1q-0.1 0.1-0.3 0.3l-1.2 1.3q0 0.1-0.1 0.2 0 0 0 0-1.8 0.2-4.4 0.3c-3.3 0-7.8-0.2-12.3-1.2l1.6-4.3-2.7 4c-2.3-0.6-4.5-1.5-6.4-2.8q-2.4-1.5-4.2-3.3l5.3-1.1h-6.4c-4.6-5.1-6.3-10.5-6.4-10.9 0.3 0 8.2 1.6 16.9 4.6l3.9 8.4-2-7.7c6.9 2.6 13.9 6.1 17.5 10.5q0.7 0.9 1.2 1.7z"/><path class="b" d="m984.4 62.1l-6.8-1.4 5.9 1.9-8.4 4.6-6.2-1.3 3.8 2.6-8.4 4.6q0 0 0 0.1l-3.4 1.8-0.1 0.1-1.3 0.6h-0.1l-0.3 0.2q0 0 0 0 0-0.1 0-0.2c0-0.4 0.1-1.7 0.4-3.3 0.8-4.3 3.1-11.4 9.6-14q11.1-4.5 30.1-4.5z"/><path class="c" d="m960.8 90.3l-4.7-0.8 4.4 4.7q-0.3 2.6-0.7 5l-2.2-1.4 2 3.2q-1.5 9.8-3.5 17.5-6.7-21.2-4.6-29.4 0.1-0.1 0.1-0.3c1.7-5.5 5.3-10.4 7.5-12.9q0 0 0 0 0.1-0.1 0.1-0.2 0.7-0.7 1-1.1 0.3-0.3 0.5-0.5 0 0.3 0.1 0.6 0 0.2 0 0.4 0.1 0.3 0.1 0.7 0 0.4 0.1 0.8 0 0.2 0 0.5c0.3 4.1 0.2 8.7-0.2 13.2z"/><path class="c" d="m996.4 89l-19.1-6.7-1-4.9v4.5l-14.9-5.2-0.4-0.1-1.9-0.7q0 0 0 0 0.1-0.1 0.2-0.2c0.3-0.2 0.8-0.5 1.5-1 0.8-0.5 2-1.1 3.5-1.6 3.6-1.2 8.9-2 15.5 0.2q12.9 4.2 16.6 15.7z"/><path class="b" d="m1104.4 186.4c-0.2-0.5-13.2-53.5-57-76.7l1-1.7c44.6 23.6 57.8 77.4 57.9 77.9z"/><path class="b" d="m1069.3 88.7l-4.5-2.2-3 2.7 3.6 2.7q-0.9 0.8-1.7 1.5c-1.1-1.1-3.4-3.5-3.6-3.7l2.2 5.1c-5.4 5.2-8.8 10.1-10.5 12.8q-0.1 0-0.1 0-0.9 1.5-1.3 2.3-0.1-0.1-0.1-0.2-0.1-0.2-0.3-0.6 0-0.1 0-0.1 0 0-0.1-0.1 0-0.2-0.1-0.5c-0.4-1.2-1-3.1-1.1-5.4-0.2-4.5 1.2-10.7 7.6-16.5q12.4-11.3 28.7-6.7c-6.1 2.5-11.3 5.6-15.7 8.9z"/><path class="b" d="m1048.7 103c1.6 2.1 2.6 3.9 3 4.6q0.2 0.3 0.2 0.4l-0.5 2.3q-0.6 0.1-1.2 0.1-0.2 0-0.3 0l-0.1-0.1q-0.7 0-1.4-0.1-0.2 0-0.5 0c-3-0.5-6.4-1.8-9.8-3.6q-11.3-5.9-22.6-16.7 5.9-2.1 13.3-1l3.9 5.8-1.3-5.3q1.6 0.4 3.3 1.1c5.9 2.4 11 8.2 14 12.5z"/><path class="b" d="m1050.4 108.7q0 0 0 0l-0.4 0.3-1.2 0.9-0.4 0.3-2.8 2q0 0 0 0l-12 8.3-1.6-3 0.3 4-1.3 0.9-1.1-3.9-3.8 3.5 0.6 3.3-13.8 9.7q8.4-17.1 17.3-25c2.4-2.1 5.2-3.1 7.9-3.4 5.1-0.5 10 1.2 11.7 1.8q0.4 0.2 0.6 0.3z"/><path class="c" d="m1073.1 103.9l-2.5 2.5 3.7-1.8q6.1 4.4 11.6 11-3.2 0.2-7.9 0l-2.8-5.2-3.9-0.6 2.1 5.6c-7-0.5-15.7-1.8-23.2-4.9q-0.2-0.1-0.3-0.1l-0.1-0.1q-0.4-0.1-0.8-0.3 0.3-0.4 1-0.9 0.2-0.2 0.4-0.4 0.6-0.5 1.3-1.1 0 0 0.1 0c2.6-2.1 7.1-5.2 11.9-6.6 2.7-0.8 6.1 0.7 9.4 2.9z"/><path class="c" d="m1050.4 108.7l-0.1 1-0.1 0.7v0.1l-1.7 14-3.2 1.6 3-0.1-2.7 22q-8.6-8.4-6.7-21.9c1-6.8 4-11.3 6.7-13.9 0.8-0.9 1.6-1.5 2.3-2 0.9-0.7 1.6-1.1 2-1.3q0.4-0.2 0.5-0.2 0 0 0 0z"/><path class="e" d="m1196 187.3l-159.1 8.5q25.9-30.7 57.9-49.2l18.3 16.4 3.4-2.3-5.6-22c16.7-6.7 34.1-8.6 49.7-0.4l-8.7 42.4 11.3-40.9q2.8 1.7 5.5 3.9l-7.1 22.3 8.8-20.9c9.8 8.5 18.6 22.1 25.6 42.2z"/><path class="b" d="m1024.8 196.7l-83.3 4.6c10.8-8.2 20-14.1 27.9-18.1l16.6 8.2-9.3-11.7q37.8-15.8 37.1 16.9 11.5-14.9 11 0.1z"/><path class="b" d="m1200.8 175.1v11.9l-176 9.7q11.6-17.9 27.8-28.5l11.1 13.9-10-14.6c4.5-2.8 9.4-5 14.4-6.1l4.8 23.5 17.4 0.9 2-22q3.5 1 7 2.4l-4.5 15.9 8.1-14.5q19.7 8.3 37.5 21 34.3-16 60.4-13.5z"/><path class="b" d="m920.5 186.2l3.8-1.3 17.2 16.4z"/><path class="b" d="m1013.8 196.6l1.7-21.2h3l-4.1 21.3z"/><path class="f" d="m663.1 219.1q38.1-18 64.3-0.2z"/><path class="f" d="m729.4 219.1q7.3-5.1 12 0z"/><path class="f" d="m765.4 212.7q14-32.7 34-38.6 20-5.8 48.4 34.4z"/><path class="f" d="m851.5 208.3q7.6-33.6 13.9-34.8 6.3-1.1 5.3 33.7z"/><path class="f" d="m1069.1 211.5q15.1-13.9 36.2 0z"/><path class="f" d="m1060.7 211.5q-5.6-4.9-9.4 0z"/><path class="b" d="m1200.8 221l-562.7-0.2 562.7-1.9z"/><path class="g" d="m801.2 173.5c11.2-1.8 27.2 21.5 13.2 29.5q-14 7.9-48.2 8c6.6-18.4 23.7-35.7 35-37.5z"/><path class="g" d="m865.4 173.5c2.5 0.3 6.5 17.6 1.3 25.4q-5.2 7.8-14.4 6.1c2.9-16.4 10.6-31.7 13.1-31.5z"/><path class="g" d="m665.8 218q48.7 1.7 57.3-1.7-20.8-13.7-57.3 1.7z"/><path class="e" d="m1140.4 188.6q20.3-15.4 60.4-13.5v9.8z"/><path class="e" d="m1080.1 193.6l7.1-35.5h13.2l-7.7 34.6z"/><path class="e" d="m979.6 179l15.3 19.3-4.9 0.3-13.3-18.9z"/><path class="e" d="m941.5 201.3l9.2-6.7 13.7 5.4z"/><path class="e" d="m1002.1 197.9v-22l2.3 0.7-1.4 21.3z"/><path class="h" d="m975.5 106.5l1.8-0.8 1.9 5.8-1.9 0.7z"/><path class="h" d="m986.6 161.4l1.8-2.3 0.6 6.9-1.7 3.5z"/><path class="h" d="m1077.9 135l0.8-2.1 1.7 2.1-1.2 1.6z"/><path class="h" d="m1072.8 129.3l1.9-1 2.2 2.5v3z"/><path class="h" d="m1135.7 88.6l1.8-0.9v11l-2.1 2.1z"/><path class="i" d="m772.3 198.6q45.9-14.9 59-9.3l3.5 3.5q-25.5-7-63.8 8z"/><path class="i" d="m857.5 186.7q5.9-3.5 12.8 1.4l0.2 2.8q-5.7-5.1-13.6-2.8z"/><path class="i" d="m852.3 205l18.5-0.8-0.1 0.9z"/><path class="i" d="m678.1 219.1q8.5-7.1 15.7-8.2l2.4-0.2q-6.5 2.6-10.7 8.2z"/><path class="i" d="m692.8 219q2.7-6 8.2-8.3l1.3 0.1q-5.9 3-7.9 8.2z"/><path class="e" d="m1051.1 100.8l-1.2-5.1 2-4.2 0.6 4.7z"/><path class="e" d="m1042.5 106.5l2 2.1-11.4 5.2-5.1-1.6q5.5-6.8 14.5-5.7z"/><path class="e" d="m1039.3 93.1l0.4 7.1-7-5.5-1.3-5.3q2.6 0.6 7.9 3.7z"/><path class="e" d="m1040.8 100.8l0.7-6 1.5 1.5-1.1 5.3z"/><path class="e" d="m1012.9 135l13.2-13 0.6 3.3z"/><path class="e" d="m968.3 63.4l10.3 1.5-3.5 2.3-8.7-1.9z"/><path class="e" d="m973.2 61.1l10.3 1.5-4.2 2.2-10.1-2.3z"/><path class="e" d="m984.4 62.1l-9.2-1.9 24-6.3z"/><path class="e" d="m944.8 102.7l-4.7-7 1.1-4.7 7.2 3.8z"/><path class="e" d="m948.8 93.8l-6-4.8 0.6-1.3 6.6 4z"/><path class="j" d="m1 196.9q112.9 7.6 455.6 24.1h-455.6z"/><path class="e" d="m210.8 210.4l-209.8-12q21.2-17.5 51.1-30.4l7.9 12.4-3.7-14.2q6.1-2.5 12.6-4.6l2.6 20.7h12.9l1.8-25.4q1.5-0.3 3-0.5l-2.2 24 6-24.7c9.9-1.5 20.1-1.9 30.3-0.8 13.7 1.6 25.7 5.3 36 10l-10.2 27.9 14.6-25.8q1.5 0.8 2.9 1.5l-5.1 10.3 7.2-9.1q29 16.7 42.1 40.7z"/><path class="b" d="m458.2 220.9l-191.6-8q22.9-14.7 52.1-13.2c4.8 0.2 9.1 0.8 13.1 1.7l-8.2 10.9 11.9-10.1q1.7 0.5 3.3 1l-11.8 9.1 5.7 0.8 15.6-6.4q9.9 4.6 15 9.7 5.3-1.5 14.5-2.7l1.4 3.5v-3.6c10.2-1.1 24.7-1.7 42 0.6l-9.4 4.9 16.3-3.9c8.9 1.5 20.2 2.4 30.1 5.7z"/><path class="b" d="m1 198.4l455.6 22.6-455.6-19.4z"/><path class="b" d="m133.6 205.1c-0.1-0.9-10-89.4-4.6-159.6l1.9 0.1c-5.3 70.1 4.5 158.4 4.6 159.3z"/><path class="c" d="m128.6 45.2q0.3-0.2 0.5-0.3 0.9-0.7 1.8-1.3-0.3 1.2-1 3.3c-1.7 5.1-5.4 15.6-10.6 25.7l-3-3.3 1.9 5.4c-4 7.2-8.7 14-13.9 18.1q1.5-30.4 24.3-47.6z"/><path class="c" d="m132.2 44.7q0.2 0.1 0.4 0.3c5.4 4 9.6 8.7 12.8 13.6l-4.4-0.4 5.8 2.6q9.4 15.5 10.2 31.8c-5.2-4.1-9.9-10.9-13.9-18.1l1.9-5.4-3 3.2c-5.2-10-8.9-20.5-10.6-25.7-0.6-1.9-1-3.1-1-3.2q0.9 0.6 1.8 1.3z"/><path class="c" d="m129.1 44.9v-0.7q0.1 0 0.3-0.2 0 0 0 0 0.3-0.1 0.9-0.4c0.6-0.3 1.6-0.7 2.7-1.1l0.1-0.1c7.7-2.8 25.2-6.6 39 9.9l-10.4-1.3-1.9-3.2 1.3 3.1-13.9-1.8-2.2-5.5v5.2l-15.1-1.9-0.9-0.2z"/><path class="b" d="m86.2 53.2l8.9-0.9-7.7-0.5c4.3-4.6 9.5-8.7 14.7-9.4 9.8-1.5 19.8 0.1 24.8 1.1q0 0 0 0c0.9 0.1 1.7 0.3 2.2 0.4q0.2 0.1 0.3 0.1 0.1 0 0.1 0 0.3 0.1 0.4 0.1 0.1 0 0.1 0.1l-0.9 0.7-0.5 0.3-0.2 0.2-26.1 11.3-0.2-3.1-1.5 3.8-25 10.9q4.3-8 10.6-15.1z"/><path class="b" d="m129.1 44q0 0 0-0.1c0.1-0.5 0.3-1.6 0.7-3.3q0 0 0 0c1.1-5.1 3.6-14.4 8-19.8l2.5 4.4-0.9-6.1q0.1-0.1 0.3-0.3 7.6-6.6 36.4-2.9l-18.6 11.5-5.9-2.2-3.5 2.2 3.5 3.6-18.5 11.4-0.1 0.1-1.3 0.8-1.5 0.5-0.7 0.2v0.1l-0.4 0.1q0-0.1 0-0.2z"/><path class="b" d="m102.2 32.3q-10.1-6.2-17.6-12.2 8.2 0.5 16.7 1.9l3.5 3.2-1.9-3c5 0.9 10 2.1 13.4 3.6 7 3.3 11.6 11.1 13.5 14.8q0 0 0 0 0.6 1.3 0.9 2l-0.4 1-0.1 0.2-0.2 0.4q0-0.1-0.1-0.1-0.2 0-0.4 0-0.1-0.1-0.1-0.1-0.2 0-0.3 0-1.1-0.3-2.2-0.5 0 0-0.1-0.1c-7-1.8-14.2-5.2-20.8-8.9l3.3-4.7-1.6-0.3z"/><path class="b" d="m201 91.1q0.6-0.1 1.4-0.1h0.2q0.1-0.1 0.2-0.1c1.2 0 2.7 0.1 4.3 0.5h0.1c4.3 0.9 9.8 3.7 13.9 11.2q7.9 14.7-0.3 29.5c-0.7-4.4-1.8-8.5-3.1-12.3l2.6-6.8-3.2 4.9c-2-5.2-4.4-9.8-6.8-13.5-3.8-6.2-7.6-10.3-9.5-12.1q-0.2-0.2-0.4-0.3-0.4-0.5-0.7-0.7 0.5-0.1 1.3-0.2z"/><path class="b" d="m173.7 206.9l-2-0.5c0.2-0.8 20.8-72.9 30.2-117.8l1.9 0.5c-9.4 44.9-29.9 117.1-30.1 117.8z"/><path class="b" d="m202.3 87.7c3.6-4.4 10.6-7.9 17.5-10.5l-2 7.6 4-8.3c8.6-3.1 16.6-4.6 16.8-4.7-0.1 0.4-1.7 5.8-6.4 10.9h-6.3l5.2 1.1q-1.8 1.8-4.1 3.4c-1.9 1.2-4.1 2.1-6.4 2.7l-2.8-4 1.6 4.3c-4.4 1.1-9 1.3-12.2 1.2h-0.1q-2.6-0.1-4.3-0.3-0.1 0-0.1 0 0-0.1-0.1-0.1l-1.1-1.3q-0.2-0.2-0.3-0.3 0.5-0.9 1.1-1.7z"/><path class="b" d="m199.4 89.3c-3.1-4.7-4.4-12.4-4.9-19.8l6.7 4.1-6.8-6.2c-0.3-9.1 0.5-17.2 0.6-17.4 0.3 0.2 5 3.4 8.5 9.3l-1.9 6.1 2.6-4.7q1.2 2.2 2 4.9c0.6 2.2 0.8 4.6 0.7 7l-4.6 1.4 4.6-0.3c-0.3 4.6-1.5 9-2.5 12.1q-0.8 2.5-1.5 4.1h-0.1q0 0 0 0-0.1 0.1-0.2 0.1l-1.5 0.7q-0.3 0.2-0.4 0.2-0.7-0.7-1.3-1.6z"/><path class="b" d="m162.6 69.1q19 0 30.1 4.5c6.5 2.6 8.8 9.7 9.6 14.1 0.3 1.6 0.4 2.8 0.5 3.2q0 0.2 0 0.2-0.1 0-0.1 0l-0.3-0.1-1.4-0.7-0.1-0.1-3.3-1.8q0 0 0 0l-8.5-4.7 3.9-2.6-6.2 1.3-8.5-4.6 4.4-1-5.2 0.5z"/><path class="c" d="m200.8 92.3q0.1-0.2 0.1-0.5 0-0.4 0.1-0.7 0-0.4 0-0.8 0.1-0.2 0.1-0.3 0-0.3 0.1-0.6 0.1 0.1 0.4 0.4 0.4 0.4 1 1.2 0.1 0 0.1 0.1 0 0 0.1 0c2.1 2.5 5.8 7.5 7.4 12.9q0.1 0.2 0.1 0.4 2.2 8.2-4.6 29.3-2-7.7-3.4-17.4l1.9-3.3-2.2 1.5q-0.3-2.5-0.6-5l4.3-4.8-4.7 0.8c-0.4-4.5-0.5-9.1-0.2-13.2z"/><path class="c" d="m182 88.5c6.7-2.1 12-1.4 15.6-0.1 1.4 0.5 2.6 1.1 3.5 1.6 0.7 0.4 1.2 0.7 1.4 1q0.2 0.1 0.2 0.1 0 0 0.1 0l-1.9 0.7-0.5 0.2-14.9 5.2v-4.6l-1 4.9-19.1 6.7q3.7-11.5 16.6-15.7z"/><path class="b" d="m116.6 201.8c-0.1-0.5-13.1-53.5-56.9-76.6l1-1.8c44.5 23.6 57.8 77.4 57.9 78z"/><path class="b" d="m78.5 105.9l-4.4-1.2 3.6 2.6q-0.9 0.8-1.7 1.6c-1.1-1.2-3.5-3.6-3.6-3.7l2.2 5c-5.4 5.2-8.8 10.1-10.6 12.8q0 0 0 0-0.9 1.5-1.3 2.3-0.1 0-0.1-0.2-0.1-0.2-0.3-0.6 0 0 0-0.1 0 0-0.1-0.1 0-0.2-0.1-0.4c-0.5-1.2-1-3.1-1.1-5.5-0.2-4.5 1.1-10.6 7.6-16.5q12.3-11.2 28.7-6.7c-6.1 2.5-14.4 7.4-18.8 10.7z"/><path class="b" d="m61 118.4c1.6 2.2 2.6 3.9 3 4.6q0.2 0.3 0.2 0.4l-0.5 2.3q-0.6 0.1-1.2 0.1-0.2 0-0.4 0-0.7 0-1.4-0.1-0.3-0.1-0.5-0.1c-3.1-0.5-6.4-1.8-9.8-3.5q-11.3-6-22.6-16.8 5.9-2.1 13.3-1l3.8 5.8-1.2-5.2q1.6 0.4 3.3 1c5.9 2.4 11 8.2 14 12.5z"/><path class="b" d="m62.7 124.1q0 0 0 0l-0.4 0.3-1.2 1-0.4 0.3-0.1-0.1-2.7 2q0 0-0.1 0l-11.9 8.3-1.6-3 0.3 4-1.4 0.9-4.2 3-13.8 9.6q8.4-17 17.3-25c2.4-2.1 5.2-3.1 7.9-3.3 5.1-0.6 10 1.1 11.7 1.8q0.4 0.1 0.6 0.2z"/><path class="c" d="m85.4 119.3l-2.5 2.5 3.7-1.7q6 4.4 11.6 11-3.2 0.1-8 0l-6.6-5.9 2.1 5.6c-7-0.5-15.7-1.8-23.2-4.9q-0.2-0.1-0.4-0.1-0.4-0.2-0.8-0.4 0.3-0.3 1-0.9 0.2-0.2 0.4-0.4 0.5-0.5 1.3-1.1 0 0 0 0c2.7-2.1 7.2-5.1 12-6.5 2.7-0.8 6.1 0.6 9.4 2.8z"/><path class="c" d="m62.7 124.1l-0.1 1-0.1 0.7v0.1l-1.7 14-3.2 1.6h3l-2.7 21.9q-8.7-8.4-6.7-21.8c1-6.9 4-11.3 6.7-14 0.8-0.8 1.6-1.5 2.3-2 0.9-0.6 1.6-1.1 2-1.3q0.4-0.1 0.5-0.2 0 0 0 0z"/><path class="b" d="m266.6 212.9l-265.9-13.2 0.3-24.6q65.7 5.6 144.8 30.4 23.9-28.2 64.4-16.2l-4.5 17.5 7.2-16.7c10.9 3.7 23 10.3 36.1 21.1q6-8.6 17.6 1.7z"/><path class="b" d="m246.9 211l3.8-14.1 1.1 0.6-4.3 13.5z"/><path class="f" d="m68.3 204.5q8.7-15.8 37.6 1.6z"/><path class="f" d="m114.6 218.9q6.2-3.6 10.1 0z"/><path class="f" d="m128.3 218.1q11.7-10.7 22.5-0.8z"/><path class="b" d="m1 222.9v-1.9l426.7-0.1z"/><path class="g" d="m102.7 204.2q-12.2 1.9-21 0.8-8.9-1.2-8.3-5 12.7-6.5 29.3 4.2z"/><path class="g" d="m129.3 217.3q17.3 0.5 20.5-0.9-7.8-7.5-20.5 0.9z"/><path class="e" d="m205.7 210.4l9.8-19.3 9.7 4.2-9.8 15.5z"/><path class="e" d="m223 211.1l9.9-11.5 2.1 1.3-9.8 10.2z"/><path class="e" d="m292.1 214l2.8-19.1 23.9-1.9-5.7 21.9z"/><path class="e" d="m19.2 202.3l-11.2-27.2 12 1.5 12.9 26.3z"/><path class="e" d="m43.9 203.4l-5-23.2 5 0.8 7 22.7z"/><path class="h" d="m187.8 147.3l2-7.8 2.4-1.2-2.6 10z"/><path class="h" d="m129.9 46.9l0.9 0.1-1.2 27-2-1.3 1-22z"/><path class="h" d="m70.9 129.7l0.3 2.6-8.8-5.7 0.1-0.8 5.8 2.1z"/><path class="e" d="m48.8 106.8l2.1 8.9-5.9-4.5-1.3-6.3z"/><path class="e" d="m51.9 116l-1.5-8.3 0.8 0.5z"/><path class="e" d="m102.3 56.7l-0.5-6.5 3-1.5v6.9z"/><path class="e" d="m105.3 55.4v-7.5l9.8-3.7 2.2 6z"/><path class="e" d="m112.6 24.5l0.3 4.5-8.1-3.8-1.9-3z"/><path class="e" d="m204.8 59.6l1.5 6.6-4.7 5.4v-6.2z"/><path class="e" d="m201.6 72.4l5.1-4.2 0.8 4.2-5.2 1.6z"/><path class="e" d="m225.9 75.1l-6.1 8.3-2 1.4 4-8.3z"/><path class="e" d="m233.1 73.1l-11.9 9.8 6.7-8.4z"/><path class="e" d="m168.7 71.8l11.6 2.2 4.7 2.3-7.5 1z"/></svg>