<svg version="1.2" xmlns="http://www.w3.org/2000/svg" viewBox="0 0 1659 304" width="1659" height="304"><defs><linearGradient id="P" gradientUnits="userSpaceOnUse"/><linearGradient id="g1" x1="1663" y1="92.8" x2="1663" y2="275.9" href="#P"><stop offset="0" stop-color="#e7eae1"/><stop offset="1" stop-color="#7b93f5"/></linearGradient><linearGradient id="g2" x1="4" y1="227.7" x2="4" y2="227.8" href="#P"><stop stop-color="#1919a2"/><stop offset="1" stop-color="#fff"/></linearGradient><linearGradient id="g3" x1="1277.5" y1="-18.8" x2="1270.5" y2="330.9" href="#P"><stop stop-color="#1919a2"/><stop offset="1" stop-color="#fff"/></linearGradient><linearGradient id="g4" x1="1329.8" y1="153.8" x2="1328.4" y2="155.7" href="#P"><stop stop-color="#1919a2"/><stop offset="1" stop-color="#fff"/></linearGradient><linearGradient id="g5" x1="1197.7" y1="50.4" x2="1119.8" y2="247.3" href="#P"><stop stop-color="#1919a2"/><stop offset="1" stop-color="#fff"/></linearGradient><linearGradient id="g6" x1="1203" y1="98.6" x2="1142.2" y2="252.5" href="#P"><stop stop-color="#1919a2"/><stop offset="1" stop-color="#fff"/></linearGradient><linearGradient id="g7" x1="1318.6" y1="152.9" x2="1318.6" y2="151.8" href="#P"><stop stop-color="#1919a2"/><stop offset="1" stop-color="#fff"/></linearGradient><linearGradient id="g8" x1="1601.8" y1="-191.7" x2="1520.8" y2="493" href="#P"><stop stop-color="#1919a2"/><stop offset="1" stop-color="#fff"/></linearGradient><linearGradient id="g9" x1="617.5" y1="-39" x2="648.4" y2="429.2" href="#P"><stop stop-color="#1919a2"/><stop offset="1" stop-color="#fff"/></linearGradient><linearGradient id="g10" x1="873.9" y1="-204.3" x2="1041.3" y2="417.1" href="#P"><stop stop-color="#1919a2"/><stop offset="1" stop-color="#fff"/></linearGradient><linearGradient id="g11" x1="1052.8" y1="-51.2" x2="1051.2" y2="466.7" href="#P"><stop stop-color="#1919a2"/><stop offset="1" stop-color="#fff"/></linearGradient><linearGradient id="g12" x1="1172.2" y1="-30.4" x2="1182.4" y2="297.1" href="#P"><stop stop-color="#1919a2"/><stop offset="1" stop-color="#fff"/></linearGradient><linearGradient id="g13" x1="1138" y1="337.3" x2="1190.3" y2="133.5" href="#P"><stop stop-color="#1919a2"/><stop offset="1" stop-color="#fff"/></linearGradient><linearGradient id="g14" x1="990.8" y1="280.1" x2="990.9" y2="277.2" href="#P"><stop stop-color="#1919a2"/><stop offset="1" stop-color="#fff"/></linearGradient><linearGradient id="g15" x1="848.4" y1="233.7" x2="963.9" y2="92.4" href="#P"><stop stop-color="#1919a2"/><stop offset="1" stop-color="#fff"/></linearGradient><linearGradient id="g16" x1="934.1" y1="328" x2="1208.3" y2="61.7" href="#P"><stop stop-color="#1919a2"/><stop offset="1" stop-color="#fff"/></linearGradient><linearGradient id="g17" x1="736.3" y1="127.8" x2="842.1" y2="25" href="#P"><stop stop-color="#1919a2"/><stop offset="1" stop-color="#fff"/></linearGradient><linearGradient id="g18" x1="604" y1="387" x2="682" y2="117.2" href="#P"><stop stop-color="#1919a2"/><stop offset="1" stop-color="#fff"/></linearGradient><linearGradient id="g19" x1="853.7" y1="-141.4" x2="813.6" y2="203.9" href="#P"><stop stop-color="#1919a2"/><stop offset="1" stop-color="#fff"/></linearGradient><linearGradient id="g20" x1="946.3" y1="111.5" x2="938.3" y2="230" href="#P"><stop stop-color="#1919a2"/><stop offset="1" stop-color="#fff"/></linearGradient><linearGradient id="g21" x1="212" y1="790.8" x2="446" y2="-18.6" href="#P"><stop stop-color="#1919a2"/><stop offset="1" stop-color="#fff"/></linearGradient><linearGradient id="g22" x1="1380.8" y1="276.7" x2="718.4" y2="290.2" href="#P"><stop stop-color="#1919a2"/><stop offset="1" stop-color="#fff"/></linearGradient><linearGradient id="g23" x1="483.8" y1="251.1" x2="671.8" y2="116" href="#P"><stop stop-color="#1919a2"/><stop offset="1" stop-color="#fff"/></linearGradient><linearGradient id="g24" x1="1084.4" y1="264.5" x2="1286" y2="119.6" href="#P"><stop stop-color="#1919a2"/><stop offset="1" stop-color="#fff"/></linearGradient><linearGradient id="g25" x1="1126.1" y1="212.1" x2="1143.2" y2="137.1" href="#P"><stop stop-color="#1919a2"/><stop offset="1" stop-color="#fff"/></linearGradient><linearGradient id="g26" x1="1144.9" y1="221.6" x2="1163.9" y2="138.5" href="#P"><stop stop-color="#1919a2"/><stop offset="1" stop-color="#fff"/></linearGradient><linearGradient id="g27" x1="566.8" y1="186.3" x2="829.4" y2="168.8" href="#P"><stop stop-color="#1919a2"/><stop offset="1" stop-color="#fff"/></linearGradient><linearGradient id="g28" x1="1179.4" y1="182.8" x2="1668.6" y2="150.3" href="#P"><stop stop-color="#1919a2"/><stop offset="1" stop-color="#fff"/></linearGradient><linearGradient id="g29" x1="1245.7" y1="125.6" x2="1543" y2="105.8" href="#P"><stop stop-color="#1919a2"/><stop offset="1" stop-color="#fff"/></linearGradient><linearGradient id="g30" x1="1470.7" y1="66.6" x2="1452.1" y2="95.6" href="#P"><stop stop-color="#1919a2"/><stop offset="1" stop-color="#fff"/></linearGradient><linearGradient id="g31" x1="1565.6" y1="-31.8" x2="1510.9" y2="296.1" href="#P"><stop stop-color="#1919a2"/><stop offset="1" stop-color="#fff"/></linearGradient><linearGradient id="g32" x1="4" y1="225.7" x2="4" y2="225.8" href="#P"><stop stop-color="#1919a2"/><stop offset="1" stop-color="#fff"/></linearGradient><linearGradient id="g33" x1="334.5" y1="51.5" x2="409.8" y2="330.8" href="#P"><stop stop-color="#1919a2"/><stop offset="1" stop-color="#fff"/></linearGradient><linearGradient id="g34" x1="557.2" y1="-44.2" x2="380.8" y2="278.9" href="#P"><stop stop-color="#1919a2"/><stop offset="1" stop-color="#fff"/></linearGradient><linearGradient id="g35" x1="664.1" y1="-18.2" x2="475.7" y2="326.9" href="#P"><stop stop-color="#1919a2"/><stop offset="1" stop-color="#fff"/></linearGradient><linearGradient id="g36" x1="1261.3" y1="441" x2="1327.8" y2="123.4" href="#P"><stop stop-color="#1919a2"/><stop offset="1" stop-color="#fff"/></linearGradient><linearGradient id="g37" x1="1401.7" y1="473.9" x2="1471.7" y2="139.1" href="#P"><stop stop-color="#1919a2"/><stop offset="1" stop-color="#fff"/></linearGradient><linearGradient id="g38" x1="1264.9" y1="439.3" x2="1331.9" y2="118.9" href="#P"><stop stop-color="#1919a2"/><stop offset="1" stop-color="#fff"/></linearGradient><linearGradient id="g39" x1="1441.6" y1="-15.7" x2="1416.7" y2="133.5" href="#P"><stop stop-color="#1919a2"/><stop offset="1" stop-color="#fff"/></linearGradient><linearGradient id="g40" x1="1488.1" y1="355" x2="1559" y2="94.8" href="#P"><stop stop-color="#1919a2"/><stop offset="1" stop-color="#fff"/></linearGradient><linearGradient id="g41" x1="1160.8" y1="461.6" x2="1246.3" y2="102.7" href="#P"><stop stop-color="#1919a2"/><stop offset="1" stop-color="#fff"/></linearGradient><linearGradient id="g42" x1="690.6" y1="384.4" x2="1011.5" y2="47" href="#P"><stop stop-color="#1919a2"/><stop offset="1" stop-color="#fff"/></linearGradient><linearGradient id="g43" x1="51.6" y1="344.2" x2="253.9" y2="55.7" href="#P"><stop stop-color="#1919a2"/><stop offset="1" stop-color="#fff"/></linearGradient><linearGradient id="g44" x1="231.2" y1="463" x2="309.7" y2="136.7" href="#P"><stop stop-color="#1919a2"/><stop offset="1" stop-color="#fff"/></linearGradient><linearGradient id="g45" x1="327.8" y1="419.2" x2="447.5" y2="35.6" href="#P"><stop stop-color="#1919a2"/><stop offset="1" stop-color="#fff"/></linearGradient><linearGradient id="g46" x1="-0.8" y1="317.6" x2="-5.6" y2="174.4" href="#P"><stop stop-color="#9fc0fc"/><stop offset=".5" stop-color="#5d6fc0"/><stop offset="1" stop-color="#00043f"/></linearGradient><linearGradient id="g47" x1="672.7" y1="203.9" x2="672.7" y2="203.8" href="#P"><stop stop-color="#794993"/><stop offset="1" stop-color="#dbb719"/></linearGradient><linearGradient id="g48" x1="42.4" y1="287.9" x2="52.7" y2="127.6" href="#P"><stop stop-color="#794993"/><stop offset="1" stop-color="#dbb719"/></linearGradient><linearGradient id="g49" x1="1207.3" y1="307.6" x2="1246.7" y2="184.9" href="#P"><stop stop-color="#794993"/><stop offset="1" stop-color="#dbb719"/></linearGradient><linearGradient id="g50" x1="1146.7" y1="286.2" x2="1183.3" y2="172.4" href="#P"><stop stop-color="#794993"/><stop offset="1" stop-color="#dbb719"/></linearGradient><linearGradient id="g51" x1="1185.3" y1="276.9" x2="1215" y2="184.4" href="#P"><stop stop-color="#794993"/><stop offset="1" stop-color="#dbb719"/></linearGradient><linearGradient id="g52" x1="779.2" y1="347.4" x2="853.6" y2="140.1" href="#P"><stop stop-color="#794993"/><stop offset="1" stop-color="#dbb719"/></linearGradient><linearGradient id="g53" x1="612" y1="306.5" x2="696.5" y2="71.1" href="#P"><stop stop-color="#794993"/><stop offset="1" stop-color="#dbb719"/></linearGradient><linearGradient id="g54" x1="744" y1="343.7" x2="824.2" y2="120.3" href="#P"><stop stop-color="#794993"/><stop offset="1" stop-color="#dbb719"/></linearGradient><linearGradient id="g55" x1="380.7" y1="272.2" x2="392.8" y2="214.5" href="#P"><stop stop-color="#794993"/><stop offset="1" stop-color="#dbb719"/></linearGradient><linearGradient id="g56" x1="592.9" y1="184.1" x2="603.1" y2="152.2" href="#P"><stop stop-color="#794993"/><stop offset="1" stop-color="#dbb719"/></linearGradient><linearGradient id="g57" x1="638" y1="199.2" x2="648.3" y2="167.1" href="#P"><stop stop-color="#794993"/><stop offset="1" stop-color="#dbb719"/></linearGradient><linearGradient id="g58" x1="282.9" y1="225.1" x2="283.5" y2="215.3" href="#P"><stop stop-color="#794993"/><stop offset="1" stop-color="#dbb719"/></linearGradient><linearGradient id="g59" x1="257.9" y1="210.9" x2="260.9" y2="226.3" href="#P"><stop stop-color="#794993"/><stop offset="1" stop-color="#dbb719"/></linearGradient><linearGradient id="g60" x1="1419" y1="310.1" x2="1458.7" y2="186.6" href="#P"><stop stop-color="#794993"/><stop offset="1" stop-color="#dbb719"/></linearGradient><linearGradient id="g61" x1="1343" y1="336.7" x2="1406" y2="140.8" href="#P"><stop stop-color="#794993"/><stop offset="1" stop-color="#dbb719"/></linearGradient></defs><style>.a{fill:url(#g1)}.b{opacity:.7;mix-blend-mode:multiply;fill:url(#g2)}.c{opacity:.7;mix-blend-mode:multiply;fill:url(#g3)}.d{opacity:.7;mix-blend-mode:multiply;fill:url(#g4)}.e{opacity:.7;mix-blend-mode:multiply;fill:url(#g5)}.f{opacity:.7;mix-blend-mode:multiply;fill:url(#g6)}.g{opacity:.7;mix-blend-mode:multiply;fill:url(#g7)}.h{opacity:.7;mix-blend-mode:multiply;fill:url(#g8)}.i{opacity:.7;mix-blend-mode:multiply;fill:url(#g9)}.j{opacity:.7;mix-blend-mode:multiply;fill:url(#g10)}.k{opacity:.7;mix-blend-mode:multiply;fill:url(#g11)}.l{opacity:.7;mix-blend-mode:multiply;fill:url(#g12)}.m{opacity:.7;mix-blend-mode:multiply;fill:url(#g13)}.n{opacity:.7;mix-blend-mode:multiply;fill:url(#g14)}.o{opacity:.7;mix-blend-mode:multiply;fill:url(#g15)}.p{opacity:.7;mix-blend-mode:multiply;fill:url(#g16)}.q{opacity:.7;mix-blend-mode:multiply;fill:url(#g17)}.r{opacity:.7;mix-blend-mode:multiply;fill:url(#g18)}.s{opacity:.7;mix-blend-mode:multiply;fill:url(#g19)}.t{opacity:.7;mix-blend-mode:multiply;fill:url(#g20)}.u{opacity:.7;mix-blend-mode:multiply;fill:url(#g21)}.v{opacity:.7;mix-blend-mode:multiply;fill:url(#g22)}.w{opacity:.7;mix-blend-mode:multiply;fill:url(#g23)}.x{opacity:.7;mix-blend-mode:multiply;fill:url(#g24)}.y{opacity:.7;mix-blend-mode:multiply;fill:url(#g25)}.z{opacity:.7;mix-blend-mode:multiply;fill:url(#g26)}.A{opacity:.7;mix-blend-mode:multiply;fill:url(#g27)}.B{opacity:.7;mix-blend-mode:multiply;fill:url(#g28)}.C{opacity:.7;mix-blend-mode:multiply;fill:url(#g29)}.D{opacity:.7;mix-blend-mode:multiply;fill:url(#g30)}.E{opacity:.7;mix-blend-mode:multiply;fill:url(#g31)}.F{opacity:.7;mix-blend-mode:multiply;fill:url(#g32)}.G{opacity:.7;mix-blend-mode:multiply;fill:url(#g33)}.H{opacity:.7;mix-blend-mode:multiply;fill:url(#g34)}.I{opacity:.7;mix-blend-mode:multiply;fill:url(#g35)}.J{opacity:.7;mix-blend-mode:multiply;fill:url(#g36)}.K{opacity:.7;mix-blend-mode:multiply;fill:url(#g37)}.L{opacity:.7;mix-blend-mode:multiply;fill:url(#g38)}.M{opacity:.7;mix-blend-mode:multiply;fill:url(#g39)}.N{opacity:.7;mix-blend-mode:multiply;fill:url(#g40)}.O{opacity:.7;mix-blend-mode:multiply;fill:url(#g41)}.P{opacity:.7;mix-blend-mode:multiply;fill:url(#g42)}.Q{opacity:.7;mix-blend-mode:multiply;fill:url(#g43)}.R{opacity:.7;mix-blend-mode:multiply;fill:url(#g44)}.S{opacity:.7;mix-blend-mode:multiply;fill:url(#g45)}.T{mix-blend-mode:screen;fill:url(#g46)}.U{opacity:.8;mix-blend-mode:multiply;fill:url(#g47)}.V{opacity:.8;mix-blend-mode:multiply;fill:url(#g48)}.W{opacity:.8;mix-blend-mode:multiply;fill:url(#g49)}.X{opacity:.8;mix-blend-mode:multiply;fill:url(#g50)}.Y{opacity:.8;mix-blend-mode:multiply;fill:url(#g51)}.Z{opacity:.8;mix-blend-mode:multiply;fill:url(#g52)}.a0{opacity:.8;mix-blend-mode:multiply;fill:url(#g53)}.a1{opacity:.8;mix-blend-mode:multiply;fill:url(#g54)}.a2{opacity:.8;mix-blend-mode:multiply;fill:url(#g55)}.a3{opacity:.8;mix-blend-mode:multiply;fill:url(#g56)}.a4{opacity:.8;mix-blend-mode:multiply;fill:url(#g57)}.a5{opacity:.8;mix-blend-mode:multiply;fill:url(#g58)}.a6{opacity:.8;mix-blend-mode:multiply;fill:url(#g59)}.a7{opacity:.8;mix-blend-mode:multiply;fill:url(#g60)}.a8{opacity:.8;mix-blend-mode:multiply;fill:url(#g61)}.a9{fill:#70632f}</style><path class="a" d="m1659 223l-2 27.2-0.6 24.6q-93.9 0-103 0h-0.9c-3.3 0-7.1 0.1-11.5 0.1h-1.3q-0.3 0-0.5 0h-6.1c-0.4 0-0.7 0-1.1 0h-8.9q-0.3 0.1-0.6 0.1h-7.6q-0.4 0-0.9 0h-8.3q-0.4 0-0.9 0h-6.8q-0.6 0.1-1.2 0.1h-5.7q-1.8 0-3.6 0h-7.5q-2 0-4.1 0h-5.1q-0.7 0.1-1.5 0h-7.7c-0.5 0.1-1 0.1-1.4 0.1h-5.9q-4 0-8.1 0h-1.6c-1 0-1.9 0-2.9 0h-7.8q-1.3 0.1-2.6 0.1h-6.7q-1.8 0-3.5 0h-5.6q-0.9 0-1.9 0h-7c-0.2 0-0.3 0.1-0.5 0.1h-8q-1.3 0-2.5 0h-7.4q-0.9 0-1.8 0h-9c-0.5 0-1 0-1.5 0h-5.6q-1.2 0-2.3 0.1h-9c-1 0-2 0-3.1 0h-7.2q-2.7 0-5.4 0h-4.8q-0.8 0-1.6 0.1h-9.8q-0.6 0-1.2 0h-2.8-2.7q-1.7 0-3.4 0-9.7 0.1-19.6 0.1-14.7 0-29.8 0h-0.1q-5.3 0.1-10.6 0.1-3.6 0-7.2 0-3.6 0-7.3 0-4.5 0-9 0.1-2.3 0-4.6 0-2.3 0-4.6 0-2.8 0-5.5 0h-0.1q-2.7 0-5.5 0-1.8 0-3.7 0-1.9 0-3.7 0c-3.8 0-7.5 0.1-11.2 0.1q-2.9 0-5.7 0-8.5 0-17 0h-7.7q-3.8 0-7.6 0-3.8 0.1-7.7 0.1c-24.7 0-49.9 0.1-75.3 0.1h-0.1q-12.5 0.1-25.1 0.1h-0.6q-14.7 0-29.4 0-1.7 0-3.4 0-3.7 0.1-7.5 0.1-6.2 0-12.4 0h-0.2q-10.9 0-21.8 0h-8.2q-2.9 0-5.7 0.1-8.5 0-16.8 0-18.2 0-36.3 0-4.4 0.1-8.7 0.1c-8.3 0-18.8 0-30.9 0.1-14.5 0.1-31.4 0.3-49.9 0.5h-0.4c-54.6 0.5-122.9 1.4-183.7 2.1-33.3 0.4-64.3 0.8-89.7 1-20.8 0.2-37.7 0.3-49 0.3h-3.5c-39.7 0-76-0.1-107.2-0.2h-5.6c-0.7 0-1.4 0-2.1 0h-5.4q-1-0.1-2-0.1h-2.7q-1.6 0-3.3 0h-5.7q-0.5 0-1 0-2.4 0-4.7 0h-0.5c-6-0.1-11.7-0.1-17.1-0.2h-2.9q-1.4 0-2.7 0-1.4 0-2.7 0h-3.2q-0.7-0.1-1.5 0h-1.6q-0.7 0-1.4-0.1h-2q-2.3 0-4.4 0-0.7 0-1.4 0h-1.9q-0.7-0.1-1.3-0.1h-1.4q-0.6 0-1.3 0h-1.3q-1.1 0-2.2 0h-1.3c-0.9-0.1-1.8-0.1-2.8-0.1-2.2 0-81.6 9.4-134.4 15.6q-0.9 0.1-1.9 0.2c-24.8 2.9-43.2 5-44.1 5h-0.4q-1.5 0-3 0h-0.3q-2.7-0.1-5-0.1h-0.3q-0.4-0.1-0.9-0.1h-0.2c-0.2 0-0.5 0-0.8 0h-0.2q-0.4 0-0.8 0h-0.2q-0.7 0-1.3-0.1h-0.1q-0.4 0.1-0.8 0h-0.6q-0.6 0-1.1 0-0.3 0-0.5 0-0.8 0-1.4-0.1-1.8-0.1-3.1-0.1-0.5 0-0.9-0.1-0.2 0-0.4 0-0.2 0-0.4 0h-0.1q-0.2-0.1-0.3-0.1-0.1 0-0.1 0c-0.1 0-0.2 0-0.3 0q-0.1 0-0.1-0.1c-0.1 0-0.1 0-0.2 0 0 0 0 0 0 0q-0.2-0.1 0-0.1 0 0 0 0 0.2-0.1 0.4-0.2 0.4-0.3 0.4-0.7 0.1-0.1 0.1-0.3 0-0.1 0-0.3 0-0.1-0.1-0.2c-0.2-0.9-0.9-2-2-3.3q-0.7-0.9-1.7-2-0.4-0.4-0.7-0.7c-3.2-3.3-8-7.4-13.6-11.9q-0.5-0.4-1-0.9-2.2-1.7-4.6-3.5-0.9-0.8-1.9-1.6-0.1 0-0.2-0.1-0.7-0.6-1.4-1.1-2.9-2.1-5.8-4.4-1-0.7-1.9-1.4-1.1-0.8-2.2-1.6-0.9-0.7-2-1.5-0.6-0.4-1.2-0.9-1.2-0.8-2.3-1.7-2.1-1.5-4.3-3-0.7-0.6-1.4-1.1-0.4-0.3-0.8-0.5-1.1-0.8-2.2-1.6-1.6-1.2-3.2-2.3c-0.7-0.6-1.5-1.1-2.2-1.6q-1.1-0.8-2.1-1.5c-0.7-0.5-1.5-1-2.2-1.5q-1-0.7-2-1.5-1.1-0.7-2.1-1.4c-0.4-0.2-0.7-0.5-1-0.7q-1-0.7-2-1.4c-0.4-0.3-0.8-0.5-1.1-0.8q-1-0.6-1.8-1.3-2-1.3-3.8-2.6-0.7-0.4-1.4-0.9-1.1-0.7-2.1-1.4-0.8-0.6-1.6-1.1-0.4-0.3-0.8-0.6-1.6-1.1-3-2.1-0.6-0.3-1.1-0.7h-0.1q-2.1-1.5-3.8-2.6-0.3-0.2-0.5-0.4-0.5-0.3-1-0.6-0.2-0.2-0.4-0.3-0.4-0.3-0.8-0.6-0.4-0.3-0.8-0.5 1.3 0 2.6 0l355-73.4 19.9 16.8 125.4-48.1 49.7 0.5 191.2-72.8 45.7-37.6 31.9-12.2 106.2 120.6 0.7 0.9h0.1c2.3-0.6 4.6-1.2 6.9-1.8l6.4-0.8 3.5-0.5 4.4-0.7 34.7 10.9 43.8 13.8 0.1-0.1 20.2-13.6h0.1l31.5 9.9 1.9-0.6 73.9-24.4 74.7 22.4 6.4 1.9 197.3-70.5 147.1 92.7-3.8 24.6z"/><path class="b" d="m0.1 226.8q0 0 0 0 0 0 0 0z"/><path class="c" d="m1267.6 275.8q-7.1 0-10.7 0-3.6 0-7.2 0-3.6 0-7.2 0-4.6 0-9.1 0.1-2.3 0-4.6 0-2.3 0-4.6 0-2.8 0-5.5 0h-0.1q-2.7 0-5.5 0-1.8 0-3.7 0-1.9 0-3.7 0-5.6 0-11.3 0.1-2.8 0-5.6 0-8.5 0-17 0-3.8 0-7.7 0-3.8 0-7.6 0-3.8 0.1-7.7 0.1-4.9-8.5-9.8-16.6-4.9-8.1-9.7-15.7-4.1-6.4-8.2-12.5c-13.4-20.3-26.6-37.7-39.9-51.7-15.2-16.2-30.6-28-46.8-34.9q-3.1-1.3-6.2-2.3 0 0 0 0 0 0 0 0l0.1-0.1 20.2-13.6c-8 6.3 8.2 21.9 41 43.9 11.6 7.8 25.4 16.5 40.9 25.8q3.7 2.2 7.5 4.5 0.1 0.1 0.3 0.6 0 0 0 0.1 0.2 0.6 0.4 1.7 0 0 0 0 0.8 5.2 1.8 16.9c35.1 20.8 125 52.8 127.1 53.5q0.1 0.1 0.1 0.1z"/><path class="d" d="m1326.1 152.1q-1.6 0-3.5 0.3l1.4-0.7z"/><path class="e" d="m1130.4 198.4c-0.8 6.2-3 18.9-9.3 32.9-13.4-20.3-26.6-37.7-39.9-51.7 4-2.3 6.7-5.1 8.3-7 11.6 7.8 25.4 16.5 40.9 25.8z"/><path class="f" d="m1139 259.5q-4.9-8.1-9.7-15.7c4.1-11.2 7.7-25.1 8.6-40.9 0.9 0.5-0.3 0.4 0.6 0.9 0.3 17.5 2.1 37.6 0.5 55.7z"/><path class="g" d="m1326.1 152.1q-1.6 0-3.5 0.3l1.4-0.7z"/><path class="h" d="m1548.3 226.8l-34.3 46.3-1.4 1.9-21.1 28.4-1-1.2-21.2-27.1-0.2-0.2-17.3-22-97.9-48.6-13.4-6.7-26.3-13.1-7.4-3.6-7.3-3.7-2-1-5.7-13-19.5-9-30.8-14.2-4.5-2.1 197.3-70.5-12.8 13.1-4.8 26.8 13.2 14.5 1.2 1.3 48.1 53.1-1.9 6.9 56.8 37.6z"/><path class="i" d="m634.7 283l-90.6 0.6-1.4-3.3-0.5-1.2-4.9-11.5-14-33-1.5-0.6-73.2-26-18-6.4-7.6-8.4-10-5.1-4.7-2.3-15-7.6-15.7-8 125.4-48.1 11.4 15 14.7 19.2 23.6 24.5 19 1.6 22.7 36.3 37.5 59.8 0.5 0.8z"/><path fill-rule="evenodd" class="j" d="m1000.4 280.4l-113.8 0.8-19.7-4.4-0.5-0.1-160.4-36.1-40.6-51.3q0-6.2 4.7-11.5c4-4.6-84-41.4-110.1-52.2q-1.1-0.5-2.1-0.9-3.3-1.3-5.2-2.1l191.2-72.8 45.7-37.6 31.9-12.2-9.5 49 4.8 6.2 3.8 13 56.7 13 41.7 108.8h18l-35.8 16-0.2 0.1 93.9 70.3zm-254.6-102.7l-20.8 1.5 58.6 10 74.8 2.3-15.1-5.4z"/><path class="k" d="m1047.8 276.5l-28.5 1.6-1-1.8-34.7-60.8-4.1-7.1-49-68.9-1.1-1.6-1.7-17.3 0.7 0.9h0.1c2.3-0.6 4.6-1.2 6.9-1.8l6.4-0.8 3.5-0.5-1.7 21.8 0.4 0.8 25 40 16.2 25.9 0.9 0.9 23.7 25.1 23 26.3 14.9 17.1z"/><path class="l" d="m1175.4 202.3l-93.4-64.3-1.2-0.8 75.1-23.6-26.8 17.4 5.6 7.7 3.8 20.7z"/><path class="m" d="m1469 275.1l-171.4 1-0.2-0.4-7.5-10.6-113.5-61.3 18 6.1 15.1-9.9 121.1 46 121.2 6.9 17 22z"/><path class="n" d="m1008.9 278.1l-8.5 2.3-5.4-4q6.2 0 12.4 0z"/><path class="o" d="m986.4 208.4l-2.8 7.1-4.1-7.1-49-68.9 13.1 0.7 42.5 67.6z"/><path class="p" d="m1297.5 176.2l-58-6.1-53.5-5.7-25.5-2.7-4-0.4-18-1.9-3.8-20.7 11.9 1.8 7.6 1.2 12.6 2 63.6 9.9 61.4 9.6z"/><path class="q" d="m816.8 55.2l59.6 11.5 1.9 1.5h-57.7z"/><path class="r" d="m670.1 177.8l155.2 26 2.8 5.4-162.7-19.9z"/><path class="s" d="m743.9 49.8l26.5 24.5-0.9 10 45.4 74.3-20.8-26.8-132.5 19.1 4.7-7.6 110.7-12.3-18.9-37.5-35 6.1-163.7 26.1-4.8-3.1z"/><path class="t" d="m937 190l-35.1 16.1-65.3-6.9 82.4-9.2z"/><path class="u" d="m552.7 180.8l-29.3 53.7-1.6-0.5-73.2-26 89-40.2-14.8-19.1-28.7 10.7 25.8-14.8-5.1-5.3-52.9 29.3-36.9 18.4-12 1.1-19.7-9.9 59.1-18.1 7.6 5.4 54.4-28.4 0.4-0.1z"/><path class="v" d="m1000.4 280.4l-113.8 0.8-19.7-4.4-0.5-0.1-160.4-36.1 225.3 10-9.5-10-73.8-3.1 94.5 1 52.3 37.9z"/><path class="w" d="m665.4 189.3l-83.3-3.9 88-7.6z"/><path class="x" d="m1189.6 193.9l110.7 14.5-90.8-8.4z"/><path class="y" d="m1160.5 161.7l-4-0.4-9.9-20.8 7.6 1.2z"/><path class="z" d="m1239.5 170.1l-53.5-5.7-19.2-20.7 63.6 9.9z"/><path class="A" d="m783.6 189.3l-0.3 8.1-53.6-9.7-3.4-8z"/><path class="B" d="m1581.4 160.1l-3.8 24.6-100.3-1.6 1.9-6.9z"/><path class="C" d="m1431 123.1l-4.8-5.5 64.4 2.7z"/><path class="D" d="m1434.3 67.4l22 14.2-34.8-1.1z"/><path class="E" d="m1513.3 255.9l-2.9 19.1-0.1 0.7q-12.7 17.5-19.8 26.5l-21.2-27.1-0.2-0.2-17.3-22-97.9-48.6-13.4-6.7-26.3-13.1-7.4-3.6-7.3-3.7-2-1-5.7-13-19.5-9-30.8-14.2 30.5-2.1 46.3 21.5 5.7 1.5-0.9 15.3 2.2 1.5 52.6 34.5 6.7 1.7 34 8.3 36.9 13.8 3.8 4.6z"/><path class="F" d="m0.1 226.8q0 0 0 0 0 0 0 0z"/><path class="G" d="m355.2 280.3l0.2 0.1c-10.5 0.7-119.8 8.7-196.1 15.2-24.8 2.9-43.2 5-44.1 5h-0.4q-1.5 0-3 0h-0.3q-2.7-0.1-5-0.1c-12.5 1.3-20.3 2.3-21.2 2.9-3 2 0.7-3.2 4.9-8.7q-0.7-0.9-1.7-2-0.4-0.4-0.7-0.7c-3.2-3.3-8-7.4-13.6-11.9q-0.5-0.4-1-0.9-2.2-1.7-4.6-3.5-0.9-0.8-1.9-1.6-0.1 0-0.2-0.1-0.7-0.6-1.4-1.1-2.9-2.1-5.8-4.4-1-0.7-1.9-1.4-1.1-0.8-2.2-1.6-0.9-0.7-2-1.5-0.6-0.4-1.2-0.9-1.2-0.8-2.3-1.7-2.1-1.5-4.3-3-0.7-0.6-1.4-1.1-0.4-0.3-0.8-0.5-1.1-0.8-2.2-1.6-1.6-1.2-3.2-2.3c-0.7-0.6-1.5-1.1-2.2-1.6q-1.1-0.8-2.1-1.5c-0.7-0.5-1.5-1-2.2-1.5q-1-0.7-2-1.5-1.1-0.7-2.1-1.4c-0.4-0.2-0.7-0.5-1-0.7q-1-0.7-2-1.4c-0.4-0.3-0.8-0.5-1.1-0.8q-1-0.6-1.8-1.3-2-1.3-3.8-2.6-0.7-0.4-1.4-0.9-1.1-0.7-2.1-1.4-0.8-0.6-1.6-1.1-0.4-0.3-0.8-0.6-1.6-1.1-3-2.1-0.6-0.3-1.1-0.7h-0.1q-2.1-1.5-3.8-2.6-0.3-0.2-0.5-0.4-0.5-0.3-1-0.6-0.2-0.2-0.4-0.3-0.4-0.3-0.8-0.6-0.4-0.3-0.8-0.5 1.3 0 2.6 0l355-73.4-92.6 29.7 9.4 10-20.8 11.9-1.9 1.1 33.1 42.2z"/><path class="H" d="m423 193.2l-136.2 12.2 4.8-1.6 117.4-18.1z"/><path class="I" d="m521.8 234l-244.4-8 63.4-7.6-14.2-4.6 104-12.2z"/><path class="J" d="m1426.2 150.2l-103.1 26 0.9-15.3 102.2-13.8z"/><path class="K" d="m1455.5 236l72-2.3-68.2 6.9z"/><path class="L" d="m1323.7 177.5l124.3 19.4 2.8 1.6-102.2-9.2 2.8 2.3 168.5 20.7 3.9 3.1-146.8-1.6z"/><path class="M" d="m1416.7 107.3l-109.7 12.2-2.9-3 117.4-36z"/><path class="N" d="m1659 223l-2.6 51.8-142.4 0.2 34.3-48.2z"/><path class="O" d="m1548.3 226.8l-19.9 47.5-14.4 0.7h-1.4-2.2l-41.3-0.1h-0.3-2.3l-137.3 0.7h-3.3-2.8-6.1l13.6-29.6 121.2 6.9-97.9-48.6-13.4-6.7-26.3-13.1-7.4-3.6-7.3-3.7-2-1-5.7-13-19.5-9-30.8-14.2 30.5-2.1 47.7 22.2 4.3 0.8-0.9 15.3 2.2 1.5 52.6 34.5 7.1 1.7 33 7.5 37.5 14.6 3.8 4.6 38.4-5.9z"/><path class="P" d="m1148 275.1l-74.5 1.1h-0.1l-24.8 0.4-0.3-0.3-15.5-17.1-46.4-50.8-0.3-0.6-17.1-26.8-25.1-39.5 0.1-0.5 5.7-23.3 78.6 24.6 8 2.5-1.9-0.1-86.1-3.7 27.5 33.7 83.2 11.5-77.6-2.3 105.1 13.8z"/><path class="Q" d="m356.2 280.3q-0.3 0-0.8 0.1c-10.5 0.7-119.8 8.7-196.1 15.2-21 1.8-39.6 3.5-52.8 4.9-12.5 1.3-20.3 2.3-21.2 2.9-3 2 0.7-3.2 4.9-8.7q3.9-5.1 8.3-10.4l186.4-36-33.1-42.2-104.1 21.5 126.8-34.5-23.2 13.1 0.7 0.7 34.9 41.9z"/><path class="R" d="m542.7 280.3h-159-27.5l-69.3-31.5 234.9-14.8 15.2 33.7 5.2 11.4z"/><path class="S" d="m906 276.5l-39.1 0.3-50.4 0.4h-0.4l-184.2 1.3-89.7 0.6-158.5 1.2-8.4 0.1 0.8-0.1 160.5-12.5 0.4-0.1 0.3-0.1 73.2-23.2-14.5-20-60.3 25.4 58.1-31.3 0.6 0.2 111.6 21.9z"/><path class="T" d="m1659 223l-2.6 51.8-142.4 0.2h-1.4l-21.1 28.4-1-1.2-21.2-27.1h-0.3l-171.4 1-0.2-0.4q-14.7 0-29.8 0h-0.1q0.1 0.1 0.1 0.1-7.1 0-10.7 0-3.6 0-7.2 0-3.6 0-7.3 0-4.5 0-9 0.1-2.3 0-4.6 0-2.3 0-4.6 0-2.8 0-5.5 0h-0.1q-2.7 0-5.5 0-1.8 0-3.7 0-1.9 0-3.7 0c-3.8 0-7.5 0.1-11.2 0.1q-2.9 0-5.7 0-8.5 0-17 0-3.8 0-7.7 0-3.8 0-7.6 0-3.8 0.1-7.7 0.1c-24.7 0-49.9 0.1-75.3 0.1h-0.1l-24.8 0.4-0.3-0.3h-0.6l0.1 0.2-28.5 1.6-1-1.8q-1.7 0-3.4 0-3.7 0.1-7.5 0.1l1.5 1.7-8.5 2.3-113.8 0.8-19.7-4.4-50.4 0.4h-0.4c-54.6 0.5-122.9 1.4-183.7 2.1l2.3 3.7-90.6 0.6-1.4-3.3c-20.8 0.2-37.7 0.3-49 0.3h-3.5c-39.7 0-76-0.1-107.2-0.2h-5.6c-0.7 0-1.4 0-2.1 0h-5.4q-1-0.1-2-0.1h-2.7q-1.6 0-3.3 0h-5.7q-0.3 0-0.8 0.1c-10.5 0.7-119.8 8.7-196.1 15.2-24.8 2.9-43.2 5-44.1 5h-0.4q-1.5 0-3 0h-0.3q-2.7-0.1-5-0.1c-12.5 1.3-20.3 2.3-21.2 2.9-3 2 0.7-3.2 4.9-8.7q-0.7-0.9-1.7-2-0.4-0.4-0.7-0.7c-3.2-3.3-8-7.4-13.6-11.9q-0.5-0.4-1-0.9-2.2-1.7-4.6-3.5-0.9-0.8-1.9-1.6-0.1 0-0.2-0.1-0.7-0.6-1.4-1.1-2.9-2.1-5.8-4.4-1-0.7-1.9-1.4-1.1-0.8-2.2-1.6-0.9-0.7-2-1.5-0.6-0.4-1.2-0.9-1.2-0.8-2.3-1.7-2.1-1.5-4.3-3-0.7-0.6-1.4-1.1-0.4-0.3-0.8-0.5-1.1-0.8-2.2-1.6-1.6-1.2-3.2-2.3c-0.7-0.6-1.5-1.1-2.2-1.6q-1.1-0.8-2.1-1.5c-0.7-0.5-1.5-1-2.2-1.5q-1-0.7-2-1.5-1.1-0.7-2.1-1.4c-0.4-0.2-0.7-0.5-1-0.7q-1-0.7-2-1.4c-0.4-0.3-0.8-0.5-1.1-0.8q-1-0.6-1.8-1.3-2-1.3-3.8-2.6-0.7-0.4-1.4-0.9-1.1-0.7-2.1-1.4-0.8-0.6-1.6-1.1-0.4-0.3-0.8-0.6-1.6-1.1-3-2.1-0.6-0.3-1.1-0.7h-0.1q-2.1-1.5-3.8-2.6-0.3-0.2-0.5-0.4-0.5-0.3-1-0.6-0.2-0.2-0.4-0.3-0.4-0.3-0.8-0.6-0.4-0.3-0.8-0.5 1.3 0 2.6 0l355.2-73.4 19.7 16.8 125.4-48.1 49.7 0.5 191.2-72.8 45.7-37.6 31.9-12.2 106.2 120.6 0.7 0.9h0.1c2.3-0.6 4.6-1.2 6.9-1.8l6.4-0.8 3.5-0.5 4.4-0.7 78.6 24.6 20.2-13.6h0.1l31.5 9.9 1.9-0.6-1.2-0.8 75.1-23.6 74.7 22.4 6.4 1.9 197.3-70.5 147.1 92.7-3.8 24.6z"/><path class="U" d="m676.9 204.2q-0.3-0.2-0.3-0.2-0.1-0.2 0.3 0.2z"/><path fill-rule="evenodd" class="V" d="m1658.7 225.1l-1.6 51.5-1582.3 24.5-15.4-15.4q20.8 0.2 38.6 0.4l78.1-19.8-128-4.5 98.7-2.4 123.4-10.3-81.9-2.7 93-1 145.4-3.9-72.7-4 167.8-3.5-48.2-16.7-43-15.7 50.2-13.1-35 16.1 5.6 1.7 59.9-25.8 8.3-0.4-62.4 26 53 23 31.2 2.3 53-12.7-52.1 26.5 56.5-20.5 98.7 15.9-92.9-6.9-16.8 6.9 17.7-4.2 55.1 5.7-50.7 0.2-81.8 12.1 86.7-2 7.8 10.5 191 6.9-60.7-20.4-49.3-11.4q-23.7-30.9-26.7-33.8 7.7 3.3 152.6 43.2l22.3-1.4-53-13.1 39.7 3.9 103.2 20.7 26.2 0.5-43.2-29.7 33.1 12.3 24.6 13 18.9-1.5-9.5-16.1 17.5 22.5 23.5 0.7-29.6-40.8 12.3 6.9 98.4 9.9-95-1.3 22.2 31.7 96.4-5.8 37.8-20.6 86.2 11.1-53.6-28.7 61.2 23.6 14.9-15.4 149.3 14.7 21 10.5 92.1-30.5-38.4-22.3 115 15.4-69 0.8 49.2 4.6-38.7 4.4zm-1280.8 39.5l-70.5-5.8-66.2 4.8-81.6 21.3 136.7-19.6-66.9 12z"/><path class="W" d="m1242.6 210.7l120.2 23-101.9-14.3z"/><path class="X" d="m1289 208.4l-83.3-8.4-24.6-7.7z"/><path class="Y" d="m1246.3 212.2l-38.5 7.7 34.8-9z"/><path class="Z" d="m932.2 192.3l-30.3 13.8-65.3-6.9z"/><path class="a0" d="m671.7 190.3l180.1 21.2 2.8 1.5-184.8-18.8-11.1-5.9z"/><path class="a1" d="m911.4 217.6l13.3 10.7-119.3-14.5-9.4-3.1z"/><path class="a2" d="m403.4 183.6l45.2-9.7-22 12.3-15.2 1.1z"/><path class="a3" d="m730.7 89.6l30.2 2.3-142 24.4z"/><path class="a4" d="m670.1 112.6l78.5-8.4 15.6 2.5z"/><path class="a5" d="m286.8 226l68.2-3-13.3-1.6 90.9 2.3h-82.4l118.1 8.8q-145.5-5.7-147.4-5.1z"/><path class="a6" d="m256 210l-69.1 19.2 5.8 0.4-37.8 5.7 33.8-7.2-50.4 1.7q102.8-17.4 103.4-18.2z"/><path class="a7" d="m1448 232.9l74.2-2.3-66.7 5.4z"/><path class="a8" d="m1518.9 214.5l1 0.8-104 5.9-29.4-6.7z"/><path class="a9" d="m721.8 237.6l2.3-21.9 0.1 18.3 2.4-17-0.2 16.6 3.1-27 1.8 9.2 1.3-4.2 1.1 16.1 0.4-14.4q1.5 21.3 1.5 20.2 0-1.1 2.6-23.2l3.8 23.3 0.9-4.4 1.7 8.1q1.5-8.3 1.5-7.5 0 0.7 3.8 7.7l2-5.9 1.2 5.8 2.1-31 2.3 18.9 0.7-8.9 3.7 13.1q0.7-12 0.7-10.8 0.1 1.2 5.3 12.5-1.6-8.8-1.4-7.6 0.2 1.2 5.1 10.3-1.3-6.7-1-5 0.4 1.8 7.8 15.7l-3.9-27.6q12.2 29.1 12.2 27.4 0-1.6-0.6-9l7.5 12.5 0.5-3 10.6 16.2-1.4-32.2 9.7 37.6z"/><path class="a9" d="m834 241.2l2-30.7 1.1 25.6 2.4-23.9 0.6 23.3 3-38.1 2.9 12.8 1.7-5.9 2.4 22.5-0.3-20.3q3.4 29.9 3.3 28.3-0.1-1.6 2.3-32.6l6.6 32.4 1-6.2 2.9 11.2q1.6-11.6 1.7-10.5 0.1 1 5.7 10.6l2.5-8.4 2 8.1 1.2-43.5 4.3 26.3 0.4-12.5 6 18.2q0.3-16.9 0.4-15.2 0.1 1.7 8.1 17.2-2.7-12.2-2.3-10.5 0.3 1.7 7.6 14.1-2.2-9.3-1.6-6.9 0.6 2.5 11.8 21.6l-7-38.4q18.7 40 18.6 37.7-0.1-2.3-1.4-12.6l11.2 17.1 0.6-4.2 13.9 23.6-4.1-18.8 17.8 24.4z"/><path class="a9" d="m717.1 268q0-3.8-0.4-23.3l4.3 19.5 1.1-8.9 4.3 14.1 1-5.9 1.8 9.6 4.7-35.3 4.3 26.8v-9.3l6.4 24-38.3-11.6z"/><path class="a9" d="m812.2 263.5q0-3.7-0.3-23.3l4.2 19.6 1.1-9 4.3 14.1 1.1-5.8 1.8 9.6 4.6-35.4 4.3 26.8v-9.3l6.5 24.1-38.3-11.7z"/></svg>