<svg version="1.2" xmlns="http://www.w3.org/2000/svg" viewBox="0 0 1768 350" width="1768" height="350"><defs><linearGradient id="P" gradientUnits="userSpaceOnUse"/><linearGradient id="g1" x1="1271.2" y1="19.2" x2="1738.5" y2="19.2" href="#P"><stop stop-color="#5f2a31"/><stop offset="1" stop-color="#5e1729"/></linearGradient><linearGradient id="g2" x1="38.1" y1="242.6" x2="1018.7" y2="242.6" href="#P"><stop stop-color="#5f2a31"/><stop offset="1" stop-color="#5e1729"/></linearGradient><linearGradient id="g3" x1="797" y1="169.9" x2="1700.9" y2="169.9" href="#P"><stop stop-color="#5f2a31"/><stop offset="1" stop-color="#5e1729"/></linearGradient><linearGradient id="g4" x1="1363.7" y1="223.3" x2="1563.7" y2="216.7" href="#P"><stop stop-color="#5f2a31"/><stop offset="1" stop-color="#5e1729"/></linearGradient><linearGradient id="g5" x1="1341.1" y1="246" x2="1657.3" y2="235.6" href="#P"><stop stop-color="#5f2a31"/><stop offset="1" stop-color="#5e1729"/></linearGradient><linearGradient id="g6" x1="667.6" y1="299.9" x2="773.4" y2="299.9" href="#P"><stop stop-color="#5f2a31"/><stop offset="1" stop-color="#5e1729"/></linearGradient><linearGradient id="g7" x1="674.3" y1="309.7" x2="712.7" y2="309.7" href="#P"><stop stop-color="#5f2a31"/><stop offset="1" stop-color="#5e1729"/></linearGradient><linearGradient id="g8" x1="104.9" y1="256.6" x2="230.3" y2="256.6" href="#P"><stop stop-color="#5f2a31"/><stop offset="1" stop-color="#5e1729"/></linearGradient><linearGradient id="g9" x1="95.9" y1="239.1" x2="413.4" y2="239.1" href="#P"><stop stop-color="#5f2a31"/><stop offset="1" stop-color="#5e1729"/></linearGradient><linearGradient id="g10" x1="1276.3" y1="266.7" x2="1318.6" y2="365.5" href="#P"><stop stop-color="#5f2a31"/><stop offset="1" stop-color="#5e1729"/></linearGradient><linearGradient id="g11" x1="962" y1="287.5" x2="991.4" y2="356.3" href="#P"><stop stop-color="#5f2a31"/><stop offset="1" stop-color="#5e1729"/></linearGradient><linearGradient id="g12" x1="1138.9" y1="494.4" x2="858.6" y2="571" href="#P"><stop stop-color="#792a59"/><stop offset="1" stop-color="#ff6610"/></linearGradient></defs><style>.a{fill:url(#g1)}.b{opacity:.5;mix-blend-mode:multiply;fill:#a698fb}.c{fill:#70632f}.d{fill:url(#g2)}.e{fill:#8e403b}.f{fill:url(#g3)}.g{fill:url(#g4)}.h{fill:url(#g5)}.i{fill:url(#g6)}.j{fill:url(#g7)}.k{fill:url(#g8)}.l{fill:url(#g9)}.m{fill:url(#g10)}.n{fill:url(#g11)}.o{opacity:.2;fill:url(#g12)}.p{fill:#827038}</style><path class="a" d="m1738.5 23.2l-14.8 98.2-26.7 14.2-54 28.5-22.5 12-5.1 0.7-0.6 0.1-20 3-306.3 45.7h-0.1l-17.2 2.5 3.2-3.7 0.1-0.1 16.7-19.9 6.7-7.9 69.3-82.3 0.7-0.8 0.5-0.7 1.4-0.3z"/><path class="b" d="m1354.2 211.6l27.3-48.3 7.4-1.5 15.1-33 214.3-41.9 85.9 27.6-14.4 41.9z"/><path class="c" d="m1768 0.4l-24 256.9-86.9-2.5-16.5-0.5-19-0.5h-0.2l-21.5-0.6-14.3-0.4-7.1-0.2-74.9-2.1-2.5-0.1-33-0.9-40.7-1.2-12.4-0.3-24.9-0.7-139.3-4-39.4-1.1-11.2-0.3h-0.6l-24.6-0.7h-1.5l1.5-0.5 14.2-4.5h0.2l48.3-15.1h0.2l53.3-16.7 44.9-14 36.6-11.4 40.3-12.6-31.5-3.1 7.7-2.1 99.6-27.6 190-11.1v-9.6l-165.2 16.1 68-14.4 12.3-15-189.9 29.2 30.5-21 172.7-47.3 28-8-268 61.7-1.6 0.3 2.3-1.1 1.9-1 56.8-29 249.9-81.9z"/><path class="d" d="m1018.7 283.5l-52.4 5.7-40.1 4.4-18 1.9q-35.2 1.5-91.1 3.9-8.6 0.4-17.8 0.8-13.8 0.6-29 1.2c-28.2 1.2-59.6 2.5-93 3.9q-2 0.1-4 0.2c-27 1.1-55.2 2.3-84.2 3.5q-2.6 0.1-5.3 0.2-13.6 0.6-27.3 1.2c-91.4 3.8-187.1 7.7-269.1 11-48.5 1.9-92.1 3.6-127.2 4.9-54.9 2-89.1 3-88.3 2.4 1-0.7-0.7-3.6-3.8-7.4q-0.1-0.1-0.1-0.2-0.2-0.2-0.5-0.5-9.3-11.3-29.4-30.3l0.3-0.2 66.6-33.8 9.3-4.7 18.1-0.3 6.3-0.1 27.2-0.4 41-0.6 43.6-0.6 56.3-0.9 141.5-2.1 1.1 4.6 0.9 3.6 182.5-0.1 8 16.5 189.4 6.1 0.5 0.1h0.2l90.6 2.9 48.7 1.6h0.1z"/><path fill-rule="evenodd" class="b" d="m785.7 279.4l-15.1 15.1-376.4 11.6-105.3 3.3-0.6 4.7-0.9 7.3-1.6 12.5-125.6-7.6-86.9-5.3-5.1-0.3-0.7-0.1-20.5-1.2-4.1-12.8-7.4-16.2 2.6-0.3h0.2 0.1l70.5-6.5 91.7-22 8.5-2.1 27.1-6.5 14.3-3.4 11.4-2.8 44.9 1.9 103.6 4.4-0.1 5.9-0.1 10.7v0.2 3.5l5.3-1.6 0.5-12.6 0.1-2.8 180.3 7.7 0.2 15.6 44.2-8.5-12.6 4.2 153.1 2.8 0.1 1.3v0.2zm-269.2 1.8l1-0.3-19.5-18.2-23.2 19.3-0.7 12.9 42.4-13.7z"/><path class="e" d="m497.9 262.7l-23.2 19.3-347.2 6.6h-0.6l-17.8 0.3-71 1.4 0.2-0.2 81.1-54.6 328.9 11.1-37.9 6.5-159.4-1 159.3 6.9 5.7 0.2z"/><path class="c" d="m632.8 254.7l-36.4 9.4-180.3-7.7 29.3-5.3 4 0.1z"/><path class="c" d="m474 294.9l42.3-13.7 269.4-1.8-15.1 15.1-481.7 14.9 9.7-5z"/><path class="e" d="m628.2 275.4l12.6-4.2 244.2 8.3z"/><path class="b" d="m591.3 300.1l-22.2 26.9-36.7 3.1 35.8-29.2z"/><path class="b" d="m770.6 294.5l-0.4 11.8-189.1 15.4 13.8-21.7z"/><path class="c" d="m1662 318.8l-9.7 0.1h-1.2l-9.8 0.1-79.7 0.9-4 0.1-10 0.1-125.1 1.4-65.3 0.7-17.8 0.2-7.7 0.1-47 0.5-12.4 0.1-16.5 0.2-23.1 0.3-78.1 0.8-188.9 2.1-30.9 0.4-81.6 0.9h-0.3l-26.9 0.3-62.2 0.7h-4.9l-65.4 0.8h-8.2q0 0 0 0l-543.5 6.1-124.8 1.4 16.7-6.1 0.3-0.1 25.9-9.5 8.1-0.3h0.6l4.7-0.1 215-6.9 0.5-0.1-0.6 6.5 270-11.5 26.7-1.2 5.1-0.2 78.8-3.3 4-0.2 97.6-4.2 22.7-0.9 9.4-5.5 24.9-14.5 0.6-0.4 1.7-1 0.5-0.3 1.1-0.6 15.7-9.1 326.6-39.9 4.7-11.9 119.6-19.3 38.2-6.1 33.1-5.3 65.2-10.5 148.4-0.6 31-0.1 1 3 25.8 77.4z"/><path class="f" d="m1700.9 336.8l-40.2-0.1h-1.5-7l-228.2-0.4-31-0.1h-48.2l-13.6-0.1h-45.8l-9.5-0.1h-17.3-24.6l-81.4-0.2-187.6-0.3h-26.2l-101.7-0.2h-4.3l-0.1-0.2-6.7-7-26.7-27.9-2.3-2.5 6.4-3.9 25.2-15.2 1.6-0.9 0.5-0.3 16.3-9.8 74.5 12.7 24.2 4.1 24.5-2.5h0.1l178-18.5 77.2-8-13.6-7.3-11.7-6.2-10.8-5.7-15.8-8.5 4.7-11.9 59.6 5.3 36.6 3.2 14 1.3 5.9 0.5 68.8 6.1 50.7 4.5 180.9-56.8 19-6 1.6 2.9 41.7 78z"/><path class="b" d="m1234 336l-81.4-0.2-187.6-0.3h-26.2l-101.7-0.2 0.2-0.2 14.2-6.7 1.4-0.6 15.7-7.3 57.6-26.9 19.5-9.2 24.5-2.5h0.1l178-18.5 77.2-8 7.2 68.2z"/><path class="b" d="m1700.9 336.8l-40.2-0.1h-1.5-7l-228.2-0.4-0.4-3.5-1.1-11.3-2-19.2-1.4-14.4-0.1-0.6v-0.3l-2.2-21.5-0.1-0.6-1.4-13.7-0.3-3.2-1.1-11.3 180.9-56.8 19-6 1.6 2.9 41.7 78z"/><path class="c" d="m966.3 289.2l126.3-12.5 69 5.7-171.5 9.9z"/><path class="c" d="m925.3 306.8l124.9-13.6 8.7-0.9-91.9 17z"/><path class="e" d="m1264.1 227.5l151.2 23.7 135.8-32.3 12.8 1.8-198.3 59.6-155.1-49.9z"/><path class="e" d="m1292.1 266.4l41.1 18.2-89.5-16.6z"/><path class="g" d="m1563.9 220.7l-2.8 17.3-25.6-1.4-168.5 73.4-1.4-29.7z"/><path class="h" d="m1615.5 241l45.3 99.3h-316.6l2-14.6z"/><path class="b" d="m1264.1 227.5l-53.6 2.9 0.9 11.8 0.5 5.9v0.5l-12.3-6.7-10.4-5.7-15.6-8.5 4.7-11.9 59.4 5.3 29.3 2.6 7.4 0.7 14 1.2 6 0.5 68.7 5.9 0.1 0.2 5 11.6 0.1 0.2z"/><path class="b" d="m1370.6 312.5l20.1-8.6 0.3-32.1 16.2-3.8 2.7 27.6 2.5-1.2-1.7-26.9 26.1-8.4 0.7 21-70.5 29.9-1.4-29.7z"/><path class="e" d="m1333.4 325q2.2-0.7 198.2-88.2l83.9 4.2-269.3 84.7z"/><path class="b" d="m1657.9 346.7l-28.8-0.9-183.1-5.5-70-2.2 17-1.9 30.6-3.4 48.6-5.4 2.8 7.6 76.1 0.5-3.5-15.4-10.8-48.1 20.8 48 0.6 1.2 3.4-1.2v-0.1l-22.6-53 46.6-14.1 11.8-3.6q0.9 1.5 2.5 4c7 10.9 26.9 42.4 41.4 65.8 4.2 6.8 8 12.9 10.9 17.7q1.2 1.9 2.1 3.6c1.5 2.4 2.5 4.2 3.1 5.3q0.5 0.9 0.5 1.1z"/><path class="b" d="m1333.2 284.6l-2.1 55.5-72.4-3.4-15-68.7z"/><path class="e" d="m1260.2 278.2l60.8 5.7 4.9 2.6-42.8 6z"/><path class="i" d="m672.2 303.9l101.2 27.5-2.8 0.6-103-28.1z"/><path class="j" d="m712.7 316.2l-19.2 13.4-8.4 5.8-1.6 0.7-9.2 3.7c0-0.3 1.5-1.7 3.7-3.7 1.9-1.8 4.5-4.1 7.3-6.5q0 0 0 0c7.8-6.6 17.1-14.3 18.8-15.7q0.2-0.2 0.3-0.2l7.9 2.4z"/><path class="k" d="m104.9 289.9l125.4-29.3-104.1 28.2z"/><path class="l" d="m413.4 270q-114-4-205.5-8.1c-19.2-0.9-37.4-1.7-53.4-2.5-8-0.4-15.5-0.8-22.3-1.2q-3.8-0.3-7.2-0.5c-16-1-26.7-1.8-29.1-2.5l36.5-12.1 8.6 0.8 4.2 0.4 26.1 2.5 41.9 4z"/><path class="b" d="m141 243.9l4.2 0.4-13 13.9q-3.8-0.3-7.2-0.5z"/><path class="b" d="m213.2 250.8l-5.3 11.1c-19.2-0.9-37.4-1.7-53.4-2.5l16.8-12.6z"/><path class="m" d="m1283 292.6l2.8 50.5-10.2-7.3-14.9-57.3z"/><path class="n" d="m967 309.3l-1.3 17.2-0.7 9-0.6 7-22.9-1.4-2.7-5.6-4-8.6-9.5-20.1z"/><path class="b" d="m1664.8 345.5l-7.4 0.1-28.3 0.2-478.8 3.8c0.1-0.5 1.1-6.1 2.3-13.8 0.6-3.4 1.3-7.3 2-11.4q3.2-19 7-42l-67.3-6.2-59.7 5.3-6.3-4.8 120-13.3 75.3-8.3-11.7-6.5v-0.5l-0.5-5.9-0.9-11.8 40.3 12.9 114.8 37 25.4-7.7 12.5-3.7 13.2-4 51.4-15.4 95.8-28.8-2.8 17.3 54.4 3 6.1 12.8 30.7 65.1 8.4 17.8z"/><path class="b" d="m870.2 321.1l-17 6.7-1.7 0.6-17 6.7h-1.8l-149.2 1h-5.5l-460.8 3-217.2 1.4 33.7-9.5 0.4-0.1 34-9.6 0.6-0.2h-0.1l-0.4-0.4-27.9-29.8 68.4-1.9h2.2l0.2 0.6 10.8 29.3 3.5-0.4 2.1-29.9v-0.2-0.2h0.8l346.4-6.2-0.7 12.9-79.8 11.2-1.6 0.2 170.5-4.8-6.5 6.6 2.9-0.1 26.1-1 5-0.2 179.8-7 22.7-0.8 9-5.7 0.4 0.2 0.9 0.3 13.7 5.6 51.5 21.1z"/><path class="o" d="m1744 257.3l-86.9-2.5 43.8 82-40.2-0.1 4.1 8.8-7.4 0.1q0.5 0.9 0.5 1.1l-28.8-0.9-478.8 3.8c0.1-0.5 1.1-6.1 2.3-13.8l-187.6-0.3-0.6 7-22.9-1.4-2.7-5.6-101.7-0.2h-4.3l-0.1-0.2-149.2 1-9.2 3.7c0-0.3 1.5-1.7 3.7-3.7l-460.8 3-75.4-3.4-107.7-4.8h-0.1l25.9-9.5 8.1-0.3q-0.2-0.2-0.5-0.5l-20.5-1.2-4.1-12.8-7.4-16.2 2.6-0.3h0.2l81.1-54.6 328.9 11.1 1.1 4.6 183.4 3.5 8 16.5 189.4 6.1 1.1-0.6 15.7-9.1 326.6-39.9 4.7-11.9 119.6-19.3 69.3-82.3-1.6 0.3 2.3-1.1 0.5-0.7 1.4-0.3 56.8-29 249.9-81.9 91.5-1.1z"/><path class="b" d="m1494 139l68-6v2l-94 14z"/><path class="b" d="m1516 179l18-8 30-4-10 6z"/><path class="b" d="m1522 143l112-16-132 22z"/><path class="b" d="m1370.3 210l201.7-29-11.7 4.1-208.3 35.9 14-16z"/><path class="p" d="m1366 205l188-24h18l-201.7 29z"/><path class="p" d="m1475.4 137.1l8.6-0.1-74.7 29-26.8-2.3z"/><path class="b" d="m1166 257l-138-2 132-6z"/><path class="b" d="m986 267l74-10h2l-92 16z"/></svg>