<svg version="1.2" xmlns="http://www.w3.org/2000/svg" viewBox="0 0 409 409" width="409" height="409"><defs><linearGradient id="P" gradientUnits="userSpaceOnUse"/><linearGradient id="g1" x1=".5" y1="-3.3" x2="408.5" y2="-3.3" href="#P"><stop stop-color="#60d2de"/><stop offset="1" stop-color="#3b8dcc"/></linearGradient><linearGradient id="g2" x1="29.8" y1="26.1" x2="379.1" y2="26.1" href="#P"><stop stop-color="#60d2de"/><stop offset="1" stop-color="#3b8dcc"/></linearGradient><linearGradient id="g3" x1="-75.9" y1="-9.1" x2="311.5" y2="64.7" href="#P"><stop stop-color="#60d2de"/><stop offset="1" stop-color="#3b8dcc"/></linearGradient><linearGradient id="g4" x1="20.7" y1="-7.5" x2="338.8" y2="121.2" href="#P"><stop stop-color="#60d2de"/><stop offset="1" stop-color="#3b8dcc"/></linearGradient><linearGradient id="g5" x1="116.5" y1="96.3" x2="353.9" y2="229.7" href="#P"><stop stop-color="#60d2de"/><stop offset="1" stop-color="#3b8dcc"/></linearGradient></defs><style>.a{opacity:.2;fill:url(#g1)}.b{fill:url(#g2)}.c{fill:url(#g3)}.d{fill:url(#g4)}.e{fill:url(#g5)}</style><circle class="a" cx="204.5" cy="204.7" r="204"/><circle class="b" cx="204.5" cy="204.7" r="174.7"/><path class="c" d="m277.6 71.3c9.7-3.5 19-6.5 27.8-9 10.3 7.3 19.8 15.6 28.3 24.9-16.2 3.1-32.9 8.9-49.1 18.7-64 38.3-138 71.8-247.4 48.7 7.3-24.4 19.7-46.5 36.1-65.2 42 7.8 117.3 13.4 204.3-18.1z"/><path class="d" d="m379.1 208.1c-45.1-6.2-100.6-9-144.5 3.8-95.1 27.8-162.5 20.1-204.1 7.4-0.4-4.8-0.7-9.6-0.7-14.6 0-2.2 0.1-4.3 0.2-6.5 26.9 7.6 91.2 18.5 174.5-17 63.1-26.9 113.5-45.4 157.2-52.7 11.2 23 17.4 48.9 17.4 76.2 0 1.2 0 2.3 0 3.4z"/><path class="e" d="m375.9 238c-6.9 36.2-25.1 68.5-50.8 93-103.4 22.9-188.4 14.1-236.1 4.7-7.9-7-15.2-14.6-21.7-22.9 104.4 18.4 150.1-24.7 216.5-57.8 36.4-18.3 68.8-20 92.1-17z"/></svg>