<svg version="1.2" xmlns="http://www.w3.org/2000/svg" viewBox="0 0 2000 188" width="2000" height="188"><defs><linearGradient id="P" gradientUnits="userSpaceOnUse"/><linearGradient id="g1" x1="1640.2" y1=".8" x2="1640.2" y2="188" href="#P"><stop stop-color="#a196b0"/><stop offset="1" stop-color="#776c94"/></linearGradient><linearGradient id="g2" x1="2004" y1="-0.1" x2="2004" y2="139.5" href="#P"><stop stop-color="#a196b0"/><stop offset="1" stop-color="#776c94"/></linearGradient></defs><style>.a{fill:url(#g1)}.b{fill:url(#g2)}</style><path class="a" d="m1497.4 1.4l138.8-0.1v27.4l-92.1-5.3 3.4 8.3-6.3 12 7.1 21-106.4 36.5-28.5 3.1-21.1-53.6 12.9-28.2-27.6-9.5 5.5-5.1-483.5-4.6-15.6 4.9-2.7 0.9-15.3 4.8-23.4 7.4-16.5-7.3-20.7-9.4-143 5.5 0.9 13.6-6.2 3.4 2.8 19-44.5 68.7-4.5 3.7-16.8-16.4 1.1-18.3-9.9 20.3-6.7-2-11.5-44.4 1.7-8.9-3.1-18.2-350.7-23.9-8.6 2.5-102.4 46.8 5.1 8.1-11.6 30.8 1.8 10.4-99.2 82.7v-23.8-86.9-36.9l-0.1-8.8h0.1v-30.3l520 0.2h-2.1 2.6-0.5 31.7l246.9 0.1-0.6-0.3h6.6l-5.6-0.5 103.6 0.7 45.5 0.1 548.8-0.2z"/><path class="b" d="m2000 10.9v49.9l-20.7 9.7-2.3 28.2-10.6-0.3 7.7 22.8-70.8 18.3-103.3-91.7 9.7-4-2.8-6.8 4.5-5.2-97.1-15.5v-7.9l-53.3-8.5 338.8 1.4 0.1 9.6z"/></svg>