<svg version="1.2" xmlns="http://www.w3.org/2000/svg" viewBox="0 0 2022 228" width="2022" height="228"><defs><linearGradient id="P" gradientUnits="userSpaceOnUse"/><linearGradient id="g1" x1="-4" y1="227.8" x2="-4" y2=".7" href="#P"><stop stop-color="#8aa2bd"/><stop offset="1" stop-color="#8281bd"/></linearGradient></defs><style>.a{fill:url(#g1)}.b{mix-blend-mode:soft-light;fill:#cffff6}</style><path class="a" d="m0 87.3l651.2-86.6 162.7 67 16.2-2.2 434.3 145 74.3-15.9h10.6l125.6-51.9 227.1 76.3 320-24.4-0.5 33.2-2021.5-33.2z"/><path class="b" d="m813.9 67.7l20.7 20.5 122.2 122.3-294.1-5-18.8-25.4 18.8 14.5-19.4-33.9-33.4-58.6 83.6-49.1-42.3-17h6.9l96 17-102.9-52.3z"/><path class="b" d="m1264.4 210.5l-192-0.8-67.3-15.5 38.6 5.1-120.5-34.9 138.8 32.8-143.9-39.2-88-92.5z"/><path class="b" d="m558.8 72l65.6 88.5-99.3-45.8h16.7l-66.2-85.3z"/><path class="b" d="m348.9 200.3l36.2-15.1-111.5-47.8 22.6-9.6 81.5 17.4-213.4-79.7 109-14.5 119.2 63.3-68.3-43.2 230.3 132.6z"/><path class="b" d="m330.6 168.8v6.2l-35.7-14.5v-8.5z"/><path class="b" d="m338.6 59.8l83.5 47.8-29.6-5.5-61.9-42.3z"/><path class="b" d="m665.5 12.7l56.8 27.2-20.2-3.5z"/><path class="b" d="m1702 219l-302.3-1.7 129.9-2.8-85.1-36.9 44.9 13.9-44.9-17.8 34.6-23.9 50.5 23.9-54.7-31z"/><path class="b" d="m1349.3 194.6l24.5 15.9-20.1 4 7.9-4.8-26.6 0.1 3.7-15.2z"/></svg>