<svg version="1.2" xmlns="http://www.w3.org/2000/svg" viewBox="0 0 2000 332" width="2000" height="332"><defs><linearGradient id="P" gradientUnits="userSpaceOnUse"/><linearGradient id="g1" x1="798.1" y1="143.8" x2="1636.2" y2="143.8" href="#P"><stop stop-color="#8aa2bd"/><stop offset="1" stop-color="#8281bd"/></linearGradient><linearGradient id="g2" x1=".1" y1="-4" x2="883.1" y2="-4" href="#P"><stop stop-color="#8aa2bd"/><stop offset="1" stop-color="#8281bd"/></linearGradient><linearGradient id="g3" x1="1661" y1="81.6" x2="2000" y2="81.6" href="#P"><stop stop-color="#8aa2bd"/><stop offset="1" stop-color="#8281bd"/></linearGradient></defs><style>.a{fill:url(#g1)}.b{fill:url(#g2)}.c{mix-blend-mode:soft-light;fill:#9992c4}.d{fill:url(#g3)}</style><path class="a" d="m1636.2 329.5l-688-0.6-150.1 0.6 28-22.4 16.5-12.9 57 31.8 483.5-8.2-5.5-8.9 27.6-16.8-12.9-49.8 21.1-94.5 28.5 5.4 106.4 64.3-8.9 45.3 8.1 13.1-3.4 14.6 92.1-9.4z"/><path class="b" d="m0.1 0l99.2 145.9-1.8 18.4 11.6 54.4-5.1 14.2 102.4 82.7 8.6 4.4 350.7-42.2 3.1-32.1-1.7-15.7 11.5-78.4 6.7-3.5 9.9 35.9-1.1-32.4 16.8-29 4.5 6.6 44.5 121.2-2.8 33.6 6.2 5.9-0.9 24.1 220.7 14.9-883 0.6z"/><path class="c" d="m1541.2 254.7l6.3 21.2-3.4 14.6-18.2 22.8 29.6 16.1h-58.5l-113.9-11.6-5.5-8.9 71.2-16.8 90.6-29.3-63.8 9.8-70.4 19.5-12.9-49.8 74 18.3 82-43.1z"/><path class="c" d="m1636.2 329.5l-80.7-0.1 80.7-48.3z"/><path class="c" d="m899.6 326l3.1 3.1-103.6 1.2 84.9-13-19.2-5.3-31.1 11.7 32.3-16.4z"/><path class="c" d="m578.6 151.6l-3.9 48.9 55.9 92.6h15.6l-51-109.1-1.1-32.4 34.1 97.9 8.2 4.2 23.5-3.3-2.8 33.6-7.9 6.6 14.1-0.7-0.9 24.1-34.2 14.9-108.1 0.3 72.8-9.3-27.2-42.1 3.1-32.1-1.7-15.7z"/><path class="c" d="m215 320l305.1 9.2-520 0.3z"/><path class="c" d="m104 232.9l-104 43.1 0.1-15.5 109-41.8z"/><path class="c" d="m97.5 164.3l-97.4 31.1v-153.3l91.2 100.9-77.2-60.8-8.6 10.3 30.6 57.8 63.2-4.4z"/><path class="c" d="m99.3 314l13.4-10.2 33.2 8.7z"/><path class="c" d="m494.1 328.9l-22.5-32.3 3.9-1.8z"/><path class="c" d="m603.7 253.7l18.1-12.9-16.4 19.7z"/><path class="c" d="m1419.3 205.1l9.1-20.8 22.3 10.4z"/><path class="c" d="m1425.7 250.6l5.5-10.4 10.6 14.4z"/><path class="c" d="m1576.2 317l7.7-18.3 39.2-9.7z"/><path class="c" d="m104 232.9l-39.8 43.1h-64.2z"/><path class="d" d="m1661 331.9l53.3-14.9v-14l97.1-27.3-4.5-9.2 2.8-11.9-9.7-7.2 103.3-161.8 70.8 32.3-7.7 40.2 10.6-0.5 2.3 49.7 20.7 17.1-0.2 105.1z"/><path class="c" d="m1966.4 158.1l-75.4 33.5-81.3 63-9.7-7.2 110.3-74.5 63.8-55z"/><path class="c" d="m1979.3 207.3l-127.2 41.8-40.7 26.6-4.5-9.2 91.8-46.9 30.6-33.4-47.8 22.5 95.5-51.1z"/><path class="c" d="m2000 312.5l-236 17.8-49.7-13.3v-14l52.7 20.7 194.2-12-37.8-32.7-86.8 32.7 163.4-87.3z"/></svg>