<svg version="1.2" xmlns="http://www.w3.org/2000/svg" viewBox="0 0 225 181" width="225" height="181"><defs><linearGradient id="P" gradientUnits="userSpaceOnUse"/><linearGradient id="g1" x1="32.1" y1="-3.2" x2="191.5" y2="-3.2" href="#P"><stop stop-color="#ff944f"/><stop offset="1" stop-color="#ff6244"/></linearGradient><linearGradient id="g2" x1="126.9" y1="-5" x2="221.6" y2="105.6" href="#P"><stop stop-color="#ff944f"/><stop offset="1" stop-color="#ff6244"/></linearGradient><linearGradient id="g3" x1="63.7" y1="91.4" x2="53.4" y2="72.8" href="#P"><stop stop-color="#ff944f"/><stop offset="1" stop-color="#ff6244"/></linearGradient><linearGradient id="g4" x1="137.7" y1="83.6" x2="122.2" y2="55.7" href="#P"><stop stop-color="#ff944f"/><stop offset="1" stop-color="#ff6244"/></linearGradient><linearGradient id="g5" x1="91.2" y1="147.6" x2="84.4" y2="136.7" href="#P"><stop stop-color="#ff944f"/><stop offset="1" stop-color="#ff6244"/></linearGradient><linearGradient id="g6" x1="110.1" y1="49.6" x2="105.7" y2="41.3" href="#P"><stop stop-color="#ff944f"/><stop offset="1" stop-color="#ff6244"/></linearGradient><linearGradient id="g7" x1="101.3" y1="110.8" x2="88" y2="88.7" href="#P"><stop stop-color="#ff944f"/><stop offset="1" stop-color="#ff6244"/></linearGradient><linearGradient id="g8" x1="120.3" y1="129.6" x2="116.4" y2="123.2" href="#P"><stop stop-color="#ff944f"/><stop offset="1" stop-color="#ff6244"/></linearGradient><linearGradient id="g9" x1="103.1" y1="69.6" x2="99.3" y2="63.1" href="#P"><stop stop-color="#ff944f"/><stop offset="1" stop-color="#ff6244"/></linearGradient><linearGradient id="g10" x1="163.4" y1="72.2" x2="159.6" y2="65.8" href="#P"><stop stop-color="#ff944f"/><stop offset="1" stop-color="#ff6244"/></linearGradient><linearGradient id="g11" x1="74" y1="51.8" x2="70.1" y2="45.4" href="#P"><stop stop-color="#ff944f"/><stop offset="1" stop-color="#ff6244"/></linearGradient><linearGradient id="g12" x1="57.8" y1="99.1" x2="53.9" y2="92.6" href="#P"><stop stop-color="#ff944f"/><stop offset="1" stop-color="#ff6244"/></linearGradient><linearGradient id="g13" x1="141.6" y1="130.9" x2="134.5" y2="118.8" href="#P"><stop stop-color="#ff944f"/><stop offset="1" stop-color="#ff6244"/></linearGradient><linearGradient id="g14" x1="159.2" y1="103" x2="152.1" y2="90.9" href="#P"><stop stop-color="#ff944f"/><stop offset="1" stop-color="#ff6244"/></linearGradient><linearGradient id="g15" x1="2.3" y1="42" x2="220.7" y2="42" href="#P"><stop stop-color="#ff944f"/><stop offset="1" stop-color="#ffbd32"/></linearGradient></defs><style>.a{opacity:.1;fill:url(#g1)}.b{fill:url(#g2)}.c{fill:url(#g3)}.d{fill:url(#g4)}.e{fill:url(#g5)}.f{fill:url(#g6)}.g{fill:url(#g7)}.h{fill:url(#g8)}.i{fill:url(#g9)}.j{fill:url(#g10)}.k{fill:url(#g11)}.l{fill:url(#g12)}.m{fill:url(#g13)}.n{fill:url(#g14)}.o{opacity:.3;fill:url(#g15)}</style><path class="a" d="m143.3 174.8c-46.5 17.3-98.5-6.3-115.9-52.9-17.4-46.5 6.3-98.5 52.8-115.9 46.5-17.4 98.5 6.3 115.9 52.8 17.4 46.6-6.3 98.6-52.8 116z"/><path class="b" d="m177.4 65.9c13.6 36.2-4.8 76.6-41.1 90.1-36.2 13.6-76.6-4.8-90.2-41.1-13.5-36.2 4.9-76.6 41.1-90.1 36.3-13.6 76.6 4.8 90.2 41.1z"/><path class="c" d="m78.7 73.6c1.8 4.9-0.7 10.3-5.5 12.1-4.9 1.8-10.3-0.6-12.1-5.5-1.8-4.8 0.7-10.2 5.5-12.1 4.9-1.8 10.3 0.7 12.1 5.5z"/><path class="d" d="m152.3 56.1c2.2 6.1-0.8 12.8-6.9 15-6 2.3-12.7-0.8-15-6.8-2.2-6 0.9-12.8 6.9-15 6-2.3 12.7 0.8 15 6.8z"/><path class="e" d="m98.7 136.4c0.9 2.3-0.3 4.9-2.6 5.8-2.4 0.8-5-0.3-5.9-2.7-0.8-2.3 0.4-4.9 2.7-5.8 2.3-0.8 4.9 0.3 5.8 2.7z"/><path class="f" d="m117.5 37.5c0.9 2.3-0.3 4.9-2.6 5.8-2.4 0.9-5-0.3-5.8-2.6-0.9-2.4 0.3-5 2.6-5.8 2.3-0.9 4.9 0.3 5.8 2.6z"/><path class="g" d="m115.5 93c1.7 4.7-0.7 10-5.4 11.7-4.7 1.8-10-0.6-11.8-5.3-1.8-4.8 0.6-10 5.4-11.8 4.7-1.8 10 0.6 11.8 5.4z"/><path class="h" d="m126.6 123.1c0.5 1.4-0.2 2.9-1.6 3.4-1.4 0.6-2.9-0.1-3.4-1.5-0.5-1.4 0.2-2.9 1.5-3.4 1.4-0.5 2.9 0.1 3.5 1.5z"/><path class="i" d="m109.4 63.1c0.5 1.3-0.2 2.9-1.6 3.4-1.4 0.5-2.9-0.2-3.4-1.6-0.5-1.3 0.2-2.9 1.6-3.4 1.3-0.5 2.9 0.2 3.4 1.6z"/><path class="j" d="m169.7 65.7c0.5 1.4-0.2 2.9-1.5 3.5-1.4 0.5-3-0.2-3.5-1.6-0.5-1.4 0.2-2.9 1.6-3.4 1.4-0.5 2.9 0.2 3.4 1.5z"/><path class="k" d="m80.2 45.3c0.5 1.4-0.2 2.9-1.5 3.5-1.4 0.5-3-0.2-3.5-1.6-0.5-1.4 0.2-2.9 1.6-3.4 1.4-0.5 2.9 0.2 3.4 1.5z"/><path class="l" d="m64.1 92.6c0.5 1.3-0.2 2.9-1.6 3.4-1.4 0.5-2.9-0.2-3.4-1.6-0.5-1.3 0.2-2.9 1.5-3.4 1.4-0.5 2.9 0.2 3.5 1.6z"/><path class="m" d="m149.4 119.8c0.8 2.4-0.3 4.9-2.7 5.8-2.3 0.9-4.9-0.3-5.8-2.6-0.9-2.4 0.3-5 2.7-5.8 2.3-0.9 4.9 0.3 5.8 2.6z"/><path class="n" d="m166.9 91.9c0.9 2.4-0.3 5-2.6 5.8-2.3 0.9-4.9-0.3-5.8-2.6-0.9-2.4 0.3-5 2.6-5.8 2.4-0.9 5 0.3 5.8 2.6z"/><path class="o" d="m224.3 50.4c4.2 11.2-42.5 39-104.2 62.1-61.8 23.2-115.3 32.8-119.5 21.5-2.3-6.1 10.6-17.2 32.9-29.8-3.3 3.2-4.8 5.9-4.1 7.9 3 8 41 1.2 84.8-15.2 43.8-16.4 77-36.2 74-44.2-0.8-1.9-3.7-3-8.3-3.2 25.1-5.2 42.1-5.3 44.4 0.9z"/></svg>