<svg version="1.2" xmlns="http://www.w3.org/2000/svg" viewBox="0 0 694 694" width="694" height="694"><defs><linearGradient id="P" gradientUnits="userSpaceOnUse"/><linearGradient id="g1" x1="454.4" y1="-196.2" x2="907" y2="457.6" href="#P"><stop stop-color="#ff6478"/><stop offset="1" stop-color="#ff3056"/></linearGradient><linearGradient id="g2" x1="442.3" y1="-133.3" x2="842.2" y2="444.5" href="#P"><stop stop-color="#ff6478"/><stop offset="1" stop-color="#ff3056"/></linearGradient><linearGradient id="g3" x1="129.7" y1="231.7" x2="186.7" y2="120.7" href="#P"><stop stop-color="#ff6478"/><stop offset="1" stop-color="#ff3056"/></linearGradient><linearGradient id="g4" x1="328.7" y1="353.7" x2="371.4" y2="270.5" href="#P"><stop stop-color="#ff6478"/><stop offset="1" stop-color="#ff3056"/></linearGradient><linearGradient id="g5" x1="262.7" y1="110.5" x2="295" y2="47.6" href="#P"><stop stop-color="#ff6478"/><stop offset="1" stop-color="#ff3056"/></linearGradient><linearGradient id="g6" x1="444" y1="234.8" x2="476.3" y2="171.9" href="#P"><stop stop-color="#ff6478"/><stop offset="1" stop-color="#ff3056"/></linearGradient><linearGradient id="g7" x1="381" y1="127.9" x2="397.2" y2="96.5" href="#P"><stop stop-color="#ff6478"/><stop offset="1" stop-color="#ff3056"/></linearGradient><linearGradient id="g8" x1="203" y1="127.9" x2="219.2" y2="96.5" href="#P"><stop stop-color="#ff6478"/><stop offset="1" stop-color="#ff3056"/></linearGradient><linearGradient id="g9" x1="571.7" y1="294.4" x2="587.9" y2="263" href="#P"><stop stop-color="#ff6478"/><stop offset="1" stop-color="#ff3056"/></linearGradient><linearGradient id="g10" x1="322.4" y1="208.6" x2="334.7" y2="184.7" href="#P"><stop stop-color="#ff6478"/><stop offset="1" stop-color="#ff3056"/></linearGradient><linearGradient id="g11" x1="523.2" y1="150.9" x2="535.5" y2="127" href="#P"><stop stop-color="#ff6478"/><stop offset="1" stop-color="#ff3056"/></linearGradient><linearGradient id="g12" x1="155.5" y1="294.9" x2="172.8" y2="261.1" href="#P"><stop stop-color="#ff6478"/><stop offset="1" stop-color="#ff3056"/></linearGradient><linearGradient id="g13" x1="113.8" y1="164.1" x2="121.9" y2="148.3" href="#P"><stop stop-color="#ff6478"/><stop offset="1" stop-color="#ff3056"/></linearGradient><linearGradient id="g14" x1="264.2" y1="286.5" x2="281.5" y2="252.8" href="#P"><stop stop-color="#ff6478"/><stop offset="1" stop-color="#ff3056"/></linearGradient><linearGradient id="g15" x1="504.4" y1="307.4" x2="512.5" y2="291.7" href="#P"><stop stop-color="#ff6478"/><stop offset="1" stop-color="#ff3056"/></linearGradient><linearGradient id="g16" x1="57.6" y1="317.6" x2="65.7" y2="301.8" href="#P"><stop stop-color="#ff6478"/><stop offset="1" stop-color="#ff3056"/></linearGradient><linearGradient id="g17" x1="468.6" y1="101.2" x2="476.6" y2="85.5" href="#P"><stop stop-color="#ff6478"/><stop offset="1" stop-color="#ff3056"/></linearGradient><linearGradient id="g18" x1="407.2" y1="244.6" x2="415.2" y2="228.9" href="#P"><stop stop-color="#ff6478"/><stop offset="1" stop-color="#ff3056"/></linearGradient></defs><style>.a{opacity:.2;fill:url(#g1)}.b{fill:url(#g2)}.c{fill:url(#g3)}.d{opacity:.1;fill:#fff}.e{fill:url(#g4)}.f{fill:url(#g5)}.g{fill:url(#g6)}.h{fill:url(#g7)}.i{fill:url(#g8)}.j{fill:url(#g9)}.k{fill:url(#g10)}.l{fill:url(#g11)}.m{fill:url(#g12)}.n{fill:url(#g13)}.o{fill:url(#g14)}.p{fill:url(#g15)}.q{fill:url(#g16)}.r{fill:url(#g17)}.s{fill:url(#g18)}</style><path class="a" d="m346.8 693.4c-191 0-346.4-155.4-346.4-346.5 0-191 155.4-346.4 346.4-346.4 191 0 346.4 155.4 346.4 346.4 0 191.1-155.4 346.5-346.4 346.5z"/><circle class="b" cx="346.8" cy="346.9" r="306"/><circle class="c" cx="212.1" cy="211.8" r="52.8"/><path class="d" d="m171.4 245.4c-7.5-9.1-12.1-20.8-12.1-33.6 0-29.1 23.7-52.8 52.8-52.8 20.8 0 38.8 12.1 47.4 29.5-9.7-11.7-24.3-19.2-40.7-19.2-29.2 0-52.8 23.7-52.8 52.8 0 8.4 2 16.3 5.4 23.3z"/><circle class="e" cx="391.3" cy="339.2" r="39.5"/><path class="d" d="m360.9 364.4c-5.7-6.8-9.1-15.6-9.1-25.2 0-21.8 17.7-39.5 39.5-39.5 15.6 0 29.1 9 35.5 22.1-7.2-8.8-18.2-14.4-30.5-14.4-21.8 0-39.5 17.7-39.5 39.6 0 6.2 1.5 12.1 4.1 17.4z"/><circle class="f" cx="311" cy="100" r="29.9"/><path class="d" d="m287.9 119c-4.3-5.1-6.8-11.8-6.8-19 0-16.5 13.3-29.9 29.9-29.9 11.7 0 21.9 6.8 26.8 16.7-5.5-6.6-13.8-10.9-23.1-10.9-16.5 0-29.9 13.4-29.9 29.9 0 4.8 1.1 9.2 3.1 13.2z"/><circle class="g" cx="492.3" cy="224.3" r="29.9"/><path class="d" d="m469.2 243.3c-4.2-5.1-6.8-11.8-6.8-19 0-16.5 13.4-29.9 29.9-29.9 11.8 0 22 6.8 26.8 16.7-5.5-6.6-13.7-10.9-23-10.9-16.5 0-29.9 13.4-29.9 29.9 0 4.8 1.1 9.3 3 13.2z"/><circle class="h" cx="407" cy="123.6" r="15"/><path class="d" d="m395.4 133.1c-2.1-2.6-3.4-5.9-3.4-9.5 0-8.3 6.7-14.9 15-14.9 5.8 0 10.9 3.4 13.4 8.3-2.8-3.3-6.9-5.4-11.6-5.4-8.2 0-14.9 6.7-14.9 14.9 0 2.4 0.5 4.6 1.5 6.6z"/><circle class="i" cx="229" cy="123.6" r="15"/><path class="d" d="m217.4 133.1c-2.1-2.6-3.4-5.9-3.4-9.5 0-8.3 6.7-14.9 15-14.9 5.8 0 10.9 3.4 13.4 8.3-2.8-3.3-6.9-5.4-11.6-5.4-8.2 0-14.9 6.7-14.9 14.9 0 2.4 0.5 4.6 1.5 6.6z"/><circle class="j" cx="597.6" cy="290.1" r="15"/><path class="d" d="m586.1 299.6c-2.1-2.6-3.4-5.9-3.4-9.5 0-8.3 6.7-15 14.9-15 5.9 0 11 3.4 13.4 8.4-2.7-3.3-6.9-5.4-11.5-5.4-8.3 0-14.9 6.7-14.9 14.9 0 2.4 0.5 4.6 1.5 6.6z"/><circle class="k" cx="343" cy="205.8" r="11.4"/><path class="d" d="m334.2 213c-1.6-1.9-2.6-4.5-2.6-7.2 0-6.3 5.1-11.4 11.4-11.4 4.5 0 8.4 2.6 10.2 6.4-2.1-2.6-5.2-4.2-8.8-4.2-6.2 0-11.3 5.1-11.3 11.4 0 1.8 0.4 3.5 1.1 5z"/><circle class="l" cx="543.8" cy="148.1" r="11.4"/><path class="d" d="m535 155.3c-1.6-1.9-2.6-4.5-2.6-7.2 0-6.3 5.1-11.4 11.4-11.4 4.4 0 8.3 2.6 10.2 6.4-2.1-2.6-5.3-4.2-8.8-4.2-6.3 0-11.4 5.1-11.4 11.4 0 1.8 0.4 3.5 1.2 5z"/><circle class="m" cx="183" cy="290.1" r="16.1"/><path class="d" d="m170.6 300.3c-2.3-2.8-3.6-6.3-3.6-10.2 0-8.9 7.1-16.1 16-16.1 6.3 0 11.8 3.7 14.4 9-2.9-3.5-7.4-5.8-12.4-5.8-8.8 0-16 7.2-16 16 0 2.6 0.6 5 1.6 7.1z"/><circle class="n" cx="128.5" cy="162.8" r="7.5"/><path class="d" d="m122.8 167.6c-1.1-1.3-1.7-3-1.7-4.8 0-4.1 3.3-7.5 7.4-7.5 3 0 5.5 1.7 6.7 4.2-1.3-1.7-3.4-2.7-5.7-2.7-4.2 0-7.5 3.3-7.5 7.5 0 1.1 0.3 2.3 0.8 3.3z"/><circle class="o" cx="291.7" cy="281.7" r="16"/><path class="d" d="m279.3 291.9c-2.3-2.8-3.6-6.3-3.6-10.2 0-8.8 7.1-16 16-16 6.3 0 11.8 3.6 14.4 8.9-3-3.5-7.4-5.8-12.4-5.8-8.8 0-16 7.2-16 16 0 2.6 0.6 5 1.6 7.1z"/><circle class="p" cx="519.1" cy="306.1" r="7.5"/><path class="d" d="m513.4 310.9c-1.1-1.3-1.7-2.9-1.7-4.8 0-4.1 3.3-7.4 7.4-7.4 3 0 5.5 1.7 6.7 4.1-1.3-1.6-3.4-2.7-5.7-2.7-4.2 0-7.5 3.4-7.5 7.5 0 1.2 0.3 2.3 0.8 3.3z"/><circle class="q" cx="72.4" cy="316.3" r="7.5"/><path class="d" d="m66.6 321.1c-1.1-1.3-1.7-3-1.7-4.8 0-4.1 3.3-7.5 7.5-7.5 2.9 0 5.4 1.7 6.7 4.2-1.4-1.7-3.5-2.7-5.8-2.7-4.1 0-7.5 3.3-7.5 7.5 0 1.1 0.3 2.3 0.8 3.3z"/><circle class="r" cx="483.3" cy="100" r="7.5"/><path class="d" d="m477.5 104.7c-1-1.2-1.7-2.9-1.7-4.7 0-4.1 3.4-7.5 7.5-7.5 2.9 0 5.5 1.7 6.7 4.2-1.4-1.7-3.4-2.7-5.8-2.7-4.1 0-7.4 3.3-7.4 7.4 0 1.2 0.2 2.4 0.7 3.3z"/><circle class="s" cx="421.9" cy="243.3" r="7.5"/><path class="d" d="m416.1 248.1c-1-1.3-1.7-3-1.7-4.8 0-4.1 3.4-7.4 7.5-7.4 2.9 0 5.5 1.7 6.7 4.1-1.4-1.6-3.4-2.7-5.8-2.7-4.1 0-7.4 3.4-7.4 7.5 0 1.2 0.2 2.3 0.7 3.3z"/></svg>