<svg version="1.2" xmlns="http://www.w3.org/2000/svg" viewBox="0 0 279 279" width="279" height="279"><defs><linearGradient id="P" gradientUnits="userSpaceOnUse"/><linearGradient id="g1" x1="-23.8" y1="245.4" x2="25" y2="-51.6" href="#P"><stop stop-color="#ff6883"/><stop offset="1" stop-color="#ff3c58"/></linearGradient><linearGradient id="g2" x1="4.4" y1="226.6" x2="44.6" y2="-17.9" href="#P"><stop stop-color="#ff6883"/><stop offset="1" stop-color="#ff3c58"/></linearGradient><linearGradient id="g3" x1="14.5" y1="168.1" x2="89.8" y2="-289.7" href="#P"><stop stop-color="#ff6883"/><stop offset="1" stop-color="#ff3c58"/></linearGradient><linearGradient id="g4" x1="119.1" y1="-28.7" x2="336.5" y2="147.9" href="#P"><stop stop-color="#ff6883"/><stop offset="1" stop-color="#ff3c58"/></linearGradient><linearGradient id="g5" x1="40.4" y1="455.3" x2="111.6" y2="22.4" href="#P"><stop stop-color="#ff6883"/><stop offset="1" stop-color="#ff3c58"/></linearGradient></defs><style>.a{opacity:.2;fill:url(#g1)}.b{fill:url(#g2)}.c{fill:url(#g3)}.d{fill:url(#g4)}.e{fill:url(#g5)}</style><path class="a" d="m188.3 269.5c-71.6 27-151.9-9.3-178.9-80.9-27-71.6 9.3-151.9 80.9-178.9 71.6-27 151.9 9.3 178.9 80.9 27 71.7-9.3 151.9-80.9 178.9z"/><path class="b" d="m246.2 99.3c22.3 59-7.5 125-66.6 147.2-59 22.3-125-7.5-147.2-66.6-22.3-59 7.5-124.9 66.6-147.2 59-22.3 124.9 7.5 147.2 66.6z"/><path class="c" d="m153.3 41q7.6-6.5 14.9-11.9c8 2.1 15.7 5 23 8.7-9.2 5.7-18 13.1-25.7 22.8-30.3 38.2-67.9 75.8-140.2 86.9-1.2-16.6 1.4-33 7.1-48.2 27.5-4.9 74.9-18.9 120.9-58.3z"/><path class="d" d="m246.9 101.4c-29 6.6-63.6 17.7-87.5 35.7-51.8 38.9-94.9 49.8-123.2 51.6-1.4-2.8-2.7-5.8-3.8-8.8q-0.8-2-1.4-4c18.2-1.6 60.1-9.7 102.9-50.7 32.3-31.1 58.9-54 84-68.5 12.2 11.5 22 25.9 28.3 42.6 0.3 0.7 0.5 1.4 0.7 2.1z"/><path class="e" d="m251.9 120.4c4.1 23.8 0.4 47.7-9.6 68.7-58.1 37.9-112.1 52.1-143.5 57.3-6.4-2.4-12.6-5.4-18.5-9 68.1-12.8 86.2-49.7 119.1-85.3 18.1-19.6 37.5-28.1 52.5-31.7z"/></svg>