<svg version="1.2" xmlns="http://www.w3.org/2000/svg" viewBox="0 0 577 98" width="577" height="98"><defs><linearGradient id="P" gradientUnits="userSpaceOnUse"/><linearGradient id="g1" x1="321.2" y1="264.5" x2="329.4" y2="-2.4" href="#P"><stop stop-color="#9fc0fc"/><stop offset=".5" stop-color="#5d6fc0"/><stop offset="1" stop-color="#330444"/></linearGradient><linearGradient id="g2" x1="-9.2" y1="254.4" x2="-1" y2="-12.5" href="#P"><stop stop-color="#9fc0fc"/><stop offset=".5" stop-color="#5d6fc0"/><stop offset="1" stop-color="#330444"/></linearGradient><linearGradient id="g3" x1=".9" y1="-1.6" x2="243" y2="-1.6" href="#P"><stop stop-color="#5f2a31"/><stop offset="1" stop-color="#5e1729"/></linearGradient><linearGradient id="g4" x1="46.5" y1="10.7" x2="125.6" y2="10.7" href="#P"><stop stop-color="#5f2a31"/><stop offset="1" stop-color="#5e1729"/></linearGradient><linearGradient id="g5" x1="8.1" y1="11.7" x2="16.3" y2="-20.1" href="#P"><stop stop-color="#9f58fa"/><stop offset="1" stop-color="#ecb56f"/></linearGradient><linearGradient id="g6" x1="184" y1="63.9" x2="183.8" y2="57" href="#P"><stop stop-color="#5f2a31"/><stop offset="1" stop-color="#5e1729"/></linearGradient><linearGradient id="g7" x1="185.1" y1="57.6" x2="193.3" y2="25.8" href="#P"><stop stop-color="#9f58fa"/><stop offset="1" stop-color="#ecb56f"/></linearGradient><linearGradient id="g8" x1="31.3" y1="-8.7" x2="155.1" y2="-65.7" href="#P"><stop stop-color="#9f58fa"/><stop offset="1" stop-color="#ecb56f"/></linearGradient><linearGradient id="g9" x1="68.9" y1="73.1" x2="192.8" y2="16.1" href="#P"><stop stop-color="#9f58fa"/><stop offset="1" stop-color="#ecb56f"/></linearGradient><linearGradient id="g10" x1="81" y1="99.3" x2="204.8" y2="42.4" href="#P"><stop stop-color="#9f58fa"/><stop offset="1" stop-color="#ecb56f"/></linearGradient><linearGradient id="g11" x1="330.9" y1="58.6" x2="507.4" y2="58.6" href="#P"><stop stop-color="#5f2a31"/><stop offset="1" stop-color="#5e1729"/></linearGradient><linearGradient id="g12" x1="407.6" y1="69.5" x2="475.2" y2="69.5" href="#P"><stop stop-color="#5f2a31"/><stop offset="1" stop-color="#5e1729"/></linearGradient><linearGradient id="g13" x1="548.2" y1="79.5" x2="548.1" y2="76.3" href="#P"><stop stop-color="#5f2a31"/><stop offset="1" stop-color="#5e1729"/></linearGradient><linearGradient id="g14" x1="507.4" y1="86.1" x2="507.3" y2="81.6" href="#P"><stop stop-color="#5f2a31"/><stop offset="1" stop-color="#5e1729"/></linearGradient><linearGradient id="g15" x1="441.3" y1="76.1" x2="464.9" y2="76.1" href="#P"><stop stop-color="#5f2a31"/><stop offset="1" stop-color="#5e1729"/></linearGradient><linearGradient id="g16" x1="373.7" y1="45.9" x2="437" y2="45.9" href="#P"><stop stop-color="#5f2a31"/><stop offset="1" stop-color="#5e1729"/></linearGradient><linearGradient id="g17" x1="332.1" y1="56.7" x2="339.8" y2="26.1" href="#P"><stop stop-color="#9f58fa"/><stop offset="1" stop-color="#ecb56f"/></linearGradient><linearGradient id="g18" x1="493.6" y1="137.3" x2="501.8" y2="105.5" href="#P"><stop stop-color="#9f58fa"/><stop offset="1" stop-color="#ecb56f"/></linearGradient><linearGradient id="g19" x1="530.6" y1="146.9" x2="538.8" y2="115.1" href="#P"><stop stop-color="#9f58fa"/><stop offset="1" stop-color="#ecb56f"/></linearGradient><linearGradient id="g20" x1="324.1" y1="80.6" x2="373.5" y2="-6" href="#P"><stop stop-color="#9f58fa"/><stop offset="1" stop-color="#ecb56f"/></linearGradient><linearGradient id="g21" x1="468.1" y1="162.6" x2="517.4" y2="76" href="#P"><stop stop-color="#9f58fa"/><stop offset="1" stop-color="#ecb56f"/></linearGradient><linearGradient id="g22" x1="493.6" y1="177.1" x2="543" y2="90.6" href="#P"><stop stop-color="#9f58fa"/><stop offset="1" stop-color="#ecb56f"/></linearGradient><linearGradient id="g23" x1="501.7" y1="270" x2="509.9" y2="3.1" href="#P"><stop stop-color="#9fc0fc"/><stop offset=".5" stop-color="#5d6fc0"/><stop offset="1" stop-color="#330444"/></linearGradient><linearGradient id="g24" x1="543" y1="271.3" x2="551.2" y2="4.4" href="#P"><stop stop-color="#9fc0fc"/><stop offset=".5" stop-color="#5d6fc0"/><stop offset="1" stop-color="#330444"/></linearGradient></defs><style>.a{fill:url(#g1)}.b{fill:url(#g2)}.c{fill:url(#g3)}.d{fill:#8e403b}.e{opacity:.5;mix-blend-mode:multiply;fill:#a698fb}.f{fill:url(#g4)}.g{opacity:.1;fill:url(#g5)}.h{fill:url(#g6)}.i{opacity:.1;fill:url(#g7)}.j{opacity:.2;fill:url(#g8)}.k{opacity:.2;fill:url(#g9)}.l{opacity:.2;fill:url(#g10)}.m{fill:url(#g11)}.n{fill:url(#g12)}.o{fill:url(#g13)}.p{fill:url(#g14)}.q{fill:url(#g15)}.r{fill:url(#g16)}.s{opacity:.1;fill:url(#g17)}.t{opacity:.1;fill:url(#g18)}.u{opacity:.1;fill:url(#g19)}.v{opacity:.2;fill:url(#g20)}.w{opacity:.2;fill:url(#g21)}.x{opacity:.2;fill:url(#g22)}.y{fill:url(#g23)}.z{fill:url(#g24)}</style><path class="a" d="m507.4 76.1l-3.2 4-28.9 1.1-0.4 4.6-14.7 4.7-119.8-1.1-1.4-5.7-8.1-5.4z"/><path class="b" d="m14.8 98l-13.9-42.5 242.1-1.1-3.9 7.6 3.6 1.6-7.5 4.3-6.4 11.1-69.1 0.4-17.9 18.6z"/><path class="c" d="m243 54.4l-13.7 1.4-74.5 1.8-0.4 0.2-4.4 2.6-73.8 1.9-19.9 0.5h-0.5l2.6-7.3h-57.5l15.5-53v-0.1l172.7 16.5 37.1 5.1-0.5 6.1-0.2 2.3 10.2-1.8z"/><path class="d" d="m226.2 24l-42-1.5-33.5 11-69.3-8.8-12.4-4.2-0.3-0.1-13.8-4.7-2.6-0.9-35.9-12.3-0.4-0.1 91.3-2.2z"/><path class="d" d="m235.7 30.6l-11.8 4.7-65 0.8 22-5.5 10.3-2.2 34.5 1.7z"/><path class="e" d="m151.6 33.7l-1.6 26.7-73.8 1.9 5.2-37.6z"/><path class="e" d="m229.3 55.8l-74.5 1.8-0.4 0.2 4.5-21.7 65-0.8z"/><path class="f" d="m46.5 14.7l79.1 1.5-72.7 5.4z"/><path class="e" d="m124.5 16.1h-0.3l-52.1 4-0.6 0.1h-0.5l-1.9 0.2-0.1 0.1-12.7 42.3v0.2h-0.6l0.1-0.2 2.6-7.3h-5.4l-1-34.8-0.1-5h3l67 0.4h0.1z"/><path class="g" d="m235.7 30.6l7.3 23.8-13.7 1.4-74.5 1.8-0.4 0.2-4.4 2.6-73.8 1.9-19.9 0.5v0.2h-0.6l0.1-0.2 2.6-7.3h-57.5l15.5-53-0.4-0.1 91.3-2.2 118.9 23.8-0.5 6.1z"/><path class="h" d="m242.7 63.6h-54.7l11.3-14.3 18.6 1.5 23.6 12.2z"/><path class="d" d="m241.8 63.2l-42.5-13.9 26.5 0.8 15.7 12.9z"/><path class="i" d="m241.1 63l1.3 0.6h-54.8l11.3-14.3 26.5 0.8z"/><path class="j" d="m107.1 0.3l119.1 23.7-42-1.5-32.6 11.2-70.2-9-10.4-4.5 53.2-4.1-72.3-0.4-35.5-13.2z"/><path class="k" d="m158.9 36.1l32.3-7.7 44.5 2.2-11.8 4.7z"/><path class="l" d="m241.5 63l-42.2-13.7 26.5 0.8z"/><path class="d" d="m503.8 69.1l-90.6-3.4-74.4-2.8h-0.2 0.3l1.2-0.3 33.6-6.8 8.5-5.8 0.8-0.1 26.8-6z"/><path class="m" d="m507.4 76.1l-16.1 0.2-8.7 0.1-9 0.1-5.4 0.1-17.6 0.2-33.1 0.4-86.6 1.1 4.8-5.9 3.1-9.5h0.1l0.1-0.3h1.1l163.7 6.5z"/><path class="n" d="m475.2 79.8l-15.4 8.1-52.2-1.7 0.1-2.8 42.9-6.6 21.5-3.3 1.5 3z"/><path class="d" d="m472.1 73.5l-3.9 3.1-4.4 3.5-1.8 1.4-3.2 2.5-51.1-0.6 9.8-6.2 9-5.7 1.2-0.7z"/><path class="o" d="m576.9 79.4h-24.7l5.1-6.8 8.4 0.7 10.6 5.8z"/><path class="p" d="m554 82.9v1.8l-4.3 1.1-38.3-1.4 10.4-7.9 0.9 0.2 30.9 6.2z"/><path class="d" d="m553.8 82.9l-5.6 1.1-25.8-7.3h0.3l10.2-1.6 20.7 7.8z"/><path class="d" d="m576.4 79.2l-19.1-6.6 11.9 0.3 7.1 6.2z"/><path class="e" d="m491.4 76.4h-17.4l-1.9-2.9-45.6-2-81.5-3.6-0.3 1.4 69.7 5.4-78.7-2.3 3.1-9.5h0.1l0.1-0.3h1.1l73.1 3.1 76.7 3.3 1.4 7.3z"/><path class="q" d="m462.7 81.5l-21.4-1.1 23.6-0.3z"/><path class="r" d="m437 58.6l-63.3-2.8 8.5-5.8 0.8-0.1z"/><path class="s" d="m507.4 76.1l-16.1 0.2 0.1 0.1h-8.8l-9 0.1 1.6 3.3-15.4 8.1-52.2-1.7 0.1-2.8 9.8-6.2-86.6 1.1 4.8-5.9 3.1-9.5h-0.2 0.3l0.1-0.3h1.1l33.6-6.8 8.5-5.8 0.8-0.1 26.8-6 94 25.2z"/><path class="t" d="m553.6 82.9h0.4v1.8l-4.3 1.1-38.3-1.4 10.4-7.9 0.9 0.2 10.2-1.6z"/><path class="u" d="m576.9 79.4h-24.7l5.1-6.8 11.9 0.3 7.1 6.2z"/><path class="v" d="m373.7 55.8l53.6 2.1-44.3-8 26.8-6 94 25.2-164.9-6.2z"/><path class="w" d="m521.8 76.5l11.1-1.4 20.7 7.8-5.4 1.1z"/><path class="x" d="m569.2 72.9l6.4 6.1-18.1-5.9z"/><path class="y" d="m554 84.7l-4.7 2.5-28.6 3.6-9.3-6.4z"/><path class="z" d="m576.3 79.1l-20.5 5.6-2.9-5.4z"/></svg>