<svg version="1.2" xmlns="http://www.w3.org/2000/svg" viewBox="0 0 179 217" width="179" height="217"><defs><linearGradient id="P" gradientUnits="userSpaceOnUse"/><linearGradient id="g1" x1="-3.9" y1="179.9" x2="-3.9" y2="3.4" href="#P"><stop stop-color="#796adb"/><stop offset=".9" stop-color="#a74aff"/></linearGradient><linearGradient id="g2" x1="73.8" y1="216.1" x2="73.8" y2="195.5" href="#P"><stop stop-color="#c43b29"/><stop offset=".9" stop-color="#e0613b"/></linearGradient><linearGradient id="g3" x1="81.6" y1="209.8" x2="81.6" y2="193.8" href="#P"><stop stop-color="#f4a688"/><stop offset=".9" stop-color="#ffcfc4"/></linearGradient><linearGradient id="g4" x1="69.6" y1="210.2" x2="69.6" y2="195.4" href="#P"><stop stop-color="#f4a688"/><stop offset=".9" stop-color="#ffcfc4"/></linearGradient><linearGradient id="g5" x1="111.6" y1="209.6" x2="111.6" y2="194.8" href="#P"><stop stop-color="#f4a688"/><stop offset=".9" stop-color="#ffcfc4"/></linearGradient><linearGradient id="g6" x1="1.2" y1="179.7" x2="1.2" y2="23" href="#P"><stop stop-color="#7463ff"/><stop offset=".9" stop-color="#7cdbff"/></linearGradient><linearGradient id="g7" x1="16.5" y1="178" x2="16.5" y2="6.5" href="#P"><stop stop-color="#742eff"/><stop offset=".9" stop-color="#9d60ff"/></linearGradient><linearGradient id="g8" x1="43.5" y1="177.6" x2="43.5" y2="12.2" href="#P"><stop stop-color="#7210cc"/><stop offset=".9" stop-color="#9547bd"/></linearGradient><linearGradient id="g9" x1="179.5" y1="179.7" x2="179.5" y2="23" href="#P"><stop stop-color="#7210cc"/><stop offset=".9" stop-color="#9547bd"/></linearGradient><linearGradient id="g10" x1="164.2" y1="178" x2="164.2" y2="6.5" href="#P"><stop stop-color="#7463ff"/><stop offset=".9" stop-color="#7cdbff"/></linearGradient><linearGradient id="g11" x1="137.2" y1="177.6" x2="137.2" y2="12.2" href="#P"><stop stop-color="#742eff"/><stop offset=".9" stop-color="#9d60ff"/></linearGradient><radialGradient id="g12" cx="134.2" cy="99.5" r="57.4" href="#P"><stop offset=".1" stop-color="#ff823b"/><stop offset="1" stop-color="#c43b29"/></radialGradient><radialGradient id="g13" cx="46.6" cy="99.2" r="57.6" href="#P"><stop offset=".1" stop-color="#ff823b"/><stop offset="1" stop-color="#c43b29"/></radialGradient><radialGradient id="g14" cx="89.8" cy="87" r="56.8" href="#P"><stop offset=".1" stop-color="#ff823b"/><stop offset="1" stop-color="#c43b29"/></radialGradient><radialGradient id="g15" cx="117.3" cy="89.6" r="58.9" href="#P"><stop offset=".1" stop-color="#ff823b"/><stop offset="1" stop-color="#c43b29"/></radialGradient><radialGradient id="g16" cx="63.2" cy="89.6" r="58.9" href="#P"><stop offset=".1" stop-color="#ff823b"/><stop offset="1" stop-color="#c43b29"/></radialGradient><radialGradient id="g17" cx="110.9" cy="41.2" r="15.5" href="#P"><stop stop-color="#7e39ff"/><stop offset="1"/></radialGradient><radialGradient id="g18" cx="57.7" cy="45.6" r="10" href="#P"><stop stop-color="#7e39ff"/><stop offset="1"/></radialGradient><radialGradient id="g19" cx="31.4" cy="51.9" r="9.1" href="#P"><stop stop-color="#ef487c"/><stop offset="1"/></radialGradient><radialGradient id="g20" cx="13.1" cy="65.1" r="5.9" href="#P"><stop stop-color="#ffc754"/><stop offset="1"/></radialGradient><radialGradient id="g21" cx="152.5" cy="50.1" r="7.3" href="#P"><stop stop-color="#ffc754"/><stop offset="1"/></radialGradient><radialGradient id="g22" cx="90.5" cy="174.2" r="14.9" href="#P"><stop offset=".1" stop-color="#e0613b"/><stop offset="1" stop-color="#c43b29"/></radialGradient><linearGradient id="g23" x1="43.7" y1="173.6" x2="43.7" y2="70.1" href="#P"><stop offset=".1" stop-color="#e0388b"/><stop offset="1" stop-color="#fff"/></linearGradient><linearGradient id="g24" x1="27.4" y1="177.3" x2="27.4" y2="116.4" href="#P"><stop offset=".1" stop-color="#e0388b"/><stop offset="1" stop-color="#fff"/></linearGradient><linearGradient id="g25" x1="83.9" y1="168.7" x2="83.9" y2="101.4" href="#P"><stop offset=".1" stop-color="#e0388b"/><stop offset="1" stop-color="#fff"/></linearGradient></defs><style>.a{fill:#9f273d}.b{fill:#9f68a2}.c{fill:url(#g1)}.d{fill:url(#g2)}.e{fill:#f1773d}.f{fill:url(#g3)}.g{fill:url(#g4)}.h{fill:url(#g5)}.i{fill:url(#g6)}.j{fill:url(#g7)}.k{fill:url(#g8)}.l{fill:url(#g9)}.m{fill:url(#g10)}.n{fill:url(#g11)}.o{fill:#ff7e8b}.p{opacity:.5;fill:#941354}.q{opacity:.3;fill:#941354}.r{fill:url(#g12)}.s{fill:url(#g13)}.t{fill:url(#g14)}.u{fill:url(#g15)}.v{fill:url(#g16)}.w{opacity:.2;fill:#ff86ff}.x{opacity:.2;fill:#ffcfff}.y{opacity:.2;fill:#ff65ff}.z{mix-blend-mode:screen;fill:url(#g17)}.A{opacity:.5;mix-blend-mode:screen;fill:url(#g18)}.B{mix-blend-mode:screen;fill:url(#g19)}.C{mix-blend-mode:screen;fill:url(#g20)}.D{mix-blend-mode:screen;fill:url(#g21)}.E{fill:url(#g22)}.F{opacity:.5;mix-blend-mode:multiply;fill:url(#g23)}.G{opacity:.5;mix-blend-mode:multiply;fill:url(#g24)}.H{opacity:.5;mix-blend-mode:multiply;fill:url(#g25)}.I{opacity:.8;fill:#7c0036}.J{opacity:.8;mix-blend-mode:soft-light;fill:#e75b36}.K{mix-blend-mode:screen;fill:#bd3800}.L{mix-blend-mode:screen;fill:#ffb000}</style><path class="a" d="m77.8 194.6l-4.8-15 0.5 0.1 4.9 14.7z"/><path class="a" d="m108.2 179.7l-5.8 13.6-0.4-0.1 5.7-13.4z"/><path class="b" d="m83.3 193.6l-2.2-13.7h0.6l1.8 13.6z"/><path class="b" d="m97.5 192.6l1-12.7 0.5-0.1-1.2 12.8z"/><path class="c" d="m107.9 179.9h-17.5-17.5q-56.3-24.8-69.9-76.8c-1.9-6.4-2.9-13.2-2.9-20.2 0-43.9 39.9-79.5 89.2-79.5 49.2 0 89.2 35.6 89.2 79.5q-2 65.7-70.6 97z"/><path class="a" d="m80.1 216.1q9.9-1.1 20.4 0-11.5 0.8-20.4 0z"/><path class="a" d="m76.4 196.7q13.2 1.3 27.4-2-10.6-4-27.4 2z"/><path class="d" d="m80.1 216.1l-2.3-19.4q11.9-4 24.9-1.9l-2.2 21.3q-8.2-1.1-20.4 0z"/><path class="e" d="m104.2 193.8l-0.4 0.9q-14.4-2.8-27.4 2l-0.2-1.6q16.9-5.2 28-1.3z"/><path class="f" d="m88.6 194q1.8-1.3 3.5-0.3l-1.2 1.3 4.1 2.2q-0.2 5.7-0.7 11l0.3 1.4-1.2-0.4q-2.9 0.4-5.8 0l-1 0.6v-1.4q-1-6.7-1-11.2l4.2-2.3z"/><path class="g" d="m77.1 195.6q1.2-1.3 2.5-0.3l-0.9 1.2 2.1 1.8q-0.2 5.3-0.5 10.4l0.2 1.3-0.9-0.3q-2.1 0.4-4.3 0l-0.7 0.5v-1.3q-2.4-6.3-0.8-10.6l4.1-1.8z"/><path class="h" d="m103.3 195.9l4.1 1.7q1.6 4.3-0.8 10.7v1.3l-0.8-0.5q-2.1 0.3-4.3 0l-0.8 0.3 0.2-1.3q-0.4-5.1-0.5-10.4l2.1-1.8-0.9-1.2q1.2-1 2.5 0.2z"/><path class="i" d="m74.9 179.7q-52.9-26.3-66.6-85.1-13.1-56 22.3-71.6 11.2 108.1 45.3 155z"/><path class="j" d="m75.9 178q-44.5-36.1-53.9-94.4c-9.4-58.4 17.7-75.7 42.5-77.1q2.5 138.8 16.6 171.1z"/><path class="k" d="m89.3 3.4l1.1 174.2h-9.3q-35.6-71.6-33.6-130.6 1.9-56.9 41.8-43.6z"/><path class="l" d="m104.8 178q34.1-46.9 45.4-155 35.4 15.6 22.3 71.6-13.8 58.8-66.6 85.1z"/><path class="m" d="m99.7 177.6q14-32.3 16.6-171.1c24.8 1.4 51.8 18.7 42.5 77.1q-9.4 58.3-54 94.4z"/><path class="n" d="m133.3 47q2 59-33.6 130.6h-9.4l-1-174.2q42.1-13.3 44 43.6z"/><path class="o" d="m72.9 179.9q17.7-13 35 0-18.6 1.5-35 0z"/><path class="a" d="m89.8 194.9l1.3-0.2 0.1 0.4h-1.8z"/><path class="a" d="m102.5 195.9l1-0.3 0.2 0.5-1.3-0.1z"/><path class="a" d="m78.8 196.4v0.2h-1.2l0.1-0.3z"/><path class="p" d="m85.6 198.9q0.4 8.1 2.1 9.2c1.9 1.3 5.4 0.7 6.1-0.7q0.6-1.3 1.1-8.5l0.1 12.2h-9.4z"/><path class="p" d="m81 210.7h-1.5l-0.1-1-0.8 0.1q1.1-1 2.2-11.5 0.5 4 0.2 12.4z"/><path class="p" d="m100.4 197.7q1.1 10.1 1.6 10.8 0.4 0.7 1.7 0.7-0.7 0-2.2-0.1l-0.3 0.1-0.1 1.1h-1.5z"/><path class="q" d="m105.8 197.7h-1.4l-1.7-1.7z"/><path class="q" d="m101.7 197.7l-0.2-0.4 1-1.4z"/><path class="q" d="m90.9 195.1l2.3 2-0.2 0.6z"/><path class="q" d="m88 197.1l-0.7-0.4 2.3-1.6z"/><path class="q" d="m78.7 196.5l1.2 1.6 0.2 0.3-0.8-0.3-0.9-1.5z"/><path class="q" d="m77.9 196.6l-2.2 1.2-1.3 0.2 3.4-1.4z"/><path class="r" d="m150.2 23c2.5 2.5 4.4 5.6 5.9 8.9 1.5 3.2 2.5 6.6 3.4 10.1 1.5 7 2 14.1 1.8 21.3-0.5 14.2-3.1 28.4-7.6 41.9-4.6 13.5-11 26.4-18.8 38.3-7.9 11.9-17 23.1-27.7 32.5 5.4-4.7 10.2-10 14.7-15.5q6.9-8.2 12.7-17.1c7.8-12 14.1-24.8 18.6-38.3 4.5-13.5 7.2-27.6 7.8-41.8 0.2-7.2-0.3-14.3-1.8-21.3-0.8-3.4-1.8-6.8-3.2-10.1-1.5-3.2-3.3-6.4-5.8-8.9z"/><path class="s" d="m31.4 22.4c-4.7 5.4-7.2 12.3-8.9 19.2-1.7 6.9-2.3 14.1-2.2 21.2 0.2 14.3 2.8 28.5 7.1 42 4.4 13.6 10.6 26.6 18.3 38.6 3.9 6 8.1 11.7 12.7 17.2 4.6 5.4 9.4 10.7 14.8 15.4-10.8-9.4-19.9-20.5-27.8-32.5-7.7-12-14.1-24.9-18.4-38.5-4.4-13.7-6.9-27.9-7-42.2-0.1-7.1 0.5-14.3 2.2-21.3 1.8-6.9 4.5-13.8 9.2-19.1z"/><path class="t" d="m89.3 3.4c0.4 27.9 0.5 55.7 0.8 83.6 0.1 27.8 0.3 55.7 0.3 83.6-0.4-27.9-0.5-55.8-0.8-83.6-0.1-27.9-0.4-55.7-0.3-83.6z"/><path class="u" d="m116.3 6.5c3.4 1.4 6.1 4.1 8.2 7.1 2.2 3 3.7 6.4 5 9.9 2.4 7 3.5 14.3 4 21.7 0.8 14.8-0.6 29.6-3.5 44-2.8 14.5-7 28.7-11.8 42.6-4.9 14-10.4 27.7-16.7 41 3.1-6.7 5.9-13.5 8.7-20.4 2.7-6.8 5.3-13.7 7.6-20.7 4.8-13.9 8.9-28.1 11.7-42.6 2.9-14.4 4.4-29.2 3.7-43.9-0.5-7.3-1.6-14.7-3.9-21.6-1.2-3.5-2.7-6.9-4.9-9.9-2-3-4.7-5.8-8.1-7.2z"/><path class="v" d="m64.2 6.5c-3.4 1.4-6.1 4.2-8.2 7.2-2.1 3-3.6 6.4-4.8 9.9-2.4 6.9-3.4 14.3-3.9 21.6-0.7 14.7 0.7 29.5 3.6 43.9 2.8 14.5 7 28.7 11.7 42.6 2.4 7 5 13.9 7.7 20.7 2.7 6.9 5.6 13.7 8.7 20.4-6.4-13.3-11.9-27-16.7-41-4.8-13.9-9-28.1-11.9-42.6-2.8-14.4-4.2-29.2-3.5-44 0.6-7.4 1.6-14.7 4.1-21.7 1.2-3.5 2.7-6.9 4.9-9.9 2.2-3 4.8-5.7 8.3-7.1z"/><path class="w" d="m61.6 6.5q-19.6 15.4-14.9 53.1l-4.7-0.9q-4.6-36.8 13.1-50z"/><path class="x" d="m127.9 12.7q17.7 26.7 10.9 67.7l-5-1.2q6-45.5-8.6-67.9z"/><path class="y" d="m107.2 176q40.8-40.5 49.1-80.3l2.3 0.9q-11.4 46.2-36.4 65.9h1.3q10-7.8 21-24.2l6.3 2.3q-21.7 27-41.5 36.7z"/><ellipse class="z" cx="110.9" cy="41.2" rx="15.5" ry="34.7"/><ellipse class="A" cx="57.7" cy="45.6" rx="10" ry="26.2"/><ellipse class="B" cx="31.4" cy="51.9" rx="9.1" ry="23.8"/><ellipse class="C" cx="13.1" cy="65.1" rx="5.9" ry="15.5"/><ellipse class="D" cx="152.5" cy="50.1" rx="7.3" ry="19"/><path class="p" d="m73.8 198.3l3.7-1.5-1.1-0.1-0.2-1.6q17-5.3 28-1.3l-0.4 0.9 0.3 0.2-0.6 0.7 0.2 0.5 3.7 1.5q0.8 1.8 0.4 5.7-2.1 1.2-13.5 1.8-11.4 0.7-21-2.4-0.3-2.3 0.5-4.4z"/><path class="E" d="m73 179.6l-2.9-1.1q9.6-10 20.2-10 10.6 0 20.5 9.9l-2.9 1.5q-5.9-4.7-17.4-4.7-11.6 0-17.5 4.4z"/><path class="F" d="m76.2 173.6q-23.9-41.4-28.5-103.5 3.6 43.5 30.9 101.9z"/><path class="G" d="m71.3 177.3q-29.3-26.5-39.9-60.9 8.7 28.3 41.8 59.6z"/><path class="H" d="m87.9 168.7l1.5-67.3 0.9 67.1z"/><path fill-rule="evenodd" class="I" d="m110.8 178.4c-1.4 0.8-2.3 1.2-2.7 1.4l-5.7 13.5q1.1 0.3 1.8 0.5l-0.4 0.9 0.3 0.2-0.6 0.7 0.2 0.5 3.7 1.5c0.2 0.6 0.4 1.4 0.5 2.3 0.1 1.1 0 2.2-0.1 3.3q0 0 0 0.1-0.3 2.7-1.2 5v1.3l-0.8-0.5q-2.1 0.3-4.3 0l-0.3 0.1-0.7 6.9q-2.1-0.3-5.7-0.4 2.8 0.1 5.7 0.4-11.5 0.8-20.4 0l-0.6-5.4-0.1-1q-0.3 0.1-0.7 0.1h-0.1q0 0 0 0c-0.8 0.1-2 0.1-3.3-0.1l-0.7 0.5v-1.3q-1.2-3-1.3-6.2 0 0 0 0 0-0.1 0-0.1c-0.1-0.9-0.1-1.8 0.1-2.5q0-0.2 0-0.5 0 0 0.1 0 0-0.4 0.2-0.9 0.1-0.2 0.1-0.4l3.5-1.5-0.9-0.1-0.2-1.6q0.8-0.3 1.6-0.5l-4.7-14.7q-0.1 0-0.2 0-1-0.5-2.8-1.4c-11.5-5.7-55.3-30.4-67.1-75.4-1.9-6.4-2.9-13.2-2.9-20.2 0-13 3.5-25.3 9.7-36.2q7.3-17.7 20.8-23.7 0 0 0 0 0.3-0.2 0.7-0.5 0.1-0.1 0.1-0.1 0 0 0 0c7.8-9.7 18.5-14.2 29.1-15.5l1.1-0.4q-0.1 0.1-0.3 0.3 1.2-0.2 2.4-0.2 11.8-7.8 25.6-3.2 14.6-4.6 27 3.2v-0.1c12.2 0.7 25.1 5.3 33.8 16.9l0.1-0.4q19.5 8.6 24.2 36c2.6 7.6 4.1 15.6 4.1 23.9-1.8 57.6-54.6 88.7-67.7 95.5zm-33 16.2l0.6-0.2q-0.3 0.1-0.6 0.2zm0.6-0.2q2.5-0.7 4.8-1.1l-2.1-12.9c-2.5-0.1-5.1-0.3-7.6-0.5zm5.2-1.1c5.7-1.1 10.4-1.1 13.9-0.8l1-12.1c-4.6 0.2-10.6 0.2-16.7 0zm18.5 0l5.7-13.4c-0.9 0.1-4.2 0.4-8.8 0.5l-1.1 12.2c1.7 0.2 3.1 0.4 4.2 0.7z"/><path fill-rule="evenodd" class="J" d="m110.8 178.4c-1.4 0.8-2.3 1.2-2.7 1.4l-5.7 13.5q1.1 0.3 1.8 0.5l-0.4 0.9 0.3 0.2-0.6 0.7 0.2 0.5 3.7 1.5c0.2 0.6 0.4 1.4 0.5 2.3 0.1 1.1 0 2.2-0.1 3.3q0 0 0 0.1-0.3 2.7-1.2 5v1.3l-0.8-0.5q-2.1 0.3-4.3 0l-0.3 0.1-0.7 6.9q-2.1-0.3-5.7-0.4 2.8 0.1 5.7 0.4-11.5 0.8-20.4 0l-0.6-5.4-0.1-1q-0.3 0.1-0.7 0.1h-0.1q0 0 0 0c-0.8 0.1-2 0.1-3.3-0.1l-0.7 0.5v-1.3q-1.2-3-1.3-6.2 0 0 0 0 0-0.1 0-0.1c-0.1-0.9-0.1-1.8 0.1-2.5q0-0.2 0-0.5 0 0 0.1 0 0-0.4 0.2-0.9 0.1-0.2 0.1-0.4l3.5-1.5-0.9-0.1-0.2-1.6q0.8-0.3 1.6-0.5l-4.7-14.7q-0.1 0-0.2 0-1-0.5-2.8-1.4c-11.5-5.7-55.3-30.4-67.1-75.4-1.9-6.4-2.9-13.2-2.9-20.2 0-13 3.5-25.3 9.7-36.2q7.3-17.7 20.8-23.7 0 0 0 0 0.3-0.2 0.7-0.5 0.1-0.1 0.1-0.1 0 0 0 0c7.8-9.7 18.5-14.2 29.1-15.5l1.1-0.4q-0.1 0.1-0.3 0.3 1.2-0.2 2.4-0.2 11.8-7.8 25.6-3.2 14.6-4.6 27 3.2v-0.1c12.2 0.7 25.1 5.3 33.8 16.9l0.1-0.4q19.5 8.6 24.2 36c2.6 7.6 4.1 15.6 4.1 23.9-1.8 57.6-54.6 88.7-67.7 95.5zm-33 16.2l0.6-0.2q-0.3 0.1-0.6 0.2zm0.6-0.2q2.5-0.7 4.8-1.1l-2.1-12.9c-2.5-0.1-5.1-0.3-7.6-0.5zm5.2-1.1c5.7-1.1 10.4-1.1 13.9-0.8l1-12.1c-4.6 0.2-10.6 0.2-16.7 0zm18.5 0l5.7-13.4c-0.9 0.1-4.2 0.4-8.8 0.5l-1.1 12.2c1.7 0.2 3.1 0.4 4.2 0.7z"/><path class="K" d="m27.8 24.6q-20.1 18.7-12.2 71.8 7.2 48.6 54.5 82.1-56.3-40.2-61.8-83.9c-5.6-43.8 3.1-57.3 19.5-70z"/><path class="L" d="m5.4 55.8q-8.6 21.2 3.1 53.5 12.4 34 44.8 59.2-32.5-20.7-46.2-52.1c-13.7-31.4-3.4-54.5-1.7-60.6z"/></svg>