<svg version="1.2" xmlns="http://www.w3.org/2000/svg" viewBox="0 0 1105 784" width="1105" height="784"><defs><linearGradient id="P" gradientUnits="userSpaceOnUse"/><linearGradient id="g1" x1="1114.8" y1="18.8" x2="1070.3" y2="112.2" href="#P"><stop stop-color="#fff"/><stop offset="1" stop-color="#ecd1e5"/></linearGradient><linearGradient id="g2" x1="1098.3" y1="-11.6" x2="1116.4" y2="9" href="#P"><stop stop-color="#968dc8"/><stop offset="1" stop-color="#545aaf"/></linearGradient><linearGradient id="g3" x1="1070.5" y1="80.8" x2="1057.3" y2="132.1" href="#P"><stop stop-color="#968dc8"/><stop offset="1" stop-color="#545aaf"/></linearGradient><linearGradient id="g4" x1="1023" y1="32" x2="1005.8" y2="78.1" href="#P"><stop stop-color="#968dc8"/><stop offset="1" stop-color="#545aaf"/></linearGradient><linearGradient id="g5" x1="1070.2" y1="11.7" x2="1089.6" y2="33.8" href="#P"><stop stop-color="#968dc8"/><stop offset="1" stop-color="#545aaf"/></linearGradient><linearGradient id="g6" x1="1083.8" y1="25.6" x2="1078.1" y2="56" href="#P"><stop stop-color="#573c81"/><stop offset="1" stop-color="#472f70"/></linearGradient><linearGradient id="g7" x1="1044.5" y1="80" x2="1035.7" y2="103.9" href="#P"><stop stop-color="#968dc8"/><stop offset="1" stop-color="#545aaf"/></linearGradient><linearGradient id="g8" x1="1040.2" y1="49.9" x2="1048.1" y2="58.9" href="#P"><stop stop-color="#968dc8"/><stop offset="1" stop-color="#545aaf"/></linearGradient></defs><style>.a{fill:#fff}.b{fill:url(#g1)}.c{fill:url(#g2)}.d{fill:url(#g3)}.e{fill:url(#g4)}.f{fill:url(#g5)}.g{fill:url(#g6)}.h{fill:#835a9b}.i{fill:url(#g7)}.j{fill:url(#g8)}</style><path class="a" d="m3.2 80.6q76.7-94.6 196.9 6.7c138.8 117.1 268.5 35.4 368-34.6 99.4-70.1 147 15 270.9 51.4 75.4 22.1 154.9-4.7 174.4-25.1q-6.7 42.6-130.6 66.4c-135.2 25.9-179.5 148.8-70.6 275.6 92.3 107.6-404.1 114.3-241.5 363h-570.5z"/><path class="b" d="m1023.4 103.2l-15.2-17.3-15.2-17.2c5.7-15.1 18-31.3 28.4-39.4 33-25.5 78.2-29.3 83.1-28.3 0.5 5-9 49.5-38.5 79-9.3 9.3-26.9 19.4-42.6 23.2z"/><path class="c" d="m1080.7 3.6c12.5-2.6 21.8-3 23.8-2.6 0.2 2.1-1.4 11.3-5.5 23.3-3.3-2.9-6.6-6.1-9.8-9.8-3.2-3.6-6-7.3-8.5-10.9z"/><path class="d" d="m1029.1 123c4.7-7.9 6.4-16.4 4.7-23.1 11.2-4.3 22.4-11.1 29.8-17.7 0.8 6.9-0.7 14.8-4.7 22.1-6.9 12.6-19.1 19.9-29.8 18.7z"/><path class="e" d="m996.3 33.3c7.8-3.1 15.8-3.6 22.5-1.9-7.5 6.6-15.5 16.7-21.3 27.4-6.4-2.6-15-2-23.5 1.7 0.2-10.8 8.9-22 22.3-27.2z"/><path class="f" d="m1077 47.1c-6.8 6-17.1 5.3-23.1-1.4-6-6.8-5.3-17.2 1.4-23.2 6.8-5.9 17.2-5.3 23.2 1.5 5.9 6.8 5.3 17.1-1.5 23.1z"/><path class="g" d="m1074.1 43.8c-5 4.3-12.5 3.8-16.9-1.1-4.3-4.9-3.8-12.5 1.1-16.8 4.9-4.4 12.5-3.9 16.8 1.1 4.4 4.9 3.9 12.4-1 16.8z"/><path class="h" d="m1062.8 35.2c-1.4 1.3-3.6 1.1-4.8-0.3-1.3-1.4-1.2-3.6 0.3-4.9 1.4-1.3 3.6-1.1 4.8 0.3 1.3 1.4 1.2 3.6-0.3 4.9z"/><path class="h" d="m1073.7 37c-0.8 0.8-2.1 0.7-2.8-0.1-0.7-0.9-0.7-2.1 0.2-2.8 0.8-0.8 2-0.7 2.8 0.1 0.7 0.9 0.6 2.1-0.2 2.8z"/><path class="i" d="m1032.8 100.3c-3.2 1.1-6.3 2.1-9.4 2.9l-15.2-17.3-15.2-17.2c1.1-3 2.5-6 4.1-9z"/><path class="j" d="m1041.5 62.8l-9.7 10.5q-0.3 0.3-0.6 0.5l-26.8 20.3c-1.5 1.1-3.6 0.9-4.9-0.5-1.3-1.5-1.2-3.6 0.1-5l23.5-24q0.3-0.3 0.6-0.5l11.6-8.3c2-1.4 4.7-1.1 6.3 0.7 1.6 1.8 1.6 4.5-0.1 6.3z"/></svg>